STARTFONT 2.1
FONT -Adobe-New Century Schoolbook-Bold-R-Normal--18-180-75-75-P-113-ISO10646-1
SIZE 18 75 75
FONTBOUNDINGBOX 24 31 -3 -8
COMMENT $XFree86$
COMMENT ISO10646-1 extension by Markus Kuhn <mkuhn@acm.org>, 2001-03-20
COMMENT 
COMMENT +
COMMENT  Copyright 1984-1989, 1994 Adobe Systems Incorporated.
COMMENT  Copyright 1988, 1994 Digital Equipment Corporation.
COMMENT
COMMENT  Adobe is a trademark of Adobe Systems Incorporated which may be
COMMENT  registered in certain jurisdictions.
COMMENT  Permission to use these trademarks is hereby granted only in
COMMENT  association with the images described in this file.
COMMENT
COMMENT  Permission to use, copy, modify, distribute and sell this software
COMMENT  and its documentation for any purpose and without fee is hereby
COMMENT  granted, provided that the above copyright notices appear in all
COMMENT  copies and that both those copyright notices and this permission
COMMENT  notice appear in supporting documentation, and that the names of
COMMENT  Adobe Systems and Digital Equipment Corporation not be used in
COMMENT  advertising or publicity pertaining to distribution of the software
COMMENT  without specific, written prior permission.  Adobe Systems and
COMMENT  Digital Equipment Corporation make no representations about the
COMMENT  suitability of this software for any purpose.  It is provided "as
COMMENT  is" without express or implied warranty.
COMMENT -
STARTPROPERTIES 26
FOUNDRY "Adobe"
FAMILY_NAME "New Century Schoolbook"
WEIGHT_NAME "Bold"
SLANT "R"
SETWIDTH_NAME "Normal"
ADD_STYLE_NAME ""
PIXEL_SIZE 18
POINT_SIZE 180
RESOLUTION_X 75
RESOLUTION_Y 75
SPACING "P"
AVERAGE_WIDTH 113
CHARSET_REGISTRY "ISO10646"
CHARSET_ENCODING "1"
CAP_HEIGHT 14
X_HEIGHT 9
FONT_ASCENT 16
FONT_DESCENT 4
FACE_NAME "New Century Schoolbook Bold"
COPYRIGHT "Copyright (c) 1984, 1987 Adobe Systems Incorporated. All Rights Reserved. Copyright (c) 1988, 1991 Digital Equipment Corporation. All Rights Reserved."

STARTCHAR char0
ENCODING 0
SWIDTH 870 0
DWIDTH 16 0
BBX 13 13 1 0
BITMAP
AAA8
0000
8008
0000
8008
0000
8008
0000
8008
0000
8008
0000
AAA8
ENDCHAR
STARTCHAR space
ENCODING 32
SWIDTH 287 0
DWIDTH 5 0
BBX 1 1 0 0
BITMAP
00
ENDCHAR
STARTCHAR exclam
ENCODING 33
SWIDTH 296 0
DWIDTH 6 0
BBX 4 14 1 0
BITMAP
60
F0
F0
F0
F0
F0
60
60
60
00
60
F0
F0
60
ENDCHAR
STARTCHAR quotedbl
ENCODING 34
SWIDTH 333 0
DWIDTH 8 0
BBX 5 5 1 9
BITMAP
D8
D8
D8
D8
D8
ENDCHAR
STARTCHAR numbersign
ENCODING 35
SWIDTH 574 0
DWIDTH 12 0
BBX 11 13 0 0
BITMAP
0D80
0D80
0D80
7FE0
7FE0
1B00
1B00
FFC0
FFC0
3600
3600
3600
3600
ENDCHAR
STARTCHAR dollar
ENCODING 36
SWIDTH 574 0
DWIDTH 11 0
BBX 9 18 1 -2
BITMAP
0800
0800
3E00
6B80
C980
C980
E800
F800
7E00
3F00
0F80
0B80
C980
C980
EB80
7F00
0800
0800
ENDCHAR
STARTCHAR percent
ENCODING 37
SWIDTH 833 0
DWIDTH 15 0
BBX 14 14 0 0
BITMAP
38C0
6740
C4C0
C480
C580
C900
7300
0238
0664
04C4
0CC4
08C4
18C8
1070
ENDCHAR
STARTCHAR ampersand
ENCODING 38
SWIDTH 852 0
DWIDTH 17 0
BBX 16 14 0 0
BITMAP
0780
0CC0
1840
18C0
1D80
1F00
0E3E
3F18
7790
E3E0
E1E0
E0F1
F1FE
3F1C
ENDCHAR
STARTCHAR quotesingle
ENCODING 39
SWIDTH 241 0
DWIDTH 5 0
BBX 2 5 1 9
BITMAP
C0
C0
C0
C0
C0
ENDCHAR
STARTCHAR parenleft
ENCODING 40
SWIDTH 389 0
DWIDTH 6 0
BBX 5 16 1 -2
BITMAP
18
30
60
60
C0
C0
C0
C0
C0
C0
C0
C0
60
60
30
18
ENDCHAR
STARTCHAR parenright
ENCODING 41
SWIDTH 389 0
DWIDTH 6 0
BBX 5 16 0 -2
BITMAP
C0
60
30
30
18
18
18
18
18
18
18
18
30
30
60
C0
ENDCHAR
STARTCHAR asterisk
ENCODING 42
SWIDTH 500 0
DWIDTH 8 0
BBX 7 7 0 7
BITMAP
38
92
D6
38
D6
92
38
ENDCHAR
STARTCHAR plus
ENCODING 43
SWIDTH 606 0
DWIDTH 11 0
BBX 10 10 0 0
BITMAP
0C00
0C00
0C00
0C00
FFC0
FFC0
0C00
0C00
0C00
0C00
ENDCHAR
STARTCHAR comma
ENCODING 44
SWIDTH 278 0
DWIDTH 5 0
BBX 4 7 0 -3
BITMAP
60
F0
F0
70
20
40
80
ENDCHAR
STARTCHAR hyphen
ENCODING 45
SWIDTH 333 0
DWIDTH 6 0
BBX 5 2 0 4
BITMAP
F8
F8
ENDCHAR
STARTCHAR period
ENCODING 46
SWIDTH 278 0
DWIDTH 5 0
BBX 4 4 0 0
BITMAP
60
F0
F0
60
ENDCHAR
STARTCHAR slash
ENCODING 47
SWIDTH 278 0
DWIDTH 7 0
BBX 6 14 0 0
BITMAP
0C
0C
0C
18
18
18
30
30
30
60
60
60
C0
C0
ENDCHAR
STARTCHAR zero
ENCODING 48
SWIDTH 574 0
DWIDTH 11 0
BBX 9 14 1 0
BITMAP
1C00
7700
6300
E380
E380
E380
E380
E380
E380
E380
E380
6300
7700
1C00
ENDCHAR
STARTCHAR one
ENCODING 49
SWIDTH 574 0
DWIDTH 11 0
BBX 7 14 2 0
BITMAP
18
38
F8
38
38
38
38
38
38
38
38
38
38
FE
ENDCHAR
STARTCHAR two
ENCODING 50
SWIDTH 574 0
DWIDTH 11 0
BBX 9 14 1 0
BITMAP
1E00
6700
E380
E380
6380
0380
0700
0700
0E00
1800
3000
6080
FF80
FF80
ENDCHAR
STARTCHAR three
ENCODING 51
SWIDTH 574 0
DWIDTH 11 0
BBX 9 14 1 0
BITMAP
1E00
6700
E380
E380
6380
0300
1C00
0300
0380
6380
E380
E380
6700
3E00
ENDCHAR
STARTCHAR four
ENCODING 52
SWIDTH 574 0
DWIDTH 11 0
BBX 9 14 1 0
BITMAP
0700
0F00
0F00
1700
1700
2700
2700
4700
4700
8700
FF80
0700
0700
0F80
ENDCHAR
STARTCHAR five
ENCODING 53
SWIDTH 574 0
DWIDTH 11 0
BBX 9 14 1 0
BITMAP
7F80
7F00
4000
4000
4000
7E00
4700
0380
0380
6380
E380
E380
6700
3E00
ENDCHAR
STARTCHAR six
ENCODING 54
SWIDTH 574 0
DWIDTH 11 0
BBX 9 14 1 0
BITMAP
1F00
7380
6380
E300
E000
EE00
F700
E380
E380
E380
E380
6380
7300
1C00
ENDCHAR
STARTCHAR seven
ENCODING 55
SWIDTH 574 0
DWIDTH 11 0
BBX 9 14 1 0
BITMAP
FF80
FF80
FF80
8300
0600
0600
0C00
0C00
1C00
1C00
3800
3800
3800
3800
ENDCHAR
STARTCHAR eight
ENCODING 56
SWIDTH 574 0
DWIDTH 11 0
BBX 9 14 1 0
BITMAP
1C00
6300
C180
C180
E180
FB00
7E00
3F00
4F80
C380
C180
C180
E300
3C00
ENDCHAR
STARTCHAR nine
ENCODING 57
SWIDTH 574 0
DWIDTH 11 0
BBX 9 14 1 0
BITMAP
1C00
6700
E300
E380
E380
E380
E380
7780
3B80
0380
6380
E300
E700
7C00
ENDCHAR
STARTCHAR colon
ENCODING 58
SWIDTH 278 0
DWIDTH 6 0
BBX 4 9 1 0
BITMAP
60
F0
F0
60
00
60
F0
F0
60
ENDCHAR
STARTCHAR semicolon
ENCODING 59
SWIDTH 278 0
DWIDTH 6 0
BBX 4 12 1 -3
BITMAP
60
F0
F0
60
00
60
F0
F0
70
20
40
80
ENDCHAR
STARTCHAR less
ENCODING 60
SWIDTH 606 0
DWIDTH 11 0
BBX 10 10 0 0
BITMAP
00C0
03C0
0F00
3C00
F000
F000
3C00
0F00
03C0
00C0
ENDCHAR
STARTCHAR equal
ENCODING 61
SWIDTH 606 0
DWIDTH 11 0
BBX 9 6 1 2
BITMAP
FF80
FF80
0000
0000
FF80
FF80
ENDCHAR
STARTCHAR greater
ENCODING 62
SWIDTH 606 0
DWIDTH 11 0
BBX 10 10 0 0
BITMAP
C000
F000
3C00
0F00
03C0
03C0
0F00
3C00
F000
C000
ENDCHAR
STARTCHAR question
ENCODING 63
SWIDTH 500 0
DWIDTH 10 0
BBX 9 14 0 0
BITMAP
1F00
6780
E380
E380
6380
0300
0600
0C00
1800
0000
1800
3C00
3C00
1800
ENDCHAR
STARTCHAR at
ENCODING 64
SWIDTH 747 0
DWIDTH 16 0
BBX 15 14 0 0
BITMAP
07F0
1C1C
300C
63E6
6666
CC66
CC66
D8CC
D8CC
D9D8
CEF0
6008
7870
1FC0
ENDCHAR
STARTCHAR A
ENCODING 65
SWIDTH 759 0
DWIDTH 14 0
BBX 14 14 0 0
BITMAP
0300
0300
0780
0780
0F80
09C0
09C0
19E0
10E0
3FE0
20F0
6070
4078
E0FC
ENDCHAR
STARTCHAR B
ENCODING 66
SWIDTH 778 0
DWIDTH 14 0
BBX 12 14 1 0
BITMAP
FFC0
71E0
70E0
70E0
70E0
71C0
7F80
70E0
70F0
7070
7070
7070
70E0
FF80
ENDCHAR
STARTCHAR C
ENCODING 67
SWIDTH 778 0
DWIDTH 14 0
BBX 12 14 1 0
BITMAP
0F90
3C70
7830
7030
F010
E010
E000
E000
E000
F010
7010
7820
3C60
0F80
ENDCHAR
STARTCHAR D
ENCODING 68
SWIDTH 833 0
DWIDTH 16 0
BBX 14 14 1 0
BITMAP
FFC0
70F0
7078
7038
703C
701C
701C
701C
701C
703C
7038
7078
70F0
FFC0
ENDCHAR
STARTCHAR E
ENCODING 69
SWIDTH 759 0
DWIDTH 13 0
BBX 11 14 1 0
BITMAP
FFE0
70E0
7060
7120
7120
7300
7F00
7300
7100
7120
7020
7060
70E0
FFE0
ENDCHAR
STARTCHAR F
ENCODING 70
SWIDTH 722 0
DWIDTH 13 0
BBX 11 14 1 0
BITMAP
FFE0
70E0
7060
7120
7120
7320
7F00
7300
7100
7100
7000
7000
7000
F800
ENDCHAR
STARTCHAR G
ENCODING 71
SWIDTH 833 0
DWIDTH 15 0
BBX 13 14 1 0
BITMAP
0F90
3C70
7830
7030
F010
E010
E000
E000
E0F8
F070
7070
7870
3CF0
0F90
ENDCHAR
STARTCHAR H
ENCODING 72
SWIDTH 870 0
DWIDTH 16 0
BBX 14 14 1 0
BITMAP
FCFC
7038
7038
7038
7038
7038
7FF8
7038
7038
7038
7038
7038
7038
FCFC
ENDCHAR
STARTCHAR I
ENCODING 73
SWIDTH 444 0
DWIDTH 9 0
BBX 5 14 2 0
BITMAP
F8
70
70
70
70
70
70
70
70
70
70
70
70
F8
ENDCHAR
STARTCHAR J
ENCODING 74
SWIDTH 648 0
DWIDTH 12 0
BBX 11 14 0 0
BITMAP
07E0
01C0
01C0
01C0
01C0
01C0
01C0
01C0
61C0
F1C0
F1C0
C3C0
4780
3E00
ENDCHAR
STARTCHAR K
ENCODING 75
SWIDTH 815 0
DWIDTH 16 0
BBX 15 14 1 0
BITMAP
FC7C
7030
7060
70C0
7180
7300
7780
7FC0
7BC0
71E0
70F0
70F8
707C
FCFE
ENDCHAR
STARTCHAR L
ENCODING 76
SWIDTH 722 0
DWIDTH 12 0
BBX 11 14 1 0
BITMAP
FC00
7000
7000
7000
7000
7000
7000
7000
7000
7020
7020
7060
70E0
FFE0
ENDCHAR
STARTCHAR M
ENCODING 77
SWIDTH 981 0
DWIDTH 19 0
BBX 17 14 1 0
BITMAP
7C0780
3C0F00
3E0F00
2E1F00
2F1700
2F1700
273700
27A700
23E700
23C700
23C700
21C700
718700
F88F80
ENDCHAR
STARTCHAR N
ENCODING 78
SWIDTH 833 0
DWIDTH 16 0
BBX 15 14 1 0
BITMAP
F83E
7C1C
3C08
3E08
2F08
2788
2388
21C8
21E8
20E8
2078
2078
7038
F818
ENDCHAR
STARTCHAR O
ENCODING 79
SWIDTH 833 0
DWIDTH 16 0
BBX 15 14 0 0
BITMAP
0FE0
3C78
783C
701C
F01E
E00E
E00E
E00E
E00E
F01E
701C
783C
3C78
0FE0
ENDCHAR
STARTCHAR P
ENCODING 80
SWIDTH 759 0
DWIDTH 14 0
BBX 12 14 1 0
BITMAP
FFE0
70F0
7070
7070
7070
70F0
71E0
7F80
7000
7000
7000
7000
7000
FC00
ENDCHAR
STARTCHAR Q
ENCODING 81
SWIDTH 833 0
DWIDTH 16 0
BBX 15 18 0 -4
BITMAP
0FE0
3C78
783C
701C
F01E
E00E
E00E
E00E
E00E
F79E
79DC
70FC
3CF8
0FE0
0060
0074
007C
0038
ENDCHAR
STARTCHAR R
ENCODING 82
SWIDTH 815 0
DWIDTH 16 0
BBX 14 14 1 0
BITMAP
FFE0
70F0
7070
7070
70F0
71E0
7F80
71C0
71E0
70E0
70E0
70F0
7074
F878
ENDCHAR
STARTCHAR S
ENCODING 83
SWIDTH 667 0
DWIDTH 12 0
BBX 11 14 0 0
BITMAP
3F40
61C0
C0C0
C040
E000
FE00
7FC0
7FE0
0FE0
80E0
8060
C060
E0C0
BF80
ENDCHAR
STARTCHAR T
ENCODING 84
SWIDTH 722 0
DWIDTH 13 0
BBX 11 14 1 0
BITMAP
FFE0
CE60
CE60
8E20
8E20
0E00
0E00
0E00
0E00
0E00
0E00
0E00
0E00
1F00
ENDCHAR
STARTCHAR U
ENCODING 85
SWIDTH 833 0
DWIDTH 16 0
BBX 14 14 1 0
BITMAP
F87C
7038
7010
7010
7010
7010
7010
7010
7010
7010
7010
7010
3820
1FC0
ENDCHAR
STARTCHAR V
ENCODING 86
SWIDTH 759 0
DWIDTH 14 0
BBX 14 14 0 0
BITMAP
F87C
7038
7830
3820
3820
3C60
1C40
1E40
0EC0
0E80
0780
0780
0300
0300
ENDCHAR
STARTCHAR W
ENCODING 87
SWIDTH 981 0
DWIDTH 19 0
BBX 19 14 0 0
BITMAP
FBF3E0
71E1C0
70E180
78E100
38F100
39F300
3D7200
1D3A00
1F3E00
1E3C00
0E1C00
0E1C00
0C1800
040800
ENDCHAR
STARTCHAR X
ENCODING 88
SWIDTH 722 0
DWIDTH 17 0
BBX 16 14 0 0
BITMAP
7E3F
3C1C
1E18
0E30
0F60
07C0
03C0
03E0
06F0
0C70
1878
303C
703E
F87F
ENDCHAR
STARTCHAR Y
ENCODING 89
SWIDTH 722 0
DWIDTH 15 0
BBX 13 14 1 0
BITMAP
F878
7030
7820
3860
3C40
1CC0
1F80
0F80
0F00
0700
0700
0700
0700
0F80
ENDCHAR
STARTCHAR Z
ENCODING 90
SWIDTH 667 0
DWIDTH 13 0
BBX 11 14 1 0
BITMAP
FFE0
E1E0
C1C0
83C0
8780
0700
0F00
1E00
1C00
3C20
7820
7060
F0E0
FFE0
ENDCHAR
STARTCHAR bracketleft
ENCODING 91
SWIDTH 389 0
DWIDTH 5 0
BBX 4 16 1 -2
BITMAP
F0
C0
C0
C0
C0
C0
C0
C0
C0
C0
C0
C0
C0
C0
C0
F0
ENDCHAR
STARTCHAR backslash
ENCODING 92
SWIDTH 606 0
DWIDTH 9 0
BBX 8 14 0 0
BITMAP
C0
C0
60
60
30
30
18
18
0C
0C
06
06
03
03
ENDCHAR
STARTCHAR bracketright
ENCODING 93
SWIDTH 389 0
DWIDTH 5 0
BBX 4 16 0 -2
BITMAP
F0
30
30
30
30
30
30
30
30
30
30
30
30
30
30
F0
ENDCHAR
STARTCHAR asciicircum
ENCODING 94
SWIDTH 606 0
DWIDTH 9 0
BBX 8 8 0 6
BITMAP
18
18
3C
3C
66
66
C3
C3
ENDCHAR
STARTCHAR underscore
ENCODING 95
SWIDTH 500 0
DWIDTH 10 0
BBX 10 2 0 -3
BITMAP
FFC0
FFC0
ENDCHAR
STARTCHAR grave
ENCODING 96
SWIDTH 333 0
DWIDTH 7 0
BBX 5 4 1 10
BITMAP
C0
E0
70
18
ENDCHAR
STARTCHAR a
ENCODING 97
SWIDTH 611 0
DWIDTH 11 0
BBX 10 9 0 0
BITMAP
7F00
E380
C380
0780
3B80
E380
E380
E780
7BC0
ENDCHAR
STARTCHAR b
ENCODING 98
SWIDTH 648 0
DWIDTH 12 0
BBX 12 14 -1 0
BITMAP
F000
7000
7000
7000
7000
7780
78E0
7070
7070
7070
7070
7070
78E0
6F80
ENDCHAR
STARTCHAR c
ENCODING 99
SWIDTH 556 0
DWIDTH 10 0
BBX 9 9 0 0
BITMAP
1F00
7380
E180
E000
E000
E000
E080
7180
1E00
ENDCHAR
STARTCHAR d
ENCODING 100
SWIDTH 667 0
DWIDTH 13 0
BBX 12 14 0 0
BITMAP
01E0
00E0
00E0
00E0
00E0
1EE0
71E0
E0E0
E0E0
E0E0
E0E0
E0E0
71E0
1EF0
ENDCHAR
STARTCHAR e
ENCODING 101
SWIDTH 574 0
DWIDTH 11 0
BBX 10 9 0 0
BITMAP
1E00
7380
E1C0
E1C0
FFC0
E000
E040
70C0
1F00
ENDCHAR
STARTCHAR f
ENCODING 102
SWIDTH 389 0
DWIDTH 7 0
BBX 8 14 0 0
BITMAP
1E
37
77
70
70
FC
70
70
70
70
70
70
70
F8
ENDCHAR
STARTCHAR g
ENCODING 103
SWIDTH 611 0
DWIDTH 11 0
BBX 11 15 0 -4
BITMAP
0060
00E0
3F00
7380
6180
6180
7380
3F00
6000
7F80
3FC0
C1C0
C0C0
E180
7F00
ENDCHAR
STARTCHAR h
ENCODING 104
SWIDTH 685 0
DWIDTH 13 0
BBX 12 14 0 0
BITMAP
F000
7000
7000
7000
7000
77C0
79E0
70E0
70E0
70E0
70E0
70E0
70E0
F9F0
ENDCHAR
STARTCHAR i
ENCODING 105
SWIDTH 370 0
DWIDTH 6 0
BBX 5 14 0 0
BITMAP
70
70
70
00
00
F0
70
70
70
70
70
70
70
F8
ENDCHAR
STARTCHAR j
ENCODING 106
SWIDTH 352 0
DWIDTH 6 0
BBX 7 18 -3 -4
BITMAP
0E
0E
0E
00
00
1E
0E
0E
0E
0E
0E
0E
0E
0E
0E
EE
EC
78
ENDCHAR
STARTCHAR k
ENCODING 107
SWIDTH 667 0
DWIDTH 13 0
BBX 12 14 0 0
BITMAP
F000
7000
7000
7000
7000
73E0
7180
7200
7600
7F00
7780
73C0
71E0
FBF0
ENDCHAR
STARTCHAR l
ENCODING 108
SWIDTH 352 0
DWIDTH 6 0
BBX 5 14 0 0
BITMAP
F0
70
70
70
70
70
70
70
70
70
70
70
70
F8
ENDCHAR
STARTCHAR m
ENCODING 109
SWIDTH 963 0
DWIDTH 20 0
BBX 19 9 0 0
BITMAP
F7DF80
79F3C0
70E1C0
70E1C0
70E1C0
70E1C0
70E1C0
70E1C0
F9F3E0
ENDCHAR
STARTCHAR n
ENCODING 110
SWIDTH 685 0
DWIDTH 13 0
BBX 12 9 0 0
BITMAP
F7C0
79E0
70E0
70E0
70E0
70E0
70E0
70E0
F9F0
ENDCHAR
STARTCHAR o
ENCODING 111
SWIDTH 611 0
DWIDTH 12 0
BBX 11 9 0 0
BITMAP
1F00
71C0
E0E0
E0E0
E0E0
E0E0
E0E0
71C0
1F00
ENDCHAR
STARTCHAR p
ENCODING 112
SWIDTH 667 0
DWIDTH 12 0
BBX 12 13 -1 -4
BITMAP
E780
78E0
7070
7070
7070
7070
7070
78E0
7780
7000
7000
7000
F800
ENDCHAR
STARTCHAR q
ENCODING 113
SWIDTH 648 0
DWIDTH 12 0
BBX 12 13 0 -4
BITMAP
1E60
71E0
E0E0
E0E0
E0E0
E0E0
E0E0
71E0
1EE0
00E0
00E0
00E0
01F0
ENDCHAR
STARTCHAR r
ENCODING 114
SWIDTH 519 0
DWIDTH 9 0
BBX 8 9 0 0
BITMAP
F7
7B
73
70
70
70
70
70
F8
ENDCHAR
STARTCHAR s
ENCODING 115
SWIDTH 500 0
DWIDTH 10 0
BBX 9 9 0 0
BITMAP
3D00
6300
E100
FC00
7F00
0F80
8380
C300
BE00
ENDCHAR
STARTCHAR t
ENCODING 116
SWIDTH 426 0
DWIDTH 8 0
BBX 7 13 0 0
BITMAP
10
30
30
70
FC
70
70
70
70
70
72
72
3C
ENDCHAR
STARTCHAR u
ENCODING 117
SWIDTH 685 0
DWIDTH 13 0
BBX 12 9 0 0
BITMAP
F1E0
70E0
70E0
70E0
70E0
70E0
70E0
79E0
3EF0
ENDCHAR
STARTCHAR v
ENCODING 118
SWIDTH 611 0
DWIDTH 9 0
BBX 10 9 -1 0
BITMAP
F9C0
7080
7080
3900
3900
1E00
1E00
0C00
0C00
ENDCHAR
STARTCHAR w
ENCODING 119
SWIDTH 889 0
DWIDTH 15 0
BBX 16 9 -1 0
BITMAP
FBE7
71C2
71C2
39E4
39E4
1E78
1E78
0C30
0C30
ENDCHAR
STARTCHAR x
ENCODING 120
SWIDTH 611 0
DWIDTH 12 0
BBX 11 9 0 0
BITMAP
FCE0
78C0
3D00
1E00
0E00
0F00
1780
63C0
E7E0
ENDCHAR
STARTCHAR y
ENCODING 121
SWIDTH 611 0
DWIDTH 12 0
BBX 11 13 0 -4
BITMAP
F8E0
7040
7040
3880
3880
1D00
1D00
0E00
0E00
0400
C400
E800
7000
ENDCHAR
STARTCHAR z
ENCODING 122
SWIDTH 537 0
DWIDTH 10 0
BBX 8 9 0 0
BITMAP
FF
CF
8E
1C
38
39
71
F3
FF
ENDCHAR
STARTCHAR braceleft
ENCODING 123
SWIDTH 389 0
DWIDTH 6 0
BBX 5 16 0 -2
BITMAP
18
20
60
60
60
60
60
C0
60
60
60
60
60
60
20
18
ENDCHAR
STARTCHAR bar
ENCODING 124
SWIDTH 606 0
DWIDTH 11 0
BBX 2 14 4 0
BITMAP
C0
C0
C0
C0
C0
C0
C0
C0
C0
C0
C0
C0
C0
C0
ENDCHAR
STARTCHAR braceright
ENCODING 125
SWIDTH 389 0
DWIDTH 6 0
BBX 5 16 0 -2
BITMAP
C0
20
30
30
30
30
30
18
30
30
30
30
30
30
20
C0
ENDCHAR
STARTCHAR asciitilde
ENCODING 126
SWIDTH 606 0
DWIDTH 12 0
BBX 10 3 1 4
BITMAP
39C0
7F80
E700
ENDCHAR
STARTCHAR space
ENCODING 160
SWIDTH 287 0
DWIDTH 5 0
BBX 1 1 0 0
BITMAP
00
ENDCHAR
STARTCHAR exclamdown
ENCODING 161
SWIDTH 296 0
DWIDTH 7 0
BBX 4 14 1 -4
BITMAP
60
F0
F0
60
00
60
60
60
F0
F0
F0
F0
F0
60
ENDCHAR
STARTCHAR cent
ENCODING 162
SWIDTH 574 0
DWIDTH 11 0
BBX 9 13 1 -2
BITMAP
0080
0080
1F00
7380
E380
E400
E400
E800
E880
7180
1E00
2000
2000
ENDCHAR
STARTCHAR sterling
ENCODING 163
SWIDTH 574 0
DWIDTH 11 0
BBX 10 14 0 0
BITMAP
1F00
3180
7380
7380
7000
7000
3800
FF80
1C00
1C00
1840
70C0
9FC0
EF80
ENDCHAR
STARTCHAR currency
ENCODING 164
SWIDTH 606 0
DWIDTH 10 0
BBX 9 9 0 2
BITMAP
DD80
FF80
6300
C180
C180
C180
6300
FF80
DD80
ENDCHAR
STARTCHAR yen
ENCODING 165
SWIDTH 722 0
DWIDTH 15 0
BBX 13 14 1 0
BITMAP
F878
7030
7820
3860
1C40
1CC0
0F80
1FC0
0700
1FC0
0700
0700
0700
0F80
ENDCHAR
STARTCHAR brokenbar
ENCODING 166
SWIDTH 606 0
DWIDTH 11 0
BBX 2 14 4 0
BITMAP
C0
C0
C0
C0
C0
C0
00
00
C0
C0
C0
C0
C0
C0
ENDCHAR
STARTCHAR section
ENCODING 167
SWIDTH 500 0
DWIDTH 8 0
BBX 7 16 0 -2
BITMAP
78
CC
8C
C0
70
7C
9E
86
C2
F2
7C
1C
04
C4
CC
78
ENDCHAR
STARTCHAR dieresis
ENCODING 168
SWIDTH 333 0
DWIDTH 10 0
BBX 6 2 2 10
BITMAP
CC
CC
ENDCHAR
STARTCHAR copyright
ENCODING 169
SWIDTH 747 0
DWIDTH 15 0
BBX 14 14 0 0
BITMAP
0780
1860
2010
47C8
4CC8
9844
9804
9804
9804
4C48
4788
2010
1860
0780
ENDCHAR
STARTCHAR ordfeminine
ENCODING 170
SWIDTH 367 0
DWIDTH 8 0
BBX 7 8 0 6
BITMAP
78
CC
3C
CC
DC
6E
00
FE
ENDCHAR
STARTCHAR guillemotleft
ENCODING 171
SWIDTH 500 0
DWIDTH 9 0
BBX 8 5 0 3
BITMAP
11
66
CC
66
11
ENDCHAR
STARTCHAR logicalnot
ENCODING 172
SWIDTH 606 0
DWIDTH 10 0
BBX 9 6 0 2
BITMAP
FF80
FF80
0180
0180
0180
0180
ENDCHAR
STARTCHAR hyphen
ENCODING 173
SWIDTH 333 0
DWIDTH 6 0
BBX 5 2 0 4
BITMAP
F8
F8
ENDCHAR
STARTCHAR registered
ENCODING 174
SWIDTH 747 0
DWIDTH 15 0
BBX 14 14 0 0
BITMAP
0780
1860
2010
5F88
4CC8
8CC4
8F84
8D84
8CC4
5EE8
4008
2010
1860
0780
ENDCHAR
STARTCHAR macron
ENCODING 175
SWIDTH 333 0
DWIDTH 8 0
BBX 6 2 1 10
BITMAP
FC
FC
ENDCHAR
STARTCHAR degree
ENCODING 176
SWIDTH 400 0
DWIDTH 7 0
BBX 6 6 0 8
BITMAP
78
CC
84
84
CC
78
ENDCHAR
STARTCHAR plusminus
ENCODING 177
SWIDTH 606 0
DWIDTH 11 0
BBX 10 11 0 0
BITMAP
0C00
0C00
0C00
FFC0
FFC0
0C00
0C00
0C00
0000
FFC0
FFC0
ENDCHAR
STARTCHAR twosuperior
ENCODING 178
SWIDTH 344 0
DWIDTH 6 0
BBX 6 8 0 6
BITMAP
78
CC
CC
18
30
60
C4
FC
ENDCHAR
STARTCHAR threesuperior
ENCODING 179
SWIDTH 344 0
DWIDTH 6 0
BBX 6 8 0 6
BITMAP
78
CC
0C
38
0C
CC
CC
78
ENDCHAR
STARTCHAR acute
ENCODING 180
SWIDTH 333 0
DWIDTH 7 0
BBX 5 4 1 10
BITMAP
18
38
70
C0
ENDCHAR
STARTCHAR mu
ENCODING 181
SWIDTH 685 0
DWIDTH 13 0
BBX 12 13 0 -4
BITMAP
F1E0
70E0
70E0
70E0
70E0
70E0
70E0
79E0
7EF0
6000
7000
7000
2000
ENDCHAR
STARTCHAR paragraph
ENCODING 182
SWIDTH 747 0
DWIDTH 14 0
BBX 13 14 0 0
BITMAP
3FF8
7E70
FE70
FE70
FE70
FE70
7E70
3E70
0E70
0E70
0E70
0E70
0E70
1FF8
ENDCHAR
STARTCHAR periodcentered
ENCODING 183
SWIDTH 278 0
DWIDTH 5 0
BBX 4 4 0 3
BITMAP
60
F0
F0
60
ENDCHAR
STARTCHAR cedilla
ENCODING 184
SWIDTH 333 0
DWIDTH 6 0
BBX 4 4 1 -4
BITMAP
40
70
30
E0
ENDCHAR
STARTCHAR onesuperior
ENCODING 185
SWIDTH 344 0
DWIDTH 6 0
BBX 6 8 0 6
BITMAP
30
F0
30
30
30
30
30
FC
ENDCHAR
STARTCHAR ordmasculine
ENCODING 186
SWIDTH 367 0
DWIDTH 7 0
BBX 6 8 0 6
BITMAP
78
CC
CC
CC
CC
78
00
FC
ENDCHAR
STARTCHAR guillemotright
ENCODING 187
SWIDTH 500 0
DWIDTH 9 0
BBX 8 5 0 3
BITMAP
88
66
33
66
88
ENDCHAR
STARTCHAR onequarter
ENCODING 188
SWIDTH 861 0
DWIDTH 15 0
BBX 14 14 0 0
BITMAP
3060
F060
30C0
30C0
3180
3180
3318
FF38
0678
06D8
0D98
0DFC
1818
183C
ENDCHAR
STARTCHAR onehalf
ENCODING 189
SWIDTH 861 0
DWIDTH 15 0
BBX 14 14 0 0
BITMAP
3060
F060
30C0
30C0
3180
3180
3378
FFCC
06CC
0618
0C30
0C60
18C4
18FC
ENDCHAR
STARTCHAR threequarters
ENCODING 190
SWIDTH 861 0
DWIDTH 15 0
BBX 14 14 0 0
BITMAP
7860
CC60
0CC0
38C0
0D80
CD80
CF18
7B38
0678
06D8
0D98
0DFC
1818
183C
ENDCHAR
STARTCHAR questiondown
ENCODING 191
SWIDTH 500 0
DWIDTH 10 0
BBX 9 14 0 -4
BITMAP
0C00
1E00
1E00
0C00
0000
0C00
1800
3000
6000
E300
E380
E380
F300
7C00
ENDCHAR
STARTCHAR Agrave
ENCODING 192
SWIDTH 759 0
DWIDTH 14 0
BBX 14 19 0 0
BITMAP
1800
1C00
0E00
0300
0000
0300
0300
0780
0780
0F80
09C0
09C0
19E0
10E0
3FE0
20F0
6070
4078
E0FC
ENDCHAR
STARTCHAR Aacute
ENCODING 193
SWIDTH 759 0
DWIDTH 14 0
BBX 14 19 0 0
BITMAP
0060
00E0
01C0
0300
0000
0300
0300
0780
0780
0F80
09C0
09C0
19E0
10E0
3FE0
20F0
6070
4078
E0FC
ENDCHAR
STARTCHAR Acircumflex
ENCODING 194
SWIDTH 759 0
DWIDTH 14 0
BBX 14 18 0 0
BITMAP
0380
07C0
0C60
0000
0300
0300
0780
0780
0F80
09C0
09C0
19E0
10E0
3FE0
20F0
6070
4078
E0FC
ENDCHAR
STARTCHAR Atilde
ENCODING 195
SWIDTH 759 0
DWIDTH 14 0
BBX 14 18 0 0
BITMAP
0620
0FC0
1180
0000
0300
0300
0780
0780
0F80
09C0
09C0
19E0
10E0
3FE0
20F0
6070
4078
E0FC
ENDCHAR
STARTCHAR Adieresis
ENCODING 196
SWIDTH 759 0
DWIDTH 14 0
BBX 14 17 0 0
BITMAP
0CC0
0CC0
0000
0300
0300
0780
0780
0F80
09C0
09C0
19E0
10E0
3FE0
20F0
6070
4078
E0FC
ENDCHAR
STARTCHAR Aring
ENCODING 197
SWIDTH 759 0
DWIDTH 14 0
BBX 14 18 0 0
BITMAP
0300
0480
0480
0300
0300
0300
0780
0780
0F80
09C0
09C0
19E0
10E0
3FE0
20F0
6070
4078
E0FC
ENDCHAR
STARTCHAR AE
ENCODING 198
SWIDTH 981 0
DWIDTH 21 0
BBX 20 14 0 0
BITMAP
03FFF0
00B870
01B830
013890
033890
063980
043F80
0C3980
1FF880
103890
203810
203830
603870
F1FFF0
ENDCHAR
STARTCHAR Ccedilla
ENCODING 199
SWIDTH 778 0
DWIDTH 14 0
BBX 12 18 1 -4
BITMAP
0F90
3C70
7830
7030
F010
E010
E000
E000
E000
F010
7010
7820
3C60
0F80
0400
0700
0300
0E00
ENDCHAR
STARTCHAR Egrave
ENCODING 200
SWIDTH 759 0
DWIDTH 13 0
BBX 11 19 1 0
BITMAP
3000
3800
1C00
0600
0000
FFE0
70E0
7060
7120
7120
7300
7F00
7300
7100
7120
7020
7060
70E0
FFE0
ENDCHAR
STARTCHAR Eacute
ENCODING 201
SWIDTH 759 0
DWIDTH 13 0
BBX 11 19 1 0
BITMAP
0180
0380
0700
0C00
0000
FFE0
70E0
7060
7120
7120
7300
7F00
7300
7100
7120
7020
7060
70E0
FFE0
ENDCHAR
STARTCHAR Ecircumflex
ENCODING 202
SWIDTH 759 0
DWIDTH 13 0
BBX 11 18 1 0
BITMAP
0E00
1F00
3180
0000
FFE0
70E0
7060
7120
7120
7300
7F00
7300
7100
7120
7020
7060
70E0
FFE0
ENDCHAR
STARTCHAR Edieresis
ENCODING 203
SWIDTH 759 0
DWIDTH 13 0
BBX 11 17 1 0
BITMAP
1980
1980
0000
FFE0
70E0
7060
7120
7120
7300
7F00
7300
7100
7120
7020
7060
70E0
FFE0
ENDCHAR
STARTCHAR Igrave
ENCODING 204
SWIDTH 444 0
DWIDTH 9 0
BBX 5 19 2 0
BITMAP
C0
E0
70
18
00
F8
70
70
70
70
70
70
70
70
70
70
70
70
F8
ENDCHAR
STARTCHAR Iacute
ENCODING 205
SWIDTH 444 0
DWIDTH 9 0
BBX 6 19 2 0
BITMAP
0C
1C
38
60
00
F8
70
70
70
70
70
70
70
70
70
70
70
70
F8
ENDCHAR
STARTCHAR Icircumflex
ENCODING 206
SWIDTH 444 0
DWIDTH 9 0
BBX 7 18 1 0
BITMAP
38
7C
C6
00
7C
38
38
38
38
38
38
38
38
38
38
38
38
7C
ENDCHAR
STARTCHAR Idieresis
ENCODING 207
SWIDTH 444 0
DWIDTH 9 0
BBX 6 17 2 0
BITMAP
CC
CC
00
F8
70
70
70
70
70
70
70
70
70
70
70
70
F8
ENDCHAR
STARTCHAR Eth
ENCODING 208
SWIDTH 833 0
DWIDTH 16 0
BBX 15 14 0 0
BITMAP
7FE0
3878
383C
381C
381E
380E
FE0E
380E
380E
381E
381C
383C
3878
7FE0
ENDCHAR
STARTCHAR Ntilde
ENCODING 209
SWIDTH 833 0
DWIDTH 16 0
BBX 15 18 1 0
BITMAP
0310
07E0
08C0
0000
F83E
7C1C
3C08
3E08
2F08
2788
2388
21C8
21E8
20E8
2078
2078
7038
F818
ENDCHAR
STARTCHAR Ograve
ENCODING 210
SWIDTH 833 0
DWIDTH 16 0
BBX 15 19 0 0
BITMAP
0C00
0E00
0700
0180
0000
0FE0
3C78
783C
701C
F01E
E00E
E00E
E00E
E00E
F01E
701C
783C
3C78
0FE0
ENDCHAR
STARTCHAR Oacute
ENCODING 211
SWIDTH 833 0
DWIDTH 16 0
BBX 15 19 0 0
BITMAP
0060
00E0
01C0
0300
0000
0FE0
3C78
783C
701C
F01E
E00E
E00E
E00E
E00E
F01E
701C
783C
3C78
0FE0
ENDCHAR
STARTCHAR Ocircumflex
ENCODING 212
SWIDTH 833 0
DWIDTH 16 0
BBX 15 18 0 0
BITMAP
0380
07C0
0C60
0000
0FE0
3C78
783C
701C
F01E
E00E
E00E
E00E
E00E
F01E
701C
783C
3C78
0FE0
ENDCHAR
STARTCHAR Otilde
ENCODING 213
SWIDTH 833 0
DWIDTH 16 0
BBX 15 18 0 0
BITMAP
0310
07E0
08C0
0000
0FE0
3C78
783C
701C
F01E
E00E
E00E
E00E
E00E
F01E
701C
783C
3C78
0FE0
ENDCHAR
STARTCHAR Odieresis
ENCODING 214
SWIDTH 833 0
DWIDTH 16 0
BBX 15 17 0 0
BITMAP
0660
0660
0000
0FE0
3C78
783C
701C
F01E
E00E
E00E
E00E
E00E
F01E
701C
783C
3C78
0FE0
ENDCHAR
STARTCHAR multiply
ENCODING 215
SWIDTH 606 0
DWIDTH 11 0
BBX 10 10 0 0
BITMAP
C0C0
E1C0
7380
3F00
1E00
1E00
3F00
7380
E1C0
C0C0
ENDCHAR
STARTCHAR Oslash
ENCODING 216
SWIDTH 833 0
DWIDTH 16 0
BBX 14 14 1 0
BITMAP
0FC8
38F0
7078
7078
E0BC
E11C
E21C
E21C
E41C
E83C
7038
7078
78F0
8FC0
ENDCHAR
STARTCHAR Ugrave
ENCODING 217
SWIDTH 833 0
DWIDTH 16 0
BBX 14 19 1 0
BITMAP
0C00
0E00
0700
0180
0000
F87C
7038
7010
7010
7010
7010
7010
7010
7010
7010
7010
7010
3820
1FC0
ENDCHAR
STARTCHAR Uacute
ENCODING 218
SWIDTH 833 0
DWIDTH 16 0
BBX 14 19 1 0
BITMAP
00C0
01C0
0380
0600
0000
F87C
7038
7010
7010
7010
7010
7010
7010
7010
7010
7010
7010
3820
1FC0
ENDCHAR
STARTCHAR Ucircumflex
ENCODING 219
SWIDTH 833 0
DWIDTH 16 0
BBX 14 18 1 0
BITMAP
0380
07C0
0C60
0000
F87C
7038
7010
7010
7010
7010
7010
7010
7010
7010
7010
7010
3820
1FC0
ENDCHAR
STARTCHAR Udieresis
ENCODING 220
SWIDTH 833 0
DWIDTH 16 0
BBX 14 17 1 0
BITMAP
0CC0
0CC0
0000
F87C
7038
7010
7010
7010
7010
7010
7010
7010
7010
7010
7010
3820
1FC0
ENDCHAR
STARTCHAR Yacute
ENCODING 221
SWIDTH 722 0
DWIDTH 15 0
BBX 13 19 1 0
BITMAP
0060
00E0
01C0
0300
0000
F878
7030
7820
3860
3C40
1CC0
1F80
0F80
0F00
0700
0700
0700
0700
0F80
ENDCHAR
STARTCHAR Thorn
ENCODING 222
SWIDTH 759 0
DWIDTH 14 0
BBX 12 14 1 0
BITMAP
F800
7000
7000
7FC0
70F0
7070
7070
7070
7070
70E0
7F80
7000
7000
F800
ENDCHAR
STARTCHAR germandbls
ENCODING 223
SWIDTH 611 0
DWIDTH 12 0
BBX 11 14 0 0
BITMAP
1E00
3380
71C0
71C0
71C0
7180
7700
71C0
70E0
70E0
70E0
70E0
71C0
F700
ENDCHAR
STARTCHAR agrave
ENCODING 224
SWIDTH 611 0
DWIDTH 11 0
BBX 10 14 0 0
BITMAP
3000
3800
1C00
0600
0000
7F00
E380
C380
0780
3B80
E380
E380
E780
7BC0
ENDCHAR
STARTCHAR aacute
ENCODING 225
SWIDTH 611 0
DWIDTH 11 0
BBX 10 14 0 0
BITMAP
0600
0E00
1C00
3000
0000
7F00
E380
C380
0780
3B80
E380
E380
E780
7BC0
ENDCHAR
STARTCHAR acircumflex
ENCODING 226
SWIDTH 611 0
DWIDTH 11 0
BBX 10 13 0 0
BITMAP
1C00
3E00
6300
0000
7F00
E380
C380
0780
3B80
E380
E380
E780
7BC0
ENDCHAR
STARTCHAR atilde
ENCODING 227
SWIDTH 611 0
DWIDTH 11 0
BBX 10 13 0 0
BITMAP
1880
3F00
4600
0000
7F00
E380
C380
0780
3B80
E380
E380
E780
7BC0
ENDCHAR
STARTCHAR adieresis
ENCODING 228
SWIDTH 611 0
DWIDTH 11 0
BBX 10 12 0 0
BITMAP
3300
3300
0000
7F00
E380
C380
0780
3B80
E380
E380
E780
7BC0
ENDCHAR
STARTCHAR aring
ENCODING 229
SWIDTH 611 0
DWIDTH 11 0
BBX 10 14 0 0
BITMAP
0C00
1200
1200
0C00
0000
7F00
E380
C380
0780
3B80
E380
E380
E780
7BC0
ENDCHAR
STARTCHAR ae
ENCODING 230
SWIDTH 870 0
DWIDTH 17 0
BBX 16 9 0 0
BITMAP
3F78
63CE
E387
0787
3BFF
E380
E381
E7C3
78FC
ENDCHAR
STARTCHAR ccedilla
ENCODING 231
SWIDTH 556 0
DWIDTH 10 0
BBX 9 13 0 -4
BITMAP
1F00
7380
E180
E000
E000
E000
E080
7180
1E00
1000
1C00
0C00
3800
ENDCHAR
STARTCHAR egrave
ENCODING 232
SWIDTH 574 0
DWIDTH 11 0
BBX 10 14 0 0
BITMAP
3000
3800
1C00
0600
0000
1E00
7380
E1C0
E1C0
FFC0
E000
E040
70C0
1F00
ENDCHAR
STARTCHAR eacute
ENCODING 233
SWIDTH 574 0
DWIDTH 11 0
BBX 10 14 0 0
BITMAP
0600
0E00
1C00
3000
0000
1E00
7380
E1C0
E1C0
FFC0
E000
E040
70C0
1F00
ENDCHAR
STARTCHAR ecircumflex
ENCODING 234
SWIDTH 574 0
DWIDTH 11 0
BBX 10 13 0 0
BITMAP
0E00
1F00
3180
0000
1E00
7380
E1C0
E1C0
FFC0
E000
E040
70C0
1F00
ENDCHAR
STARTCHAR edieresis
ENCODING 235
SWIDTH 574 0
DWIDTH 11 0
BBX 10 12 0 0
BITMAP
3300
3300
0000
1E00
7380
E1C0
E1C0
FFC0
E000
E040
70C0
1F00
ENDCHAR
STARTCHAR igrave
ENCODING 236
SWIDTH 370 0
DWIDTH 6 0
BBX 5 14 0 0
BITMAP
C0
E0
70
18
00
F0
70
70
70
70
70
70
70
F8
ENDCHAR
STARTCHAR iacute
ENCODING 237
SWIDTH 370 0
DWIDTH 6 0
BBX 5 14 0 0
BITMAP
18
38
70
C0
00
F0
70
70
70
70
70
70
70
F8
ENDCHAR
STARTCHAR icircumflex
ENCODING 238
SWIDTH 370 0
DWIDTH 6 0
BBX 7 13 -1 0
BITMAP
38
7C
C6
00
78
38
38
38
38
38
38
38
7C
ENDCHAR
STARTCHAR idieresis
ENCODING 239
SWIDTH 370 0
DWIDTH 6 0
BBX 6 12 0 0
BITMAP
CC
CC
00
F0
70
70
70
70
70
70
70
F8
ENDCHAR
STARTCHAR eth
ENCODING 240
SWIDTH 611 0
DWIDTH 12 0
BBX 11 14 0 0
BITMAP
6000
1B00
1C00
6600
0300
1F80
71C0
E0E0
E0E0
E0E0
E0E0
E0E0
71C0
1F00
ENDCHAR
STARTCHAR ntilde
ENCODING 241
SWIDTH 685 0
DWIDTH 13 0
BBX 12 13 0 0
BITMAP
0C40
1F80
2300
0000
F7C0
79E0
70E0
70E0
70E0
70E0
70E0
70E0
F9F0
ENDCHAR
STARTCHAR ograve
ENCODING 242
SWIDTH 611 0
DWIDTH 12 0
BBX 11 14 0 0
BITMAP
1800
1C00
0E00
0300
0000
1F00
71C0
E0E0
E0E0
E0E0
E0E0
E0E0
71C0
1F00
ENDCHAR
STARTCHAR oacute
ENCODING 243
SWIDTH 611 0
DWIDTH 12 0
BBX 11 14 0 0
BITMAP
0300
0700
0E00
1800
0000
1F00
71C0
E0E0
E0E0
E0E0
E0E0
E0E0
71C0
1F00
ENDCHAR
STARTCHAR ocircumflex
ENCODING 244
SWIDTH 611 0
DWIDTH 12 0
BBX 11 13 0 0
BITMAP
0E00
1F00
3180
0000
1F00
71C0
E0E0
E0E0
E0E0
E0E0
E0E0
71C0
1F00
ENDCHAR
STARTCHAR otilde
ENCODING 245
SWIDTH 611 0
DWIDTH 12 0
BBX 11 13 0 0
BITMAP
1880
3F00
4600
0000
1F00
71C0
E0E0
E0E0
E0E0
E0E0
E0E0
71C0
1F00
ENDCHAR
STARTCHAR odieresis
ENCODING 246
SWIDTH 611 0
DWIDTH 12 0
BBX 11 12 0 0
BITMAP
1980
1980
0000
1F00
71C0
E0E0
E0E0
E0E0
E0E0
E0E0
71C0
1F00
ENDCHAR
STARTCHAR divide
ENCODING 247
SWIDTH 606 0
DWIDTH 11 0
BBX 10 10 0 0
BITMAP
0C00
0C00
0000
0000
FFC0
FFC0
0000
0000
0C00
0C00
ENDCHAR
STARTCHAR oslash
ENCODING 248
SWIDTH 611 0
DWIDTH 11 0
BBX 10 11 0 -1
BITMAP
0100
1F00
7380
E3C0
E5C0
E5C0
E9C0
E9C0
7380
3E00
2000
ENDCHAR
STARTCHAR ugrave
ENCODING 249
SWIDTH 685 0
DWIDTH 13 0
BBX 12 14 0 0
BITMAP
1800
1C00
0E00
0300
0000
F1E0
70E0
70E0
70E0
70E0
70E0
70E0
79E0
3EF0
ENDCHAR
STARTCHAR uacute
ENCODING 250
SWIDTH 685 0
DWIDTH 13 0
BBX 12 14 0 0
BITMAP
0180
0380
0700
0C00
0000
F1E0
70E0
70E0
70E0
70E0
70E0
70E0
79E0
3EF0
ENDCHAR
STARTCHAR ucircumflex
ENCODING 251
SWIDTH 685 0
DWIDTH 13 0
BBX 12 13 0 0
BITMAP
0700
0F80
18C0
0000
F1E0
70E0
70E0
70E0
70E0
70E0
70E0
79E0
3EF0
ENDCHAR
STARTCHAR udieresis
ENCODING 252
SWIDTH 685 0
DWIDTH 13 0
BBX 12 12 0 0
BITMAP
1980
1980
0000
F1E0
70E0
70E0
70E0
70E0
70E0
70E0
79E0
3EF0
ENDCHAR
STARTCHAR yacute
ENCODING 253
SWIDTH 611 0
DWIDTH 12 0
BBX 11 18 0 -4
BITMAP
0180
0380
0700
0C00
0000
F8E0
7040
7040
3880
3880
1D00
1D00
0E00
0E00
0400
C400
E800
7000
ENDCHAR
STARTCHAR thorn
ENCODING 254
SWIDTH 667 0
DWIDTH 12 0
BBX 12 18 -1 -4
BITMAP
F000
7000
7000
7000
7000
7780
78E0
7070
7070
7070
7070
7070
78E0
7780
7000
7000
7000
F800
ENDCHAR
STARTCHAR ydieresis
ENCODING 255
SWIDTH 611 0
DWIDTH 12 0
BBX 11 16 0 -4
BITMAP
1980
1980
0000
F8E0
7040
7040
3880
3880
1D00
1D00
0E00
0E00
0400
C400
E800
7000
ENDCHAR
STARTCHAR Amacron
ENCODING 256
SWIDTH 759 0
DWIDTH 14 0
BBX 14 17 0 0
BITMAP
0FC0
0FC0
0000
0300
0300
0780
0780
0F80
09C0
09C0
19E0
10E0
3FE0
20F0
6070
4078
E0FC
ENDCHAR
STARTCHAR amacron
ENCODING 257
SWIDTH 611 0
DWIDTH 11 0
BBX 10 12 0 0
BITMAP
3F00
3F00
0000
7F00
E380
C380
0780
3B80
E380
E380
E780
7BC0
ENDCHAR
STARTCHAR Abreve
ENCODING 258
SWIDTH 759 0
DWIDTH 14 0
BBX 14 18 0 0
BITMAP
0840
0CC0
0780
0000
0300
0300
0780
0780
0F80
09C0
09C0
19E0
10E0
3FE0
20F0
6070
4078
E0FC
ENDCHAR
STARTCHAR abreve
ENCODING 259
SWIDTH 611 0
DWIDTH 11 0
BBX 10 13 0 0
BITMAP
2100
3300
1E00
0000
7F00
E380
C380
0780
3B80
E380
E380
E780
7BC0
ENDCHAR
STARTCHAR Aogonek
ENCODING 260
SWIDTH 759 0
DWIDTH 14 0
BBX 14 18 0 -4
BITMAP
0300
0300
0780
0780
0F80
09C0
09C0
19E0
10E0
3FE0
20F0
6070
4078
E0FC
0180
0300
0340
0180
ENDCHAR
STARTCHAR aogonek
ENCODING 261
SWIDTH 611 0
DWIDTH 11 0
BBX 10 13 0 -4
BITMAP
7F00
E380
C380
0780
3B80
E380
E380
E780
7BC0
0C00
1800
1A00
0C00
ENDCHAR
STARTCHAR Cacute
ENCODING 262
SWIDTH 778 0
DWIDTH 14 0
BBX 12 19 1 0
BITMAP
0180
0380
0700
0C00
0000
0F90
3C70
7830
7030
F010
E010
E000
E000
E000
F010
7010
7820
3C60
0F80
ENDCHAR
STARTCHAR cacute
ENCODING 263
SWIDTH 556 0
DWIDTH 10 0
BBX 9 14 0 0
BITMAP
0300
0700
0E00
1800
0000
1F00
7380
E180
E000
E000
E000
E080
7180
1E00
ENDCHAR
STARTCHAR Ccircumflex
ENCODING 264
SWIDTH 778 0
DWIDTH 14 0
BBX 12 19 1 0
BITMAP
0200
0700
0F80
18C0
0000
0F90
3C70
7830
7030
F010
E010
E000
E000
E000
F010
7010
7820
3C60
0F80
ENDCHAR
STARTCHAR ccircumflex
ENCODING 265
SWIDTH 556 0
DWIDTH 10 0
BBX 9 14 0 0
BITMAP
0800
1C00
3E00
6300
0000
1F00
7380
E180
E000
E000
E000
E080
7180
1E00
ENDCHAR
STARTCHAR Cdotaccent
ENCODING 266
SWIDTH 778 0
DWIDTH 14 0
BBX 12 17 1 0
BITMAP
0600
0600
0000
0F90
3C70
7830
7030
F010
E010
E000
E000
E000
F010
7010
7820
3C60
0F80
ENDCHAR
STARTCHAR cdotaccent
ENCODING 267
SWIDTH 556 0
DWIDTH 10 0
BBX 9 12 0 0
BITMAP
0C00
0C00
0000
1F00
7380
E180
E000
E000
E000
E080
7180
1E00
ENDCHAR
STARTCHAR Ccaron
ENCODING 268
SWIDTH 778 0
DWIDTH 14 0
BBX 12 19 1 0
BITMAP
18C0
0F80
0700
0200
0000
0F90
3C70
7830
7030
F010
E010
E000
E000
E000
F010
7010
7820
3C60
0F80
ENDCHAR
STARTCHAR ccaron
ENCODING 269
SWIDTH 556 0
DWIDTH 10 0
BBX 9 14 0 0
BITMAP
6300
3E00
1C00
0800
0000
1F00
7380
E180
E000
E000
E000
E080
7180
1E00
ENDCHAR
STARTCHAR Dcaron
ENCODING 270
SWIDTH 833 0
DWIDTH 16 0
BBX 14 19 1 0
BITMAP
18C0
0F80
0700
0200
0000
FFC0
70F0
7078
7038
703C
701C
701C
701C
701C
703C
7038
7078
70F0
FFC0
ENDCHAR
STARTCHAR dcaron
ENCODING 271
SWIDTH 875 0
DWIDTH 17 0
BBX 16 14 0 0
BITMAP
01E6
00EF
00EF
00E7
00E2
1EE4
71E8
E0E0
E0E0
E0E0
E0E0
E0E0
71E0
1EF0
ENDCHAR
STARTCHAR Dcroat
ENCODING 272
SWIDTH 833 0
DWIDTH 16 0
BBX 15 14 0 0
BITMAP
7FE0
3878
383C
381C
381E
380E
FE0E
380E
380E
381E
381C
383C
3878
7FE0
ENDCHAR
STARTCHAR dcroat
ENCODING 273
SWIDTH 667 0
DWIDTH 13 0
BBX 12 14 0 0
BITMAP
01E0
00E0
00E0
01F0
01F0
1EE0
71E0
E0E0
E0E0
E0E0
E0E0
E0E0
71E0
1EF0
ENDCHAR
STARTCHAR Emacron
ENCODING 274
SWIDTH 759 0
DWIDTH 13 0
BBX 11 17 1 0
BITMAP
1F80
1F80
0000
FFE0
70E0
7060
7120
7120
7300
7F00
7300
7100
7120
7020
7060
70E0
FFE0
ENDCHAR
STARTCHAR emacron
ENCODING 275
SWIDTH 574 0
DWIDTH 11 0
BBX 10 12 0 0
BITMAP
3F00
3F00
0000
1E00
7380
E1C0
E1C0
FFC0
E000
E040
70C0
1F00
ENDCHAR
STARTCHAR Ebreve
ENCODING 276
SWIDTH 759 0
DWIDTH 13 0
BBX 11 18 1 0
BITMAP
1080
1980
0F00
0000
FFE0
70E0
7060
7120
7120
7300
7F00
7300
7100
7120
7020
7060
70E0
FFE0
ENDCHAR
STARTCHAR ebreve
ENCODING 277
SWIDTH 574 0
DWIDTH 11 0
BBX 10 13 0 0
BITMAP
2100
3300
1E00
0000
1E00
7380
E1C0
E1C0
FFC0
E000
E040
70C0
1F00
ENDCHAR
STARTCHAR Edotaccent
ENCODING 278
SWIDTH 759 0
DWIDTH 13 0
BBX 11 17 1 0
BITMAP
0600
0600
0000
FFE0
70E0
7060
7120
7120
7300
7F00
7300
7100
7120
7020
7060
70E0
FFE0
ENDCHAR
STARTCHAR edotaccent
ENCODING 279
SWIDTH 574 0
DWIDTH 11 0
BBX 10 12 0 0
BITMAP
0C00
0C00
0000
1E00
7380
E1C0
E1C0
FFC0
E000
E040
70C0
1F00
ENDCHAR
STARTCHAR Eogonek
ENCODING 280
SWIDTH 759 0
DWIDTH 13 0
BBX 11 18 1 -4
BITMAP
FFE0
70E0
7060
7120
7120
7300
7F00
7300
7100
7120
7020
7060
70E0
FFE0
0600
0C00
0D00
0600
ENDCHAR
STARTCHAR eogonek
ENCODING 281
SWIDTH 574 0
DWIDTH 11 0
BBX 10 13 0 -4
BITMAP
1E00
7380
E1C0
E1C0
FFC0
E000
E040
70C0
1F00
0C00
1800
1A00
0C00
ENDCHAR
STARTCHAR Ecaron
ENCODING 282
SWIDTH 759 0
DWIDTH 13 0
BBX 11 19 1 0
BITMAP
3180
1F00
0E00
0400
0000
FFE0
70E0
7060
7120
7120
7300
7F00
7300
7100
7120
7020
7060
70E0
FFE0
ENDCHAR
STARTCHAR ecaron
ENCODING 283
SWIDTH 574 0
DWIDTH 11 0
BBX 10 14 0 0
BITMAP
3180
1F00
0E00
0400
0000
1E00
7380
E1C0
E1C0
FFC0
E000
E040
70C0
1F00
ENDCHAR
STARTCHAR Gcircumflex
ENCODING 284
SWIDTH 833 0
DWIDTH 15 0
BBX 13 19 1 0
BITMAP
0200
0700
0F80
18C0
0000
0F90
3C70
7830
7030
F010
E010
E000
E000
E0F8
F070
7070
7870
3CF0
0F90
ENDCHAR
STARTCHAR gcircumflex
ENCODING 285
SWIDTH 611 0
DWIDTH 11 0
BBX 11 20 0 -4
BITMAP
0200
0700
0F80
18C0
0000
0060
00E0
3F00
7380
6180
6180
7380
3F00
6000
7F80
3FC0
C1C0
C0C0
E180
7F00
ENDCHAR
STARTCHAR Gbreve
ENCODING 286
SWIDTH 833 0
DWIDTH 15 0
BBX 13 18 1 0
BITMAP
1080
1980
0F00
0000
0F90
3C70
7830
7030
F010
E010
E000
E000
E0F8
F070
7070
7870
3CF0
0F90
ENDCHAR
STARTCHAR gbreve
ENCODING 287
SWIDTH 611 0
DWIDTH 11 0
BBX 11 19 0 -4
BITMAP
1080
1980
0F00
0000
0060
00E0
3F00
7380
6180
6180
7380
3F00
6000
7F80
3FC0
C1C0
C0C0
E180
7F00
ENDCHAR
STARTCHAR Gdotaccent
ENCODING 288
SWIDTH 833 0
DWIDTH 15 0
BBX 13 17 1 0
BITMAP
0600
0600
0000
0F90
3C70
7830
7030
F010
E010
E000
E000
E0F8
F070
7070
7870
3CF0
0F90
ENDCHAR
STARTCHAR gdotaccent
ENCODING 289
SWIDTH 611 0
DWIDTH 11 0
BBX 11 18 0 -4
BITMAP
0600
0600
0000
0060
00E0
3F00
7380
6180
6180
7380
3F00
6000
7F80
3FC0
C1C0
C0C0
E180
7F00
ENDCHAR
STARTCHAR Gcommaaccent
ENCODING 290
SWIDTH 833 0
DWIDTH 15 0
BBX 13 22 1 -8
BITMAP
0F90
3C70
7830
7030
F010
E010
E000
E000
E0F8
F070
7070
7870
3CF0
0F90
0000
0300
0780
0780
0380
0100
0200
0400
ENDCHAR
STARTCHAR gcommaaccent
ENCODING 291
SWIDTH 611 0
DWIDTH 11 0
BBX 11 23 0 -4
BITMAP
0100
0200
0400
0E00
0F00
0F00
0600
0000
0060
00E0
3F00
7380
6180
6180
7380
3F00
6000
7F80
3FC0
C1C0
C0C0
E180
7F00
ENDCHAR
STARTCHAR Hcircumflex
ENCODING 292
SWIDTH 870 0
DWIDTH 16 0
BBX 14 19 1 0
BITMAP
0100
0380
07C0
0C60
0000
FCFC
7038
7038
7038
7038
7038
7FF8
7038
7038
7038
7038
7038
7038
FCFC
ENDCHAR
STARTCHAR hcircumflex
ENCODING 293
SWIDTH 685 0
DWIDTH 13 0
BBX 12 19 0 0
BITMAP
1000
3800
7C00
C600
0000
F000
7000
7000
7000
7000
77C0
79E0
70E0
70E0
70E0
70E0
70E0
70E0
F9F0
ENDCHAR
STARTCHAR Hbar
ENCODING 294
SWIDTH 870 0
DWIDTH 16 0
BBX 14 14 1 0
BITMAP
FCFC
7038
7038
7038
FFFC
FFFC
7FF8
7038
7038
7038
7038
7038
7038
FCFC
ENDCHAR
STARTCHAR hbar
ENCODING 295
SWIDTH 685 0
DWIDTH 13 0
BBX 12 14 0 0
BITMAP
F000
7000
7000
7C00
7C00
77C0
79E0
70E0
70E0
70E0
70E0
70E0
70E0
F9F0
ENDCHAR
STARTCHAR Itilde
ENCODING 296
SWIDTH 444 0
DWIDTH 9 0
BBX 8 18 1 0
BITMAP
31
7E
8C
00
7C
38
38
38
38
38
38
38
38
38
38
38
38
7C
ENDCHAR
STARTCHAR itilde
ENCODING 297
SWIDTH 370 0
DWIDTH 6 0
BBX 8 13 -1 0
BITMAP
31
7E
8C
00
78
38
38
38
38
38
38
38
7C
ENDCHAR
STARTCHAR Imacron
ENCODING 298
SWIDTH 444 0
DWIDTH 9 0
BBX 6 17 2 0
BITMAP
FC
FC
00
F8
70
70
70
70
70
70
70
70
70
70
70
70
F8
ENDCHAR
STARTCHAR imacron
ENCODING 299
SWIDTH 370 0
DWIDTH 6 0
BBX 6 12 -1 0
BITMAP
FC
FC
00
78
38
38
38
38
38
38
38
7C
ENDCHAR
STARTCHAR Ibreve
ENCODING 300
SWIDTH 444 0
DWIDTH 9 0
BBX 6 18 2 0
BITMAP
84
CC
78
00
F8
70
70
70
70
70
70
70
70
70
70
70
70
F8
ENDCHAR
STARTCHAR ibreve
ENCODING 301
SWIDTH 370 0
DWIDTH 6 0
BBX 6 13 -1 0
BITMAP
84
CC
78
00
78
38
38
38
38
38
38
38
7C
ENDCHAR
STARTCHAR Iogonek
ENCODING 302
SWIDTH 444 0
DWIDTH 9 0
BBX 5 18 2 -4
BITMAP
F8
70
70
70
70
70
70
70
70
70
70
70
70
F8
30
60
68
30
ENDCHAR
STARTCHAR iogonek
ENCODING 303
SWIDTH 370 0
DWIDTH 6 0
BBX 5 18 0 -4
BITMAP
70
70
70
00
00
F0
70
70
70
70
70
70
70
F8
30
60
68
30
ENDCHAR
STARTCHAR Idotaccent
ENCODING 304
SWIDTH 444 0
DWIDTH 9 0
BBX 5 17 2 0
BITMAP
30
30
00
F8
70
70
70
70
70
70
70
70
70
70
70
70
F8
ENDCHAR
STARTCHAR dotlessi
ENCODING 305
SWIDTH 370 0
DWIDTH 6 0
BBX 5 9 0 0
BITMAP
F0
70
70
70
70
70
70
70
F8
ENDCHAR
STARTCHAR IJ
ENCODING 306
SWIDTH 1070 0
DWIDTH 21 0
BBX 18 14 2 0
BITMAP
F80FC0
700380
700380
700380
700380
700380
700380
700380
70C380
71E380
71E380
718780
708F00
F87C00
ENDCHAR
STARTCHAR ij
ENCODING 307
SWIDTH 704 0
DWIDTH 12 0
BBX 10 18 0 -4
BITMAP
71C0
71C0
71C0
0000
0000
F3C0
71C0
71C0
71C0
71C0
71C0
71C0
71C0
F9C0
01C0
1DC0
1D80
0F00
ENDCHAR
STARTCHAR Jcircumflex
ENCODING 308
SWIDTH 648 0
DWIDTH 12 0
BBX 11 19 0 0
BITMAP
0100
0380
07C0
0C60
0000
07E0
01C0
01C0
01C0
01C0
01C0
01C0
01C0
61C0
F1C0
F1C0
C3C0
4780
3E00
ENDCHAR
STARTCHAR jcircumflex
ENCODING 309
SWIDTH 352 0
DWIDTH 6 0
BBX 8 18 -3 -4
BITMAP
08
1C
3E
63
00
1E
0E
0E
0E
0E
0E
0E
0E
0E
0E
EE
EC
78
ENDCHAR
STARTCHAR Kcommaaccent
ENCODING 310
SWIDTH 815 0
DWIDTH 16 0
BBX 15 22 1 -8
BITMAP
FC7C
7030
7060
70C0
7180
7300
7780
7FC0
7BC0
71E0
70F0
70F8
707C
FCFE
0000
0180
03C0
03C0
01C0
0080
0100
0200
ENDCHAR
STARTCHAR kcommaaccent
ENCODING 311
SWIDTH 667 0
DWIDTH 13 0
BBX 12 22 0 -8
BITMAP
F000
7000
7000
7000
7000
73E0
7180
7200
7600
7F00
7780
73C0
71E0
FBF0
0000
0600
0F00
0F00
0700
0200
0400
0800
ENDCHAR
STARTCHAR kgreenlandic
ENCODING 312
SWIDTH 667 0
DWIDTH 13 0
BBX 12 9 0 0
BITMAP
73E0
7180
7200
7600
7F00
7780
73C0
71E0
FBF0
ENDCHAR
STARTCHAR Lacute
ENCODING 313
SWIDTH 722 0
DWIDTH 12 0
BBX 11 19 1 0
BITMAP
0600
0E00
1C00
3000
0000
FC00
7000
7000
7000
7000
7000
7000
7000
7000
7020
7020
7060
70E0
FFE0
ENDCHAR
STARTCHAR lacute
ENCODING 314
SWIDTH 352 0
DWIDTH 6 0
BBX 5 19 0 0
BITMAP
18
38
70
C0
00
F0
70
70
70
70
70
70
70
70
70
70
70
70
F8
ENDCHAR
STARTCHAR Lcommaaccent
ENCODING 315
SWIDTH 722 0
DWIDTH 12 0
BBX 11 22 1 -8
BITMAP
FC00
7000
7000
7000
7000
7000
7000
7000
7000
7020
7020
7060
70E0
FFE0
0000
0C00
1E00
1E00
0E00
0400
0800
1000
ENDCHAR
STARTCHAR lcommaaccent
ENCODING 316
SWIDTH 352 0
DWIDTH 6 0
BBX 5 22 0 -8
BITMAP
F0
70
70
70
70
70
70
70
70
70
70
70
70
F8
00
30
78
78
38
10
20
40
ENDCHAR
STARTCHAR Lcaron
ENCODING 317
SWIDTH 927 0
DWIDTH 16 0
BBX 14 14 1 0
BITMAP
FC18
703C
703C
701C
7008
7010
7020
7000
7000
7020
7020
7060
70E0
FFE0
ENDCHAR
STARTCHAR lcaron
ENCODING 318
SWIDTH 575 0
DWIDTH 11 0
BBX 10 14 0 0
BITMAP
F180
73C0
73C0
71C0
7080
7100
7200
7000
7000
7000
7000
7000
7000
F800
ENDCHAR
STARTCHAR Ldot
ENCODING 319
SWIDTH 964 0
DWIDTH 16 0
BBX 14 14 1 0
BITMAP
FC00
7000
7000
7000
7000
7000
7000
7018
703C
703C
7038
7060
70E0
FFE0
ENDCHAR
STARTCHAR ldot
ENCODING 320
SWIDTH 612 0
DWIDTH 11 0
BBX 10 14 0 0
BITMAP
F000
7000
7000
7000
7000
7000
7000
7180
73C0
73C0
7180
7000
7000
F800
ENDCHAR
STARTCHAR Lslash
ENCODING 321
SWIDTH 722 0
DWIDTH 12 0
BBX 12 14 -1 0
BITMAP
7E00
3C00
3C00
3C00
3D00
3E00
3C00
3C00
7C00
BC10
3C10
3C30
3C70
7FF0
ENDCHAR
STARTCHAR lslash
ENCODING 322
SWIDTH 352 0
DWIDTH 6 0
BBX 6 14 0 0
BITMAP
F0
70
70
70
74
78
70
F0
70
70
70
70
70
F8
ENDCHAR
STARTCHAR Nacute
ENCODING 323
SWIDTH 833 0
DWIDTH 16 0
BBX 15 19 1 0
BITMAP
00C0
01C0
0380
0600
0000
F83E
7C1C
3C08
3E08
2F08
2788
2388
21C8
21E8
20E8
2078
2078
7038
F818
ENDCHAR
STARTCHAR nacute
ENCODING 324
SWIDTH 685 0
DWIDTH 13 0
BBX 12 14 0 0
BITMAP
0180
0380
0700
0C00
0000
F7C0
79E0
70E0
70E0
70E0
70E0
70E0
70E0
F9F0
ENDCHAR
STARTCHAR Ncommaaccent
ENCODING 325
SWIDTH 833 0
DWIDTH 16 0
BBX 15 22 1 -8
BITMAP
F83E
7C1C
3C08
3E08
2F08
2788
2388
21C8
21E8
20E8
2078
2078
7038
F818
0000
0300
0780
0780
0380
0100
0200
0400
ENDCHAR
STARTCHAR ncommaaccent
ENCODING 326
SWIDTH 685 0
DWIDTH 13 0
BBX 12 17 0 -8
BITMAP
F7C0
79E0
70E0
70E0
70E0
70E0
70E0
70E0
F9F0
0000
0600
0F00
0F00
0700
0200
0400
0800
ENDCHAR
STARTCHAR Ncaron
ENCODING 327
SWIDTH 833 0
DWIDTH 16 0
BBX 15 19 1 0
BITMAP
18C0
0F80
0700
0200
0000
F83E
7C1C
3C08
3E08
2F08
2788
2388
21C8
21E8
20E8
2078
2078
7038
F818
ENDCHAR
STARTCHAR ncaron
ENCODING 328
SWIDTH 685 0
DWIDTH 13 0
BBX 12 14 0 0
BITMAP
3180
1F00
0E00
0400
0000
F7C0
79E0
70E0
70E0
70E0
70E0
70E0
70E0
F9F0
ENDCHAR
STARTCHAR napostrophe
ENCODING 329
SWIDTH 914 0
DWIDTH 18 0
BBX 17 14 0 0
BITMAP
600000
F00000
F00000
700000
200000
47BE00
83CF00
038700
038700
038700
038700
038700
038700
07CF80
ENDCHAR
STARTCHAR Eng
ENCODING 330
SWIDTH 833 0
DWIDTH 16 0
BBX 15 18 1 -4
BITMAP
F83E
7C1C
3C08
3E08
2F08
2788
2388
21C8
21E8
20E8
2078
2078
7038
F838
0038
03B8
03B0
01E0
ENDCHAR
STARTCHAR eng
ENCODING 331
SWIDTH 685 0
DWIDTH 13 0
BBX 11 13 0 -4
BITMAP
F7C0
79E0
70E0
70E0
70E0
70E0
70E0
70E0
F8E0
00E0
0EE0
0EC0
0780
ENDCHAR
STARTCHAR Omacron
ENCODING 332
SWIDTH 833 0
DWIDTH 16 0
BBX 15 17 0 0
BITMAP
07E0
07E0
0000
0FE0
3C78
783C
701C
F01E
E00E
E00E
E00E
E00E
F01E
701C
783C
3C78
0FE0
ENDCHAR
STARTCHAR omacron
ENCODING 333
SWIDTH 611 0
DWIDTH 12 0
BBX 11 12 0 0
BITMAP
1F80
1F80
0000
1F00
71C0
E0E0
E0E0
E0E0
E0E0
E0E0
71C0
1F00
ENDCHAR
STARTCHAR Obreve
ENCODING 334
SWIDTH 833 0
DWIDTH 16 0
BBX 15 18 0 0
BITMAP
0420
0660
03C0
0000
0FE0
3C78
783C
701C
F01E
E00E
E00E
E00E
E00E
F01E
701C
783C
3C78
0FE0
ENDCHAR
STARTCHAR obreve
ENCODING 335
SWIDTH 611 0
DWIDTH 12 0
BBX 11 13 0 0
BITMAP
1080
1980
0F00
0000
1F00
71C0
E0E0
E0E0
E0E0
E0E0
E0E0
71C0
1F00
ENDCHAR
STARTCHAR Ohungarumlaut
ENCODING 336
SWIDTH 833 0
DWIDTH 16 0
BBX 15 19 0 0
BITMAP
0660
0660
0CC0
0880
0000
0FE0
3C78
783C
701C
F01E
E00E
E00E
E00E
E00E
F01E
701C
783C
3C78
0FE0
ENDCHAR
STARTCHAR ohungarumlaut
ENCODING 337
SWIDTH 611 0
DWIDTH 12 0
BBX 11 14 0 0
BITMAP
1980
1980
3300
2200
0000
1F00
71C0
E0E0
E0E0
E0E0
E0E0
E0E0
71C0
1F00
ENDCHAR
STARTCHAR OE
ENCODING 338
SWIDTH 1000 0
DWIDTH 22 0
BBX 21 14 0 0
BITMAP
0FFFF8
3C7C38
783C18
783C48
F03C48
F03CC0
F03FC0
F03CC0
F03C40
F03C48
783C08
783C18
3C7C38
0FFFF8
ENDCHAR
STARTCHAR oe
ENCODING 339
SWIDTH 907 0
DWIDTH 19 0
BBX 18 9 0 0
BITMAP
1F1E00
71F380
E0E1C0
E0E1C0
E0FFC0
E0E000
E0E040
71F0C0
1F1F00
ENDCHAR
STARTCHAR Racute
ENCODING 340
SWIDTH 815 0
DWIDTH 16 0
BBX 14 19 1 0
BITMAP
0180
0380
0700
0C00
0000
FFE0
70F0
7070
7070
70F0
71E0
7F80
71C0
71E0
70E0
70E0
70F0
7074
F878
ENDCHAR
STARTCHAR racute
ENCODING 341
SWIDTH 519 0
DWIDTH 9 0
BBX 8 14 0 0
BITMAP
06
0E
1C
30
00
F7
7B
73
70
70
70
70
70
F8
ENDCHAR
STARTCHAR Rcommaaccent
ENCODING 342
SWIDTH 815 0
DWIDTH 16 0
BBX 14 22 1 -8
BITMAP
FFE0
70F0
7070
7070
70F0
71E0
7F80
71C0
71E0
70E0
70E0
70F0
7074
F878
0000
0300
0780
0780
0380
0100
0200
0400
ENDCHAR
STARTCHAR rcommaaccent
ENCODING 343
SWIDTH 519 0
DWIDTH 9 0
BBX 8 17 0 -8
BITMAP
F7
7B
73
70
70
70
70
70
F8
00
30
78
78
38
10
20
40
ENDCHAR
STARTCHAR Rcaron
ENCODING 344
SWIDTH 815 0
DWIDTH 16 0
BBX 14 19 1 0
BITMAP
18C0
0F80
0700
0200
0000
FFE0
70F0
7070
7070
70F0
71E0
7F80
71C0
71E0
70E0
70E0
70F0
7074
F878
ENDCHAR
STARTCHAR rcaron
ENCODING 345
SWIDTH 519 0
DWIDTH 9 0
BBX 8 14 0 0
BITMAP
63
3E
1C
08
00
F7
7B
73
70
70
70
70
70
F8
ENDCHAR
STARTCHAR Sacute
ENCODING 346
SWIDTH 667 0
DWIDTH 12 0
BBX 11 19 0 0
BITMAP
0300
0700
0E00
1800
0000
3F40
61C0
C0C0
C040
E000
FE00
7FC0
7FE0
0FE0
80E0
8060
C060
E0C0
BF80
ENDCHAR
STARTCHAR sacute
ENCODING 347
SWIDTH 500 0
DWIDTH 10 0
BBX 9 14 0 0
BITMAP
0600
0E00
1C00
3000
0000
3D00
6300
E100
FC00
7F00
0F80
8380
C300
BE00
ENDCHAR
STARTCHAR Scircumflex
ENCODING 348
SWIDTH 667 0
DWIDTH 12 0
BBX 11 19 0 0
BITMAP
0400
0E00
1F00
3180
0000
3F40
61C0
C0C0
C040
E000
FE00
7FC0
7FE0
0FE0
80E0
8060
C060
E0C0
BF80
ENDCHAR
STARTCHAR scircumflex
ENCODING 349
SWIDTH 500 0
DWIDTH 10 0
BBX 9 14 0 0
BITMAP
0800
1C00
3E00
6300
0000
3D00
6300
E100
FC00
7F00
0F80
8380
C300
BE00
ENDCHAR
STARTCHAR Scedilla
ENCODING 350
SWIDTH 667 0
DWIDTH 12 0
BBX 11 18 0 -4
BITMAP
3F40
61C0
C0C0
C040
E000
FE00
7FC0
7FE0
0FE0
80E0
8060
C060
E0C0
BF80
0800
0E00
0600
1C00
ENDCHAR
STARTCHAR scedilla
ENCODING 351
SWIDTH 500 0
DWIDTH 10 0
BBX 9 13 0 -4
BITMAP
3D00
6300
E100
FC00
7F00
0F80
8380
C300
BE00
1000
1C00
0C00
3800
ENDCHAR
STARTCHAR Scaron
ENCODING 352
SWIDTH 667 0
DWIDTH 12 0
BBX 10 14 0 0
BITMAP
6180
3300
1E00
0C00
0000
3F80
7180
7880
7E00
3F00
0F80
83C0
C780
BF00
ENDCHAR
STARTCHAR scaron
ENCODING 353
SWIDTH 500 0
DWIDTH 10 0
BBX 9 14 0 0
BITMAP
C300
6600
3C00
1800
0000
3D00
6300
E100
FC00
7F00
0F80
8380
C300
BE00
ENDCHAR
STARTCHAR Tcommaaccent
ENCODING 354
SWIDTH 722 0
DWIDTH 13 0
BBX 11 18 1 -4
BITMAP
FFE0
CE60
CE60
8E20
8E20
0E00
0E00
0E00
0E00
0E00
0E00
0E00
0E00
1F00
0800
0E00
0600
1C00
ENDCHAR
STARTCHAR tcommaaccent
ENCODING 355
SWIDTH 426 0
DWIDTH 8 0
BBX 7 17 0 -4
BITMAP
10
30
30
70
FC
70
70
70
70
70
72
72
3C
20
38
18
70
ENDCHAR
STARTCHAR Tcaron
ENCODING 356
SWIDTH 722 0
DWIDTH 13 0
BBX 11 19 1 0
BITMAP
3180
1F00
0E00
0400
0000
FFE0
CE60
CE60
8E20
8E20
0E00
0E00
0E00
0E00
0E00
0E00
0E00
0E00
1F00
ENDCHAR
STARTCHAR tcaron
ENCODING 357
SWIDTH 646 0
DWIDTH 13 0
BBX 12 14 0 0
BITMAP
0060
10F0
30F0
3070
7020
FC40
7080
7000
7000
7000
7000
7200
7200
3C00
ENDCHAR
STARTCHAR Tbar
ENCODING 358
SWIDTH 722 0
DWIDTH 13 0
BBX 11 14 1 0
BITMAP
FFE0
CE60
CE60
8E20
8E20
0E00
1F00
1F00
0E00
0E00
0E00
0E00
0E00
1F00
ENDCHAR
STARTCHAR tbar
ENCODING 359
SWIDTH 426 0
DWIDTH 8 0
BBX 7 13 0 0
BITMAP
10
30
30
70
FC
70
70
70
7C
7C
72
72
3C
ENDCHAR
STARTCHAR Utilde
ENCODING 360
SWIDTH 833 0
DWIDTH 16 0
BBX 14 18 1 0
BITMAP
0620
0FC0
1180
0000
F87C
7038
7010
7010
7010
7010
7010
7010
7010
7010
7010
7010
3820
1FC0
ENDCHAR
STARTCHAR utilde
ENCODING 361
SWIDTH 685 0
DWIDTH 13 0
BBX 12 13 0 0
BITMAP
0C40
1F80
2300
0000
F1E0
70E0
70E0
70E0
70E0
70E0
70E0
79E0
3EF0
ENDCHAR
STARTCHAR Umacron
ENCODING 362
SWIDTH 833 0
DWIDTH 16 0
BBX 14 17 1 0
BITMAP
0FC0
0FC0
0000
F87C
7038
7010
7010
7010
7010
7010
7010
7010
7010
7010
7010
3820
1FC0
ENDCHAR
STARTCHAR umacron
ENCODING 363
SWIDTH 685 0
DWIDTH 13 0
BBX 12 12 0 0
BITMAP
1F80
1F80
0000
F1E0
70E0
70E0
70E0
70E0
70E0
70E0
79E0
3EF0
ENDCHAR
STARTCHAR Ubreve
ENCODING 364
SWIDTH 833 0
DWIDTH 16 0
BBX 14 18 1 0
BITMAP
0840
0CC0
0780
0000
F87C
7038
7010
7010
7010
7010
7010
7010
7010
7010
7010
7010
3820
1FC0
ENDCHAR
STARTCHAR ubreve
ENCODING 365
SWIDTH 685 0
DWIDTH 13 0
BBX 12 13 0 0
BITMAP
1080
1980
0F00
0000
F1E0
70E0
70E0
70E0
70E0
70E0
70E0
79E0
3EF0
ENDCHAR
STARTCHAR Uring
ENCODING 366
SWIDTH 833 0
DWIDTH 16 0
BBX 14 19 1 0
BITMAP
0300
0480
0480
0300
0000
F87C
7038
7010
7010
7010
7010
7010
7010
7010
7010
7010
7010
3820
1FC0
ENDCHAR
STARTCHAR uring
ENCODING 367
SWIDTH 685 0
DWIDTH 13 0
BBX 12 14 0 0
BITMAP
0600
0900
0900
0600
0000
F1E0
70E0
70E0
70E0
70E0
70E0
70E0
79E0
3EF0
ENDCHAR
STARTCHAR Uhungarumlaut
ENCODING 368
SWIDTH 833 0
DWIDTH 16 0
BBX 14 19 1 0
BITMAP
0CC0
0CC0
1980
1100
0000
F87C
7038
7010
7010
7010
7010
7010
7010
7010
7010
7010
7010
3820
1FC0
ENDCHAR
STARTCHAR uhungarumlaut
ENCODING 369
SWIDTH 685 0
DWIDTH 13 0
BBX 12 14 0 0
BITMAP
0CC0
0CC0
1980
1100
0000
F1E0
70E0
70E0
70E0
70E0
70E0
70E0
79E0
3EF0
ENDCHAR
STARTCHAR Uogonek
ENCODING 370
SWIDTH 833 0
DWIDTH 16 0
BBX 14 18 1 -4
BITMAP
F87C
7038
7010
7010
7010
7010
7010
7010
7010
7010
7010
7010
3820
1FC0
0600
0C00
0D00
0600
ENDCHAR
STARTCHAR uogonek
ENCODING 371
SWIDTH 685 0
DWIDTH 13 0
BBX 12 13 0 -4
BITMAP
F1E0
70E0
70E0
70E0
70E0
70E0
70E0
79E0
3EF0
0300
0600
0680
0300
ENDCHAR
STARTCHAR Wcircumflex
ENCODING 372
SWIDTH 981 0
DWIDTH 19 0
BBX 19 19 0 0
BITMAP
008000
01C000
03E000
063000
000000
FBF3E0
71E1C0
70E180
78E100
38F100
39F300
3D7200
1D3A00
1F3E00
1E3C00
0E1C00
0E1C00
0C1800
040800
ENDCHAR
STARTCHAR wcircumflex
ENCODING 373
SWIDTH 889 0
DWIDTH 15 0
BBX 16 14 -1 0
BITMAP
0100
0380
07C0
0C60
0000
FBE7
71C2
71C2
39E4
39E4
1E78
1E78
0C30
0C30
ENDCHAR
STARTCHAR Ycircumflex
ENCODING 374
SWIDTH 722 0
DWIDTH 15 0
BBX 13 19 1 0
BITMAP
0200
0700
0F80
18C0
0000
F878
7030
7820
3860
3C40
1CC0
1F80
0F80
0F00
0700
0700
0700
0700
0F80
ENDCHAR
STARTCHAR ycircumflex
ENCODING 375
SWIDTH 611 0
DWIDTH 12 0
BBX 11 18 0 -4
BITMAP
0800
1C00
3E00
6300
0000
F8E0
7040
7040
3880
3880
1D00
1D00
0E00
0E00
0400
C400
E800
7000
ENDCHAR
STARTCHAR Ydieresis
ENCODING 376
SWIDTH 722 0
DWIDTH 15 0
BBX 13 14 0 0
BITMAP
0CC0
0CC0
0000
0000
0000
FCF8
7870
3CE0
1FC0
0F80
0780
0780
0780
0FC0
ENDCHAR
STARTCHAR Zacute
ENCODING 377
SWIDTH 667 0
DWIDTH 13 0
BBX 11 19 1 0
BITMAP
0180
0380
0700
0C00
0000
FFE0
E1E0
C1C0
83C0
8780
0700
0F00
1E00
1C00
3C20
7820
7060
F0E0
FFE0
ENDCHAR
STARTCHAR zacute
ENCODING 378
SWIDTH 537 0
DWIDTH 10 0
BBX 8 14 0 0
BITMAP
06
0E
1C
30
00
FF
CF
8E
1C
38
39
71
F3
FF
ENDCHAR
STARTCHAR Zdotaccent
ENCODING 379
SWIDTH 667 0
DWIDTH 13 0
BBX 11 17 1 0
BITMAP
0600
0600
0000
FFE0
E1E0
C1C0
83C0
8780
0700
0F00
1E00
1C00
3C20
7820
7060
F0E0
FFE0
ENDCHAR
STARTCHAR zdotaccent
ENCODING 380
SWIDTH 537 0
DWIDTH 10 0
BBX 8 12 0 0
BITMAP
18
18
00
FF
CF
8E
1C
38
39
71
F3
FF
ENDCHAR
STARTCHAR Zcaron
ENCODING 381
SWIDTH 667 0
DWIDTH 13 0
BBX 12 14 0 0
BITMAP
30C0
1980
0F00
0600
0000
FFF0
C1E0
83C0
0780
0F10
1E10
3C30
7870
FFF0
ENDCHAR
STARTCHAR zcaron
ENCODING 382
SWIDTH 537 0
DWIDTH 10 0
BBX 8 14 0 0
BITMAP
C3
66
3C
18
00
FF
C7
8F
1E
3C
79
F1
E3
FF
ENDCHAR
STARTCHAR uni0186
ENCODING 390
SWIDTH 778 0
DWIDTH 14 0
BBX 12 14 1 0
BITMAP
1F00
63C0
41E0
80E0
80F0
0070
0070
0070
8070
80F0
C0E0
C1E0
E3C0
9F00
ENDCHAR
STARTCHAR uni0189
ENCODING 393
SWIDTH 833 0
DWIDTH 16 0
BBX 15 14 0 0
BITMAP
7FE0
3878
383C
381C
381E
380E
FE0E
380E
380E
381E
381C
383C
3878
7FE0
ENDCHAR
STARTCHAR uni018E
ENCODING 398
SWIDTH 759 0
DWIDTH 13 0
BBX 11 14 1 0
BITMAP
FFE0
E1C0
C1C0
81C0
91C0
11C0
19C0
1FC0
19C0
91C0
91C0
C1C0
E1C0
FFE0
ENDCHAR
STARTCHAR florin
ENCODING 402
SWIDTH 574 0
DWIDTH 12 0
BBX 11 18 0 -4
BITMAP
01C0
0360
0760
0700
0700
1FC0
0E00
0E00
0E00
0E00
0E00
1C00
1C00
1C00
1C00
DC00
D800
7000
ENDCHAR
STARTCHAR uni0197
ENCODING 407
SWIDTH 444 0
DWIDTH 9 0
BBX 5 14 2 0
BITMAP
F8
70
70
70
70
70
F8
F8
70
70
70
70
70
F8
ENDCHAR
STARTCHAR uni019A
ENCODING 410
SWIDTH 352 0
DWIDTH 6 0
BBX 5 14 0 0
BITMAP
F0
70
70
70
70
70
F8
F8
70
70
70
70
70
F8
ENDCHAR
STARTCHAR uni019D
ENCODING 413
SWIDTH 833 0
DWIDTH 16 0
BBX 17 18 -1 -4
BITMAP
3E0F80
1F0700
0F0200
0F8200
0BC200
09E200
08E200
087200
087A00
083A00
0E1E00
0E1E00
0E0E00
0E0600
0E0000
EE0000
EC0000
780000
ENDCHAR
STARTCHAR uni019F
ENCODING 415
SWIDTH 833 0
DWIDTH 16 0
BBX 15 14 0 0
BITMAP
0FE0
3C78
783C
701C
F01E
E00E
FFFE
FFFE
E00E
F01E
701C
783C
3C78
0FE0
ENDCHAR
STARTCHAR Ohorn
ENCODING 416
SWIDTH 833 0
DWIDTH 16 0
BBX 18 14 0 0
BITMAP
0FE180
3C7BC0
783FC0
701DC0
F01E80
E00F00
E00E00
E00E00
E00E00
F01E00
701C00
783C00
3C7800
0FE000
ENDCHAR
STARTCHAR ohorn
ENCODING 417
SWIDTH 611 0
DWIDTH 12 0
BBX 14 9 0 0
BITMAP
1F18
71FC
E0FC
E0FC
E0E8
E0F0
E0E0
71C0
1F00
ENDCHAR
STARTCHAR uni01A7
ENCODING 423
SWIDTH 667 0
DWIDTH 12 0
BBX 11 14 0 0
BITMAP
5F80
70C0
6060
4060
00E0
0FE0
7FC0
FFC0
FE00
E020
C020
C060
60E0
3FA0
ENDCHAR
STARTCHAR uni01A8
ENCODING 424
SWIDTH 500 0
DWIDTH 10 0
BBX 9 9 0 0
BITMAP
5E00
6300
4380
1F80
7F00
F800
E080
6180
3E80
ENDCHAR
STARTCHAR uni01AE
ENCODING 430
SWIDTH 722 0
DWIDTH 13 0
BBX 11 18 1 -4
BITMAP
FFE0
CE60
CE60
8E20
8E20
0E00
0E00
0E00
0E00
0E00
0E00
0E00
0E00
0E00
0E00
0EE0
06E0
03C0
ENDCHAR
STARTCHAR Uhorn
ENCODING 431
SWIDTH 833 0
DWIDTH 16 0
BBX 17 14 1 0
BITMAP
F87F00
703F80
701780
701380
701100
701200
701400
701000
701000
701000
701000
701000
382000
1FC000
ENDCHAR
STARTCHAR uhorn
ENCODING 432
SWIDTH 685 0
DWIDTH 13 0
BBX 15 9 0 0
BITMAP
F1EC
70FE
70FE
70EE
70E4
70E8
70F0
79E0
3EF0
ENDCHAR
STARTCHAR uni01B5
ENCODING 437
SWIDTH 667 0
DWIDTH 13 0
BBX 11 14 1 0
BITMAP
FFE0
E1E0
C1C0
83C0
8780
0700
1F00
1F00
1C00
3C20
7820
7060
F0E0
FFE0
ENDCHAR
STARTCHAR uni01B6
ENCODING 438
SWIDTH 537 0
DWIDTH 10 0
BBX 8 9 0 0
BITMAP
FF
CF
8E
3E
3E
39
71
F3
FF
ENDCHAR
STARTCHAR uni01BB
ENCODING 443
SWIDTH 574 0
DWIDTH 11 0
BBX 9 14 1 0
BITMAP
1E00
6700
E380
E380
6380
0380
FF80
FF80
0E00
1800
3000
6080
FF80
FF80
ENDCHAR
STARTCHAR uni01BC
ENCODING 444
SWIDTH 574 0
DWIDTH 11 0
BBX 9 14 1 0
BITMAP
7F80
7F00
4000
4000
4000
7E00
4700
0380
0380
6380
E380
E380
6700
3E00
ENDCHAR
STARTCHAR uni01C0
ENCODING 448
SWIDTH 606 0
DWIDTH 11 0
BBX 2 14 4 0
BITMAP
C0
C0
C0
C0
C0
C0
C0
C0
C0
C0
C0
C0
C0
C0
ENDCHAR
STARTCHAR uni01C2
ENCODING 450
SWIDTH 606 0
DWIDTH 11 0
BBX 9 14 1 -2
BITMAP
0C00
0C00
0C00
0C00
FF80
FF80
0C00
0C00
FF80
FF80
0C00
0C00
0C00
0C00
ENDCHAR
STARTCHAR uni01C3
ENCODING 451
SWIDTH 296 0
DWIDTH 6 0
BBX 4 14 1 0
BITMAP
60
F0
F0
F0
F0
F0
60
60
60
00
60
F0
F0
60
ENDCHAR
STARTCHAR uni01CD
ENCODING 461
SWIDTH 759 0
DWIDTH 14 0
BBX 14 19 0 0
BITMAP
0C60
07C0
0380
0100
0000
0300
0300
0780
0780
0F80
09C0
09C0
19E0
10E0
3FE0
20F0
6070
4078
E0FC
ENDCHAR
STARTCHAR uni01CE
ENCODING 462
SWIDTH 611 0
DWIDTH 11 0
BBX 10 14 0 0
BITMAP
6300
3E00
1C00
0800
0000
7F00
E380
C380
0780
3B80
E380
E380
E780
7BC0
ENDCHAR
STARTCHAR uni01CF
ENCODING 463
SWIDTH 444 0
DWIDTH 9 0
BBX 7 19 1 0
BITMAP
C6
7C
38
10
00
7C
38
38
38
38
38
38
38
38
38
38
38
38
7C
ENDCHAR
STARTCHAR uni01D0
ENCODING 464
SWIDTH 370 0
DWIDTH 6 0
BBX 7 14 -1 0
BITMAP
C6
7C
38
10
00
78
38
38
38
38
38
38
38
7C
ENDCHAR
STARTCHAR uni01D1
ENCODING 465
SWIDTH 833 0
DWIDTH 16 0
BBX 15 19 0 0
BITMAP
0C60
07C0
0380
0100
0000
0FE0
3C78
783C
701C
F01E
E00E
E00E
E00E
E00E
F01E
701C
783C
3C78
0FE0
ENDCHAR
STARTCHAR uni01D2
ENCODING 466
SWIDTH 611 0
DWIDTH 12 0
BBX 11 14 0 0
BITMAP
3180
1F00
0E00
0400
0000
1F00
71C0
E0E0
E0E0
E0E0
E0E0
E0E0
71C0
1F00
ENDCHAR
STARTCHAR uni01D3
ENCODING 467
SWIDTH 833 0
DWIDTH 16 0
BBX 14 19 1 0
BITMAP
18C0
0F80
0700
0200
0000
F87C
7038
7010
7010
7010
7010
7010
7010
7010
7010
7010
7010
3820
1FC0
ENDCHAR
STARTCHAR uni01D4
ENCODING 468
SWIDTH 685 0
DWIDTH 13 0
BBX 12 14 0 0
BITMAP
3180
1F00
0E00
0400
0000
F1E0
70E0
70E0
70E0
70E0
70E0
70E0
79E0
3EF0
ENDCHAR
STARTCHAR uni01D5
ENCODING 469
SWIDTH 833 0
DWIDTH 16 0
BBX 14 20 1 0
BITMAP
0FC0
0FC0
0000
0CC0
0CC0
0000
F87C
7038
7010
7010
7010
7010
7010
7010
7010
7010
7010
7010
3820
1FC0
ENDCHAR
STARTCHAR uni01D6
ENCODING 470
SWIDTH 685 0
DWIDTH 13 0
BBX 12 15 0 0
BITMAP
1F80
1F80
0000
1980
1980
0000
F1E0
70E0
70E0
70E0
70E0
70E0
70E0
79E0
3EF0
ENDCHAR
STARTCHAR uni01D7
ENCODING 471
SWIDTH 833 0
DWIDTH 16 0
BBX 14 22 1 0
BITMAP
00C0
01C0
0380
0600
0000
0CC0
0CC0
0000
F87C
7038
7010
7010
7010
7010
7010
7010
7010
7010
7010
7010
3820
1FC0
ENDCHAR
STARTCHAR uni01D8
ENCODING 472
SWIDTH 685 0
DWIDTH 13 0
BBX 12 17 0 0
BITMAP
0180
0380
0700
0C00
0000
1980
1980
0000
F1E0
70E0
70E0
70E0
70E0
70E0
70E0
79E0
3EF0
ENDCHAR
STARTCHAR uni01D9
ENCODING 473
SWIDTH 833 0
DWIDTH 16 0
BBX 14 22 1 0
BITMAP
0C60
07C0
0380
0100
0000
0CC0
0CC0
0000
F87C
7038
7010
7010
7010
7010
7010
7010
7010
7010
7010
7010
3820
1FC0
ENDCHAR
STARTCHAR uni01DA
ENCODING 474
SWIDTH 685 0
DWIDTH 13 0
BBX 12 17 0 0
BITMAP
3180
1F00
0E00
0400
0000
1980
1980
0000
F1E0
70E0
70E0
70E0
70E0
70E0
70E0
79E0
3EF0
ENDCHAR
STARTCHAR uni01DB
ENCODING 475
SWIDTH 833 0
DWIDTH 16 0
BBX 14 22 1 0
BITMAP
0C00
0E00
0700
0180
0000
0CC0
0CC0
0000
F87C
7038
7010
7010
7010
7010
7010
7010
7010
7010
7010
7010
3820
1FC0
ENDCHAR
STARTCHAR uni01DC
ENCODING 476
SWIDTH 685 0
DWIDTH 13 0
BBX 12 17 0 0
BITMAP
1800
1C00
0E00
0300
0000
1980
1980
0000
F1E0
70E0
70E0
70E0
70E0
70E0
70E0
79E0
3EF0
ENDCHAR
STARTCHAR uni01DD
ENCODING 477
SWIDTH 574 0
DWIDTH 11 0
BBX 10 9 0 0
BITMAP
3E00
C380
81C0
01C0
FFC0
E1C0
E1C0
7380
1E00
ENDCHAR
STARTCHAR uni01DE
ENCODING 478
SWIDTH 759 0
DWIDTH 14 0
BBX 14 20 0 0
BITMAP
0FC0
0FC0
0000
0CC0
0CC0
0000
0300
0300
0780
0780
0F80
09C0
09C0
19E0
10E0
3FE0
20F0
6070
4078
E0FC
ENDCHAR
STARTCHAR uni01DF
ENCODING 479
SWIDTH 611 0
DWIDTH 11 0
BBX 10 15 0 0
BITMAP
3F00
3F00
0000
3300
3300
0000
7F00
E380
C380
0780
3B80
E380
E380
E780
7BC0
ENDCHAR
STARTCHAR uni01E0
ENCODING 480
SWIDTH 759 0
DWIDTH 14 0
BBX 14 20 0 0
BITMAP
0FC0
0FC0
0000
0300
0300
0000
0300
0300
0780
0780
0F80
09C0
09C0
19E0
10E0
3FE0
20F0
6070
4078
E0FC
ENDCHAR
STARTCHAR uni01E1
ENCODING 481
SWIDTH 611 0
DWIDTH 11 0
BBX 10 15 0 0
BITMAP
3F00
3F00
0000
0C00
0C00
0000
7F00
E380
C380
0780
3B80
E380
E380
E780
7BC0
ENDCHAR
STARTCHAR uni01E2
ENCODING 482
SWIDTH 981 0
DWIDTH 21 0
BBX 20 17 0 0
BITMAP
007E00
007E00
000000
03FFF0
00B870
01B830
013890
033890
063980
043F80
0C3980
1FF880
103890
203810
203830
603870
F1FFF0
ENDCHAR
STARTCHAR uni01E3
ENCODING 483
SWIDTH 870 0
DWIDTH 17 0
BBX 16 12 0 0
BITMAP
07E0
07E0
0000
3F78
63CE
E387
0787
3BFF
E380
E381
E7C3
78FC
ENDCHAR
STARTCHAR uni01E4
ENCODING 484
SWIDTH 833 0
DWIDTH 15 0
BBX 14 14 1 0
BITMAP
0F90
3C70
7830
7030
F010
E010
E000
E000
E0F8
F070
7070
787C
3CFC
0F90
ENDCHAR
STARTCHAR uni01E5
ENCODING 485
SWIDTH 611 0
DWIDTH 11 0
BBX 11 15 0 -4
BITMAP
0060
00E0
3F00
7380
6180
6180
7380
3F00
6000
7F80
FFE0
FFE0
C0C0
E180
7F00
ENDCHAR
STARTCHAR Gcaron
ENCODING 486
SWIDTH 833 0
DWIDTH 15 0
BBX 13 19 1 0
BITMAP
18C0
0F80
0700
0200
0000
0F90
3C70
7830
7030
F010
E010
E000
E000
E0F8
F070
7070
7870
3CF0
0F90
ENDCHAR
STARTCHAR gcaron
ENCODING 487
SWIDTH 611 0
DWIDTH 11 0
BBX 11 20 0 -4
BITMAP
18C0
0F80
0700
0200
0000
0060
00E0
3F00
7380
6180
6180
7380
3F00
6000
7F80
3FC0
C1C0
C0C0
E180
7F00
ENDCHAR
STARTCHAR uni01E8
ENCODING 488
SWIDTH 815 0
DWIDTH 16 0
BBX 15 19 1 0
BITMAP
18C0
0F80
0700
0200
0000
FC7C
7030
7060
70C0
7180
7300
7780
7FC0
7BC0
71E0
70F0
70F8
707C
FCFE
ENDCHAR
STARTCHAR uni01E9
ENCODING 489
SWIDTH 667 0
DWIDTH 13 0
BBX 12 19 0 0
BITMAP
C600
7C00
3800
1000
0000
F000
7000
7000
7000
7000
73E0
7180
7200
7600
7F00
7780
73C0
71E0
FBF0
ENDCHAR
STARTCHAR uni01EA
ENCODING 490
SWIDTH 833 0
DWIDTH 16 0
BBX 15 18 0 -4
BITMAP
0FE0
3C78
783C
701C
F01E
E00E
E00E
E00E
E00E
F01E
701C
783C
3C78
0FE0
0180
0300
0340
0180
ENDCHAR
STARTCHAR uni01EB
ENCODING 491
SWIDTH 611 0
DWIDTH 12 0
BBX 11 13 0 -4
BITMAP
1F00
71C0
E0E0
E0E0
E0E0
E0E0
E0E0
71C0
1F00
0600
0C00
0D00
0600
ENDCHAR
STARTCHAR uni01EC
ENCODING 492
SWIDTH 833 0
DWIDTH 16 0
BBX 15 21 0 -4
BITMAP
07E0
07E0
0000
0FE0
3C78
783C
701C
F01E
E00E
E00E
E00E
E00E
F01E
701C
783C
3C78
0FE0
0180
0300
0340
0180
ENDCHAR
STARTCHAR uni01ED
ENCODING 493
SWIDTH 611 0
DWIDTH 12 0
BBX 11 16 0 -4
BITMAP
1F80
1F80
0000
1F00
71C0
E0E0
E0E0
E0E0
E0E0
E0E0
71C0
1F00
0600
0C00
0D00
0600
ENDCHAR
STARTCHAR uni01F0
ENCODING 496
SWIDTH 352 0
DWIDTH 6 0
BBX 8 18 -3 -4
BITMAP
63
3E
1C
08
00
1E
0E
0E
0E
0E
0E
0E
0E
0E
0E
EE
EC
78
ENDCHAR
STARTCHAR uni01F4
ENCODING 500
SWIDTH 833 0
DWIDTH 15 0
BBX 13 19 1 0
BITMAP
0180
0380
0700
0C00
0000
0F90
3C70
7830
7030
F010
E010
E000
E000
E0F8
F070
7070
7870
3CF0
0F90
ENDCHAR
STARTCHAR uni01F5
ENCODING 501
SWIDTH 611 0
DWIDTH 11 0
BBX 11 20 0 -4
BITMAP
0180
0380
0700
0C00
0000
0060
00E0
3F00
7380
6180
6180
7380
3F00
6000
7F80
3FC0
C1C0
C0C0
E180
7F00
ENDCHAR
STARTCHAR uni01F8
ENCODING 504
SWIDTH 833 0
DWIDTH 16 0
BBX 15 19 1 0
BITMAP
0C00
0E00
0700
0180
0000
F83E
7C1C
3C08
3E08
2F08
2788
2388
21C8
21E8
20E8
2078
2078
7038
F818
ENDCHAR
STARTCHAR uni01F9
ENCODING 505
SWIDTH 685 0
DWIDTH 13 0
BBX 12 14 0 0
BITMAP
1800
1C00
0E00
0300
0000
F7C0
79E0
70E0
70E0
70E0
70E0
70E0
70E0
F9F0
ENDCHAR
STARTCHAR Aringacute
ENCODING 506
SWIDTH 759 0
DWIDTH 14 0
BBX 14 23 0 0
BITMAP
00C0
01C0
0380
0600
0000
0300
0480
0480
0300
0300
0300
0780
0780
0F80
09C0
09C0
19E0
10E0
3FE0
20F0
6070
4078
E0FC
ENDCHAR
STARTCHAR aringacute
ENCODING 507
SWIDTH 611 0
DWIDTH 11 0
BBX 10 19 0 0
BITMAP
0300
0700
0E00
1800
0000
0C00
1200
1200
0C00
0000
7F00
E380
C380
0780
3B80
E380
E380
E780
7BC0
ENDCHAR
STARTCHAR AEacute
ENCODING 508
SWIDTH 981 0
DWIDTH 21 0
BBX 20 19 0 0
BITMAP
000600
000E00
001C00
003000
000000
03FFF0
00B870
01B830
013890
033890
063980
043F80
0C3980
1FF880
103890
203810
203830
603870
F1FFF0
ENDCHAR
STARTCHAR aeacute
ENCODING 509
SWIDTH 870 0
DWIDTH 17 0
BBX 16 14 0 0
BITMAP
0060
00E0
01C0
0300
0000
3F78
63CE
E387
0787
3BFF
E380
E381
E7C3
78FC
ENDCHAR
STARTCHAR Oslashacute
ENCODING 510
SWIDTH 833 0
DWIDTH 16 0
BBX 14 19 1 0
BITMAP
00C0
01C0
0380
0600
0000
0FC8
38F0
7078
7078
E0BC
E11C
E21C
E21C
E41C
E83C
7038
7078
78F0
8FC0
ENDCHAR
STARTCHAR oslashacute
ENCODING 511
SWIDTH 611 0
DWIDTH 11 0
BBX 10 16 0 -1
BITMAP
0300
0700
0E00
1800
0000
0100
1F00
7380
E3C0
E5C0
E5C0
E9C0
E9C0
7380
3E00
2000
ENDCHAR
STARTCHAR uni0200
ENCODING 512
SWIDTH 759 0
DWIDTH 14 0
BBX 14 19 0 0
BITMAP
1980
1980
0CC0
0440
0000
0300
0300
0780
0780
0F80
09C0
09C0
19E0
10E0
3FE0
20F0
6070
4078
E0FC
ENDCHAR
STARTCHAR uni0201
ENCODING 513
SWIDTH 611 0
DWIDTH 11 0
BBX 10 14 0 0
BITMAP
6600
6600
3300
1100
0000
7F00
E380
C380
0780
3B80
E380
E380
E780
7BC0
ENDCHAR
STARTCHAR uni0202
ENCODING 514
SWIDTH 759 0
DWIDTH 14 0
BBX 14 18 0 0
BITMAP
0780
0CC0
0840
0000
0300
0300
0780
0780
0F80
09C0
09C0
19E0
10E0
3FE0
20F0
6070
4078
E0FC
ENDCHAR
STARTCHAR uni0203
ENCODING 515
SWIDTH 611 0
DWIDTH 11 0
BBX 10 13 0 0
BITMAP
1E00
3300
2100
0000
7F00
E380
C380
0780
3B80
E380
E380
E780
7BC0
ENDCHAR
STARTCHAR uni0204
ENCODING 516
SWIDTH 759 0
DWIDTH 13 0
BBX 11 19 1 0
BITMAP
3300
3300
1980
0880
0000
FFE0
70E0
7060
7120
7120
7300
7F00
7300
7100
7120
7020
7060
70E0
FFE0
ENDCHAR
STARTCHAR uni0205
ENCODING 517
SWIDTH 574 0
DWIDTH 11 0
BBX 10 14 0 0
BITMAP
6600
6600
3300
1100
0000
1E00
7380
E1C0
E1C0
FFC0
E000
E040
70C0
1F00
ENDCHAR
STARTCHAR uni0206
ENCODING 518
SWIDTH 759 0
DWIDTH 13 0
BBX 11 18 1 0
BITMAP
0F00
1980
1080
0000
FFE0
70E0
7060
7120
7120
7300
7F00
7300
7100
7120
7020
7060
70E0
FFE0
ENDCHAR
STARTCHAR uni0207
ENCODING 519
SWIDTH 574 0
DWIDTH 11 0
BBX 10 13 0 0
BITMAP
1E00
3300
2100
0000
1E00
7380
E1C0
E1C0
FFC0
E000
E040
70C0
1F00
ENDCHAR
STARTCHAR uni0208
ENCODING 520
SWIDTH 444 0
DWIDTH 9 0
BBX 7 19 1 0
BITMAP
CC
CC
66
22
00
7C
38
38
38
38
38
38
38
38
38
38
38
38
7C
ENDCHAR
STARTCHAR uni0209
ENCODING 521
SWIDTH 370 0
DWIDTH 6 0
BBX 7 14 -2 0
BITMAP
CC
CC
66
22
00
3C
1C
1C
1C
1C
1C
1C
1C
3E
ENDCHAR
STARTCHAR uni020A
ENCODING 522
SWIDTH 444 0
DWIDTH 9 0
BBX 6 18 2 0
BITMAP
78
CC
84
00
F8
70
70
70
70
70
70
70
70
70
70
70
70
F8
ENDCHAR
STARTCHAR uni020B
ENCODING 523
SWIDTH 370 0
DWIDTH 6 0
BBX 6 13 -1 0
BITMAP
78
CC
84
00
78
38
38
38
38
38
38
38
7C
ENDCHAR
STARTCHAR uni020C
ENCODING 524
SWIDTH 833 0
DWIDTH 16 0
BBX 15 19 0 0
BITMAP
0CC0
0CC0
0660
0220
0000
0FE0
3C78
783C
701C
F01E
E00E
E00E
E00E
E00E
F01E
701C
783C
3C78
0FE0
ENDCHAR
STARTCHAR uni020D
ENCODING 525
SWIDTH 611 0
DWIDTH 12 0
BBX 11 14 0 0
BITMAP
3300
3300
1980
0880
0000
1F00
71C0
E0E0
E0E0
E0E0
E0E0
E0E0
71C0
1F00
ENDCHAR
STARTCHAR uni020E
ENCODING 526
SWIDTH 833 0
DWIDTH 16 0
BBX 15 18 0 0
BITMAP
03C0
0660
0420
0000
0FE0
3C78
783C
701C
F01E
E00E
E00E
E00E
E00E
F01E
701C
783C
3C78
0FE0
ENDCHAR
STARTCHAR uni020F
ENCODING 527
SWIDTH 611 0
DWIDTH 12 0
BBX 11 13 0 0
BITMAP
0F00
1980
1080
0000
1F00
71C0
E0E0
E0E0
E0E0
E0E0
E0E0
71C0
1F00
ENDCHAR
STARTCHAR uni0210
ENCODING 528
SWIDTH 815 0
DWIDTH 16 0
BBX 14 19 1 0
BITMAP
1980
1980
0CC0
0440
0000
FFE0
70F0
7070
7070
70F0
71E0
7F80
71C0
71E0
70E0
70E0
70F0
7074
F878
ENDCHAR
STARTCHAR uni0211
ENCODING 529
SWIDTH 519 0
DWIDTH 9 0
BBX 8 14 0 0
BITMAP
CC
CC
66
22
00
F7
7B
73
70
70
70
70
70
F8
ENDCHAR
STARTCHAR uni0212
ENCODING 530
SWIDTH 815 0
DWIDTH 16 0
BBX 14 18 1 0
BITMAP
0F00
1980
1080
0000
FFE0
70F0
7070
7070
70F0
71E0
7F80
71C0
71E0
70E0
70E0
70F0
7074
F878
ENDCHAR
STARTCHAR uni0213
ENCODING 531
SWIDTH 519 0
DWIDTH 9 0
BBX 8 13 0 0
BITMAP
3C
66
42
00
F7
7B
73
70
70
70
70
70
F8
ENDCHAR
STARTCHAR uni0214
ENCODING 532
SWIDTH 833 0
DWIDTH 16 0
BBX 14 19 1 0
BITMAP
1980
1980
0CC0
0440
0000
F87C
7038
7010
7010
7010
7010
7010
7010
7010
7010
7010
7010
3820
1FC0
ENDCHAR
STARTCHAR uni0215
ENCODING 533
SWIDTH 685 0
DWIDTH 13 0
BBX 12 14 0 0
BITMAP
3300
3300
1980
0880
0000
F1E0
70E0
70E0
70E0
70E0
70E0
70E0
79E0
3EF0
ENDCHAR
STARTCHAR uni0216
ENCODING 534
SWIDTH 833 0
DWIDTH 16 0
BBX 14 18 1 0
BITMAP
0780
0CC0
0840
0000
F87C
7038
7010
7010
7010
7010
7010
7010
7010
7010
7010
7010
3820
1FC0
ENDCHAR
STARTCHAR uni0217
ENCODING 535
SWIDTH 685 0
DWIDTH 13 0
BBX 12 13 0 0
BITMAP
0F00
1980
1080
0000
F1E0
70E0
70E0
70E0
70E0
70E0
70E0
79E0
3EF0
ENDCHAR
STARTCHAR Scommaaccent
ENCODING 536
SWIDTH 667 0
DWIDTH 12 0
BBX 11 22 0 -8
BITMAP
3F40
61C0
C0C0
C040
E000
FE00
7FC0
7FE0
0FE0
80E0
8060
C060
E0C0
BF80
0000
0C00
1E00
1E00
0E00
0400
0800
1000
ENDCHAR
STARTCHAR scommaaccent
ENCODING 537
SWIDTH 500 0
DWIDTH 10 0
BBX 9 17 0 -8
BITMAP
3D00
6300
E100
FC00
7F00
0F80
8380
C300
BE00
0000
1800
3C00
3C00
1C00
0800
1000
2000
ENDCHAR
STARTCHAR Tcommaaccent
ENCODING 538
SWIDTH 722 0
DWIDTH 13 0
BBX 11 22 1 -8
BITMAP
FFE0
CE60
CE60
8E20
8E20
0E00
0E00
0E00
0E00
0E00
0E00
0E00
0E00
1F00
0000
0600
0F00
0F00
0700
0200
0400
0800
ENDCHAR
STARTCHAR tcommaaccent
ENCODING 539
SWIDTH 426 0
DWIDTH 8 0
BBX 7 21 0 -8
BITMAP
10
30
30
70
FC
70
70
70
70
70
72
72
3C
00
30
78
78
38
10
20
40
ENDCHAR
STARTCHAR uni021E
ENCODING 542
SWIDTH 870 0
DWIDTH 16 0
BBX 14 19 1 0
BITMAP
0C60
07C0
0380
0100
0000
FCFC
7038
7038
7038
7038
7038
7FF8
7038
7038
7038
7038
7038
7038
FCFC
ENDCHAR
STARTCHAR uni021F
ENCODING 543
SWIDTH 685 0
DWIDTH 13 0
BBX 12 19 0 0
BITMAP
C600
7C00
3800
1000
0000
F000
7000
7000
7000
7000
77C0
79E0
70E0
70E0
70E0
70E0
70E0
70E0
F9F0
ENDCHAR
STARTCHAR uni0226
ENCODING 550
SWIDTH 759 0
DWIDTH 14 0
BBX 14 17 0 0
BITMAP
0300
0300
0000
0300
0300
0780
0780
0F80
09C0
09C0
19E0
10E0
3FE0
20F0
6070
4078
E0FC
ENDCHAR
STARTCHAR uni0227
ENCODING 551
SWIDTH 611 0
DWIDTH 11 0
BBX 10 12 0 0
BITMAP
0C00
0C00
0000
7F00
E380
C380
0780
3B80
E380
E380
E780
7BC0
ENDCHAR
STARTCHAR uni0228
ENCODING 552
SWIDTH 759 0
DWIDTH 13 0
BBX 11 18 1 -4
BITMAP
FFE0
70E0
7060
7120
7120
7300
7F00
7300
7100
7120
7020
7060
70E0
FFE0
0800
0E00
0600
1C00
ENDCHAR
STARTCHAR uni0229
ENCODING 553
SWIDTH 574 0
DWIDTH 11 0
BBX 10 13 0 -4
BITMAP
1E00
7380
E1C0
E1C0
FFC0
E000
E040
70C0
1F00
0800
0E00
0600
1C00
ENDCHAR
STARTCHAR uni022A
ENCODING 554
SWIDTH 833 0
DWIDTH 16 0
BBX 15 20 0 0
BITMAP
07E0
07E0
0000
0660
0660
0000
0FE0
3C78
783C
701C
F01E
E00E
E00E
E00E
E00E
F01E
701C
783C
3C78
0FE0
ENDCHAR
STARTCHAR uni022B
ENCODING 555
SWIDTH 611 0
DWIDTH 12 0
BBX 11 15 0 0
BITMAP
1F80
1F80
0000
1980
1980
0000
1F00
71C0
E0E0
E0E0
E0E0
E0E0
E0E0
71C0
1F00
ENDCHAR
STARTCHAR uni022C
ENCODING 556
SWIDTH 833 0
DWIDTH 16 0
BBX 15 21 0 0
BITMAP
07E0
07E0
0000
0310
07E0
08C0
0000
0FE0
3C78
783C
701C
F01E
E00E
E00E
E00E
E00E
F01E
701C
783C
3C78
0FE0
ENDCHAR
STARTCHAR uni022D
ENCODING 557
SWIDTH 611 0
DWIDTH 12 0
BBX 11 16 0 0
BITMAP
3F00
3F00
0000
1880
3F00
4600
0000
1F00
71C0
E0E0
E0E0
E0E0
E0E0
E0E0
71C0
1F00
ENDCHAR
STARTCHAR uni022E
ENCODING 558
SWIDTH 833 0
DWIDTH 16 0
BBX 15 17 0 0
BITMAP
0180
0180
0000
0FE0
3C78
783C
701C
F01E
E00E
E00E
E00E
E00E
F01E
701C
783C
3C78
0FE0
ENDCHAR
STARTCHAR uni022F
ENCODING 559
SWIDTH 611 0
DWIDTH 12 0
BBX 11 12 0 0
BITMAP
0600
0600
0000
1F00
71C0
E0E0
E0E0
E0E0
E0E0
E0E0
71C0
1F00
ENDCHAR
STARTCHAR uni0230
ENCODING 560
SWIDTH 833 0
DWIDTH 16 0
BBX 15 20 0 0
BITMAP
07E0
07E0
0000
0180
0180
0000
0FE0
3C78
783C
701C
F01E
E00E
E00E
E00E
E00E
F01E
701C
783C
3C78
0FE0
ENDCHAR
STARTCHAR uni0231
ENCODING 561
SWIDTH 611 0
DWIDTH 12 0
BBX 11 15 0 0
BITMAP
1F80
1F80
0000
0600
0600
0000
1F00
71C0
E0E0
E0E0
E0E0
E0E0
E0E0
71C0
1F00
ENDCHAR
STARTCHAR uni0232
ENCODING 562
SWIDTH 722 0
DWIDTH 15 0
BBX 13 17 1 0
BITMAP
1F80
1F80
0000
F878
7030
7820
3860
3C40
1CC0
1F80
0F80
0F00
0700
0700
0700
0700
0F80
ENDCHAR
STARTCHAR uni0233
ENCODING 563
SWIDTH 611 0
DWIDTH 12 0
BBX 11 16 0 -4
BITMAP
3F00
3F00
0000
F8E0
7040
7040
3880
3880
1D00
1D00
0E00
0E00
0400
C400
E800
7000
ENDCHAR
STARTCHAR uni0250
ENCODING 592
SWIDTH 611 0
DWIDTH 11 0
BBX 10 9 0 0
BITMAP
F780
79C0
71C0
71C0
7700
7800
70C0
71C0
3F80
ENDCHAR
STARTCHAR uni0254
ENCODING 596
SWIDTH 556 0
DWIDTH 10 0
BBX 9 9 0 0
BITMAP
7C00
E700
C380
0380
0380
0380
8380
C700
3C00
ENDCHAR
STARTCHAR uni0258
ENCODING 600
SWIDTH 574 0
DWIDTH 11 0
BBX 10 9 0 0
BITMAP
1E00
7380
E1C0
E1C0
FFC0
01C0
81C0
C380
3E00
ENDCHAR
STARTCHAR uni0259
ENCODING 601
SWIDTH 574 0
DWIDTH 11 0
BBX 10 9 0 0
BITMAP
3E00
C380
81C0
01C0
FFC0
E1C0
E1C0
7380
1E00
ENDCHAR
STARTCHAR uni025F
ENCODING 607
SWIDTH 389 0
DWIDTH 7 0
BBX 8 14 0 -5
BITMAP
1F
0E
0E
0E
0E
0E
0E
0E
3F
0E
0E
EE
EC
78
ENDCHAR
STARTCHAR uni0265
ENCODING 613
SWIDTH 685 0
DWIDTH 13 0
BBX 12 14 0 -5
BITMAP
F9F0
70E0
70E0
70E0
70E0
70E0
70E0
79E0
3EE0
00E0
00E0
00E0
00E0
00F0
ENDCHAR
STARTCHAR uni0275
ENCODING 629
SWIDTH 611 0
DWIDTH 12 0
BBX 11 9 0 0
BITMAP
1F00
71C0
E0E0
FFE0
FFE0
E0E0
E0E0
71C0
1F00
ENDCHAR
STARTCHAR uni0279
ENCODING 633
SWIDTH 519 0
DWIDTH 9 0
BBX 8 9 0 0
BITMAP
1F
0E
0E
0E
0E
0E
CE
DE
EF
ENDCHAR
STARTCHAR uni0287
ENCODING 647
SWIDTH 426 0
DWIDTH 8 0
BBX 7 13 0 0
BITMAP
78
9C
9C
1C
1C
1C
1C
1C
7E
1C
18
18
10
ENDCHAR
STARTCHAR uni0288
ENCODING 648
SWIDTH 426 0
DWIDTH 8 0
BBX 8 17 0 -4
BITMAP
10
30
30
70
FC
70
70
70
70
70
70
70
70
70
77
37
1E
ENDCHAR
STARTCHAR uni0289
ENCODING 649
SWIDTH 685 0
DWIDTH 13 0
BBX 12 9 0 0
BITMAP
F1E0
70E0
70E0
FFF0
FFF0
70E0
70E0
79E0
3EF0
ENDCHAR
STARTCHAR uni028C
ENCODING 652
SWIDTH 611 0
DWIDTH 9 0
BBX 10 9 -1 0
BITMAP
0C00
0C00
1E00
1E00
2700
2700
4380
4380
E7C0
ENDCHAR
STARTCHAR uni028D
ENCODING 653
SWIDTH 889 0
DWIDTH 15 0
BBX 16 9 -1 0
BITMAP
0C30
0C30
1E78
1E78
279C
279C
438E
438E
E7DF
ENDCHAR
STARTCHAR uni028E
ENCODING 654
SWIDTH 611 0
DWIDTH 12 0
BBX 11 13 0 0
BITMAP
01C0
02E0
0460
0400
0E00
0E00
1700
1700
2380
2380
41C0
41C0
E3E0
ENDCHAR
STARTCHAR uni029E
ENCODING 670
SWIDTH 667 0
DWIDTH 13 0
BBX 12 14 0 -5
BITMAP
FDF0
78E0
3CE0
1EE0
0FE0
06E0
04E0
18E0
7CE0
00E0
00E0
00E0
00E0
00F0
ENDCHAR
STARTCHAR uni02BB
ENCODING 699
SWIDTH 241 0
DWIDTH 5 0
BBX 4 7 0 7
BITMAP
10
20
40
E0
F0
F0
60
ENDCHAR
STARTCHAR afii57929
ENCODING 700
SWIDTH 241 0
DWIDTH 5 0
BBX 4 7 0 7
BITMAP
60
F0
F0
70
20
40
80
ENDCHAR
STARTCHAR afii64937
ENCODING 701
SWIDTH 241 0
DWIDTH 5 0
BBX 4 7 0 7
BITMAP
60
F0
F0
E0
40
20
10
ENDCHAR
STARTCHAR circumflex
ENCODING 710
SWIDTH 333 0
DWIDTH 8 0
BBX 7 4 0 10
BITMAP
10
38
7C
C6
ENDCHAR
STARTCHAR caron
ENCODING 711
SWIDTH 333 0
DWIDTH 10 0
BBX 7 4 1 10
BITMAP
C6
7C
38
10
ENDCHAR
STARTCHAR uni02C8
ENCODING 712
SWIDTH 241 0
DWIDTH 5 0
BBX 2 5 1 9
BITMAP
C0
C0
C0
C0
C0
ENDCHAR
STARTCHAR macron
ENCODING 713
SWIDTH 333 0
DWIDTH 8 0
BBX 6 2 1 10
BITMAP
FC
FC
ENDCHAR
STARTCHAR uni02CA
ENCODING 714
SWIDTH 333 0
DWIDTH 7 0
BBX 5 4 1 10
BITMAP
18
38
70
C0
ENDCHAR
STARTCHAR uni02CB
ENCODING 715
SWIDTH 333 0
DWIDTH 7 0
BBX 5 4 1 10
BITMAP
C0
E0
70
18
ENDCHAR
STARTCHAR uni02CD
ENCODING 717
SWIDTH 333 0
DWIDTH 8 0
BBX 6 2 1 -3
BITMAP
FC
FC
ENDCHAR
STARTCHAR uni02CE
ENCODING 718
SWIDTH 333 0
DWIDTH 7 0
BBX 5 4 1 -5
BITMAP
C0
E0
70
18
ENDCHAR
STARTCHAR uni02CF
ENCODING 719
SWIDTH 333 0
DWIDTH 7 0
BBX 5 4 1 -5
BITMAP
18
38
70
C0
ENDCHAR
STARTCHAR breve
ENCODING 728
SWIDTH 333 0
DWIDTH 8 0
BBX 6 3 1 10
BITMAP
84
CC
78
ENDCHAR
STARTCHAR dotaccent
ENCODING 729
SWIDTH 333 0
DWIDTH 6 0
BBX 2 2 2 10
BITMAP
C0
C0
ENDCHAR
STARTCHAR ring
ENCODING 730
SWIDTH 333 0
DWIDTH 6 0
BBX 4 4 1 10
BITMAP
60
90
90
60
ENDCHAR
STARTCHAR ogonek
ENCODING 731
SWIDTH 333 0
DWIDTH 6 0
BBX 4 4 1 -4
BITMAP
60
C0
D0
60
ENDCHAR
STARTCHAR tilde
ENCODING 732
SWIDTH 333 0
DWIDTH 10 0
BBX 8 3 1 10
BITMAP
31
7E
8C
ENDCHAR
STARTCHAR hungarumlaut
ENCODING 733
SWIDTH 333 0
DWIDTH 9 0
BBX 7 4 1 10
BITMAP
66
66
CC
88
ENDCHAR
STARTCHAR uni02EE
ENCODING 750
SWIDTH 481 0
DWIDTH 10 0
BBX 9 7 0 7
BITMAP
6300
F780
F780
7380
2100
4200
8400
ENDCHAR
STARTCHAR uni037E
ENCODING 894
SWIDTH 278 0
DWIDTH 6 0
BBX 4 12 1 -3
BITMAP
60
F0
F0
60
00
60
F0
F0
70
20
40
80
ENDCHAR
STARTCHAR tonos
ENCODING 900
SWIDTH 333 0
DWIDTH 7 0
BBX 5 4 1 10
BITMAP
18
38
70
C0
ENDCHAR
STARTCHAR dieresistonos
ENCODING 901
SWIDTH 333 0
DWIDTH 10 0
BBX 6 7 2 10
BITMAP
0C
1C
38
60
00
CC
CC
ENDCHAR
STARTCHAR anoteleia
ENCODING 903
SWIDTH 278 0
DWIDTH 5 0
BBX 4 4 0 3
BITMAP
60
F0
F0
60
ENDCHAR
STARTCHAR mu
ENCODING 956
SWIDTH 685 0
DWIDTH 13 0
BBX 12 13 0 -4
BITMAP
F1E0
70E0
70E0
70E0
70E0
70E0
70E0
79E0
7EF0
6000
7000
7000
2000
ENDCHAR
STARTCHAR uni1E00
ENCODING 7680
SWIDTH 759 0
DWIDTH 14 0
BBX 14 19 0 -5
BITMAP
0300
0300
0780
0780
0F80
09C0
09C0
19E0
10E0
3FE0
20F0
6070
4078
E0FC
0000
0180
0240
0240
0180
ENDCHAR
STARTCHAR uni1E01
ENCODING 7681
SWIDTH 611 0
DWIDTH 11 0
BBX 10 14 0 -5
BITMAP
7F00
E380
C380
0780
3B80
E380
E380
E780
7BC0
0000
0C00
1200
1200
0C00
ENDCHAR
STARTCHAR uni1E02
ENCODING 7682
SWIDTH 778 0
DWIDTH 14 0
BBX 12 17 1 0
BITMAP
0600
0600
0000
FFC0
71E0
70E0
70E0
70E0
71C0
7F80
70E0
70F0
7070
7070
7070
70E0
FF80
ENDCHAR
STARTCHAR uni1E03
ENCODING 7683
SWIDTH 648 0
DWIDTH 12 0
BBX 12 17 -1 0
BITMAP
1800
1800
0000
F000
7000
7000
7000
7000
7780
78E0
7070
7070
7070
7070
7070
78E0
6F80
ENDCHAR
STARTCHAR uni1E04
ENCODING 7684
SWIDTH 778 0
DWIDTH 14 0
BBX 12 17 1 -3
BITMAP
FFC0
71E0
70E0
70E0
70E0
71C0
7F80
70E0
70F0
7070
7070
7070
70E0
FF80
0000
0600
0600
ENDCHAR
STARTCHAR uni1E05
ENCODING 7685
SWIDTH 648 0
DWIDTH 12 0
BBX 12 17 -1 -3
BITMAP
F000
7000
7000
7000
7000
7780
78E0
7070
7070
7070
7070
7070
78E0
6F80
0000
0600
0600
ENDCHAR
STARTCHAR uni1E06
ENCODING 7686
SWIDTH 778 0
DWIDTH 14 0
BBX 12 17 1 -3
BITMAP
FFC0
71E0
70E0
70E0
70E0
71C0
7F80
70E0
70F0
7070
7070
7070
70E0
FF80
0000
1F80
1F80
ENDCHAR
STARTCHAR uni1E07
ENCODING 7687
SWIDTH 648 0
DWIDTH 12 0
BBX 12 17 -1 -3
BITMAP
F000
7000
7000
7000
7000
7780
78E0
7070
7070
7070
7070
7070
78E0
6F80
0000
1F80
1F80
ENDCHAR
STARTCHAR uni1E08
ENCODING 7688
SWIDTH 778 0
DWIDTH 14 0
BBX 12 23 1 -4
BITMAP
0180
0380
0700
0C00
0000
0F90
3C70
7830
7030
F010
E010
E000
E000
E000
F010
7010
7820
3C60
0F80
0400
0700
0300
0E00
ENDCHAR
STARTCHAR uni1E09
ENCODING 7689
SWIDTH 556 0
DWIDTH 10 0
BBX 9 18 0 -4
BITMAP
0600
0E00
1C00
3000
0000
1F00
7380
E180
E000
E000
E000
E080
7180
1E00
1000
1C00
0C00
3800
ENDCHAR
STARTCHAR uni1E0A
ENCODING 7690
SWIDTH 833 0
DWIDTH 16 0
BBX 14 17 1 0
BITMAP
0300
0300
0000
FFC0
70F0
7078
7038
703C
701C
701C
701C
701C
703C
7038
7078
70F0
FFC0
ENDCHAR
STARTCHAR uni1E0B
ENCODING 7691
SWIDTH 667 0
DWIDTH 13 0
BBX 12 17 0 0
BITMAP
0180
0180
0000
01E0
00E0
00E0
00E0
00E0
1EE0
71E0
E0E0
E0E0
E0E0
E0E0
E0E0
71E0
1EF0
ENDCHAR
STARTCHAR uni1E0C
ENCODING 7692
SWIDTH 833 0
DWIDTH 16 0
BBX 14 17 1 -3
BITMAP
FFC0
70F0
7078
7038
703C
701C
701C
701C
701C
703C
7038
7078
70F0
FFC0
0000
0300
0300
ENDCHAR
STARTCHAR uni1E0D
ENCODING 7693
SWIDTH 667 0
DWIDTH 13 0
BBX 12 17 0 -3
BITMAP
01E0
00E0
00E0
00E0
00E0
1EE0
71E0
E0E0
E0E0
E0E0
E0E0
E0E0
71E0
1EF0
0000
0600
0600
ENDCHAR
STARTCHAR uni1E0E
ENCODING 7694
SWIDTH 833 0
DWIDTH 16 0
BBX 14 17 1 -3
BITMAP
FFC0
70F0
7078
7038
703C
701C
701C
701C
701C
703C
7038
7078
70F0
FFC0
0000
0FC0
0FC0
ENDCHAR
STARTCHAR uni1E0F
ENCODING 7695
SWIDTH 667 0
DWIDTH 13 0
BBX 12 17 0 -3
BITMAP
01E0
00E0
00E0
00E0
00E0
1EE0
71E0
E0E0
E0E0
E0E0
E0E0
E0E0
71E0
1EF0
0000
1F80
1F80
ENDCHAR
STARTCHAR uni1E10
ENCODING 7696
SWIDTH 833 0
DWIDTH 16 0
BBX 14 18 1 -4
BITMAP
FFC0
70F0
7078
7038
703C
701C
701C
701C
701C
703C
7038
7078
70F0
FFC0
0400
0700
0300
0E00
ENDCHAR
STARTCHAR uni1E11
ENCODING 7697
SWIDTH 667 0
DWIDTH 13 0
BBX 12 18 0 -4
BITMAP
01E0
00E0
00E0
00E0
00E0
1EE0
71E0
E0E0
E0E0
E0E0
E0E0
E0E0
71E0
1EF0
0400
0700
0300
0E00
ENDCHAR
STARTCHAR uni1E12
ENCODING 7698
SWIDTH 833 0
DWIDTH 16 0
BBX 14 19 1 -5
BITMAP
FFC0
70F0
7078
7038
703C
701C
701C
701C
701C
703C
7038
7078
70F0
FFC0
0000
0200
0700
0F80
18C0
ENDCHAR
STARTCHAR uni1E13
ENCODING 7699
SWIDTH 667 0
DWIDTH 13 0
BBX 12 19 0 -5
BITMAP
01E0
00E0
00E0
00E0
00E0
1EE0
71E0
E0E0
E0E0
E0E0
E0E0
E0E0
71E0
1EF0
0000
0200
0700
0F80
18C0
ENDCHAR
STARTCHAR uni1E14
ENCODING 7700
SWIDTH 759 0
DWIDTH 13 0
BBX 11 22 1 0
BITMAP
1800
1C00
0E00
0300
0000
1F80
1F80
0000
FFE0
70E0
7060
7120
7120
7300
7F00
7300
7100
7120
7020
7060
70E0
FFE0
ENDCHAR
STARTCHAR uni1E15
ENCODING 7701
SWIDTH 574 0
DWIDTH 11 0
BBX 10 17 0 0
BITMAP
3000
3800
1C00
0600
0000
3F00
3F00
0000
1E00
7380
E1C0
E1C0
FFC0
E000
E040
70C0
1F00
ENDCHAR
STARTCHAR uni1E16
ENCODING 7702
SWIDTH 759 0
DWIDTH 13 0
BBX 11 22 1 0
BITMAP
0180
0380
0700
0C00
0000
1F80
1F80
0000
FFE0
70E0
7060
7120
7120
7300
7F00
7300
7100
7120
7020
7060
70E0
FFE0
ENDCHAR
STARTCHAR uni1E17
ENCODING 7703
SWIDTH 574 0
DWIDTH 11 0
BBX 10 17 0 0
BITMAP
0300
0700
0E00
1800
0000
3F00
3F00
0000
1E00
7380
E1C0
E1C0
FFC0
E000
E040
70C0
1F00
ENDCHAR
STARTCHAR uni1E18
ENCODING 7704
SWIDTH 759 0
DWIDTH 13 0
BBX 11 19 1 -5
BITMAP
FFE0
70E0
7060
7120
7120
7300
7F00
7300
7100
7120
7020
7060
70E0
FFE0
0000
0400
0E00
1F00
3180
ENDCHAR
STARTCHAR uni1E19
ENCODING 7705
SWIDTH 574 0
DWIDTH 11 0
BBX 10 14 0 -5
BITMAP
1E00
7380
E1C0
E1C0
FFC0
E000
E040
70C0
1F00
0000
0800
1C00
3E00
6300
ENDCHAR
STARTCHAR uni1E1A
ENCODING 7706
SWIDTH 759 0
DWIDTH 13 0
BBX 11 18 1 -4
BITMAP
FFE0
70E0
7060
7120
7120
7300
7F00
7300
7100
7120
7020
7060
70E0
FFE0
0000
1880
3F00
4600
ENDCHAR
STARTCHAR uni1E1B
ENCODING 7707
SWIDTH 574 0
DWIDTH 11 0
BBX 10 13 0 -4
BITMAP
1E00
7380
E1C0
E1C0
FFC0
E000
E040
70C0
1F00
0000
1880
3F00
4600
ENDCHAR
STARTCHAR uni1E1C
ENCODING 7708
SWIDTH 759 0
DWIDTH 13 0
BBX 11 22 1 -4
BITMAP
2100
3300
1E00
0000
FFE0
70E0
7060
7120
7120
7300
7F00
7300
7100
7120
7020
7060
70E0
FFE0
0800
0E00
0600
1C00
ENDCHAR
STARTCHAR uni1E1D
ENCODING 7709
SWIDTH 574 0
DWIDTH 11 0
BBX 10 17 0 -4
BITMAP
2100
3300
1E00
0000
1E00
7380
E1C0
E1C0
FFC0
E000
E040
70C0
1F00
0800
0E00
0600
1C00
ENDCHAR
STARTCHAR uni1E1E
ENCODING 7710
SWIDTH 722 0
DWIDTH 13 0
BBX 11 17 1 0
BITMAP
0600
0600
0000
FFE0
70E0
7060
7120
7120
7320
7F00
7300
7100
7100
7000
7000
7000
F800
ENDCHAR
STARTCHAR uni1E1F
ENCODING 7711
SWIDTH 389 0
DWIDTH 7 0
BBX 8 17 0 0
BITMAP
18
18
00
1E
37
77
70
70
FC
70
70
70
70
70
70
70
F8
ENDCHAR
STARTCHAR uni1E20
ENCODING 7712
SWIDTH 833 0
DWIDTH 15 0
BBX 13 17 1 0
BITMAP
1F80
1F80
0000
0F90
3C70
7830
7030
F010
E010
E000
E000
E0F8
F070
7070
7870
3CF0
0F90
ENDCHAR
STARTCHAR uni1E21
ENCODING 7713
SWIDTH 611 0
DWIDTH 11 0
BBX 11 18 0 -4
BITMAP
1F80
1F80
0000
0060
00E0
3F00
7380
6180
6180
7380
3F00
6000
7F80
3FC0
C1C0
C0C0
E180
7F00
ENDCHAR
STARTCHAR uni1E22
ENCODING 7714
SWIDTH 870 0
DWIDTH 16 0
BBX 14 17 1 0
BITMAP
0300
0300
0000
FCFC
7038
7038
7038
7038
7038
7FF8
7038
7038
7038
7038
7038
7038
FCFC
ENDCHAR
STARTCHAR uni1E23
ENCODING 7715
SWIDTH 685 0
DWIDTH 13 0
BBX 12 17 0 0
BITMAP
1800
1800
0000
F000
7000
7000
7000
7000
77C0
79E0
70E0
70E0
70E0
70E0
70E0
70E0
F9F0
ENDCHAR
STARTCHAR uni1E24
ENCODING 7716
SWIDTH 870 0
DWIDTH 16 0
BBX 14 17 1 -3
BITMAP
FCFC
7038
7038
7038
7038
7038
7FF8
7038
7038
7038
7038
7038
7038
FCFC
0000
0300
0300
ENDCHAR
STARTCHAR uni1E25
ENCODING 7717
SWIDTH 685 0
DWIDTH 13 0
BBX 12 17 0 -3
BITMAP
F000
7000
7000
7000
7000
77C0
79E0
70E0
70E0
70E0
70E0
70E0
70E0
F9F0
0000
0600
0600
ENDCHAR
STARTCHAR uni1E26
ENCODING 7718
SWIDTH 870 0
DWIDTH 16 0
BBX 14 17 1 0
BITMAP
0CC0
0CC0
0000
FCFC
7038
7038
7038
7038
7038
7FF8
7038
7038
7038
7038
7038
7038
FCFC
ENDCHAR
STARTCHAR uni1E27
ENCODING 7719
SWIDTH 685 0
DWIDTH 13 0
BBX 12 17 0 0
BITMAP
6600
6600
0000
F000
7000
7000
7000
7000
77C0
79E0
70E0
70E0
70E0
70E0
70E0
70E0
F9F0
ENDCHAR
STARTCHAR uni1E28
ENCODING 7720
SWIDTH 870 0
DWIDTH 16 0
BBX 14 18 1 -4
BITMAP
FCFC
7038
7038
7038
7038
7038
7FF8
7038
7038
7038
7038
7038
7038
FCFC
0200
0380
0180
0700
ENDCHAR
STARTCHAR uni1E29
ENCODING 7721
SWIDTH 685 0
DWIDTH 13 0
BBX 12 18 0 -4
BITMAP
F000
7000
7000
7000
7000
77C0
79E0
70E0
70E0
70E0
70E0
70E0
70E0
F9F0
0400
0700
0300
0E00
ENDCHAR
STARTCHAR uni1E2A
ENCODING 7722
SWIDTH 870 0
DWIDTH 16 0
BBX 14 18 1 -4
BITMAP
FCFC
7038
7038
7038
7038
7038
7FF8
7038
7038
7038
7038
7038
7038
FCFC
0000
0840
0CC0
0780
ENDCHAR
STARTCHAR uni1E2B
ENCODING 7723
SWIDTH 685 0
DWIDTH 13 0
BBX 12 18 0 -4
BITMAP
F000
7000
7000
7000
7000
77C0
79E0
70E0
70E0
70E0
70E0
70E0
70E0
F9F0
0000
1080
1980
0F00
ENDCHAR
STARTCHAR uni1E2C
ENCODING 7724
SWIDTH 444 0
DWIDTH 9 0
BBX 8 18 0 -4
BITMAP
3E
1C
1C
1C
1C
1C
1C
1C
1C
1C
1C
1C
1C
3E
00
31
7E
8C
ENDCHAR
STARTCHAR uni1E2D
ENCODING 7725
SWIDTH 370 0
DWIDTH 6 0
BBX 8 18 -2 -4
BITMAP
1C
1C
1C
00
00
3C
1C
1C
1C
1C
1C
1C
1C
3E
00
31
7E
8C
ENDCHAR
STARTCHAR uni1E2E
ENCODING 7726
SWIDTH 444 0
DWIDTH 9 0
BBX 6 22 2 0
BITMAP
0C
1C
38
60
00
CC
CC
00
F8
70
70
70
70
70
70
70
70
70
70
70
70
F8
ENDCHAR
STARTCHAR uni1E2F
ENCODING 7727
SWIDTH 370 0
DWIDTH 6 0
BBX 6 17 0 0
BITMAP
0C
1C
38
60
00
CC
CC
00
F0
70
70
70
70
70
70
70
F8
ENDCHAR
STARTCHAR uni1E30
ENCODING 7728
SWIDTH 815 0
DWIDTH 16 0
BBX 15 19 1 0
BITMAP
0180
0380
0700
0C00
0000
FC7C
7030
7060
70C0
7180
7300
7780
7FC0
7BC0
71E0
70F0
70F8
707C
FCFE
ENDCHAR
STARTCHAR uni1E31
ENCODING 7729
SWIDTH 667 0
DWIDTH 13 0
BBX 12 19 0 0
BITMAP
0C00
1C00
3800
6000
0000
F000
7000
7000
7000
7000
73E0
7180
7200
7600
7F00
7780
73C0
71E0
FBF0
ENDCHAR
STARTCHAR uni1E32
ENCODING 7730
SWIDTH 815 0
DWIDTH 16 0
BBX 15 17 1 -3
BITMAP
FC7C
7030
7060
70C0
7180
7300
7780
7FC0
7BC0
71E0
70F0
70F8
707C
FCFE
0000
0180
0180
ENDCHAR
STARTCHAR uni1E33
ENCODING 7731
SWIDTH 667 0
DWIDTH 13 0
BBX 12 17 0 -3
BITMAP
F000
7000
7000
7000
7000
73E0
7180
7200
7600
7F00
7780
73C0
71E0
FBF0
0000
0600
0600
ENDCHAR
STARTCHAR uni1E34
ENCODING 7732
SWIDTH 815 0
DWIDTH 16 0
BBX 15 17 1 -3
BITMAP
FC7C
7030
7060
70C0
7180
7300
7780
7FC0
7BC0
71E0
70F0
70F8
707C
FCFE
0000
07E0
07E0
ENDCHAR
STARTCHAR uni1E35
ENCODING 7733
SWIDTH 667 0
DWIDTH 13 0
BBX 12 17 0 -3
BITMAP
F000
7000
7000
7000
7000
73E0
7180
7200
7600
7F00
7780
73C0
71E0
FBF0
0000
1F80
1F80
ENDCHAR
STARTCHAR uni1E36
ENCODING 7734
SWIDTH 722 0
DWIDTH 12 0
BBX 11 17 1 -3
BITMAP
FC00
7000
7000
7000
7000
7000
7000
7000
7000
7020
7020
7060
70E0
FFE0
0000
0C00
0C00
ENDCHAR
STARTCHAR uni1E37
ENCODING 7735
SWIDTH 352 0
DWIDTH 6 0
BBX 5 17 0 -3
BITMAP
F0
70
70
70
70
70
70
70
70
70
70
70
70
F8
00
30
30
ENDCHAR
STARTCHAR uni1E38
ENCODING 7736
SWIDTH 722 0
DWIDTH 12 0
BBX 11 20 1 -3
BITMAP
7E00
7E00
0000
FC00
7000
7000
7000
7000
7000
7000
7000
7000
7020
7020
7060
70E0
FFE0
0000
0C00
0C00
ENDCHAR
STARTCHAR uni1E39
ENCODING 7737
SWIDTH 352 0
DWIDTH 6 0
BBX 6 20 -1 -3
BITMAP
FC
FC
00
78
38
38
38
38
38
38
38
38
38
38
38
38
7C
00
18
18
ENDCHAR
STARTCHAR uni1E3A
ENCODING 7738
SWIDTH 722 0
DWIDTH 12 0
BBX 11 17 1 -3
BITMAP
FC00
7000
7000
7000
7000
7000
7000
7000
7000
7020
7020
7060
70E0
FFE0
0000
3F00
3F00
ENDCHAR
STARTCHAR uni1E3B
ENCODING 7739
SWIDTH 352 0
DWIDTH 6 0
BBX 6 17 0 -3
BITMAP
F0
70
70
70
70
70
70
70
70
70
70
70
70
F8
00
FC
FC
ENDCHAR
STARTCHAR uni1E3C
ENCODING 7740
SWIDTH 722 0
DWIDTH 12 0
BBX 11 19 1 -5
BITMAP
FC00
7000
7000
7000
7000
7000
7000
7000
7000
7020
7020
7060
70E0
FFE0
0000
0400
0E00
1F00
3180
ENDCHAR
STARTCHAR uni1E3D
ENCODING 7741
SWIDTH 352 0
DWIDTH 6 0
BBX 7 19 -1 -5
BITMAP
78
38
38
38
38
38
38
38
38
38
38
38
38
7C
00
10
38
7C
C6
ENDCHAR
STARTCHAR uni1E3E
ENCODING 7742
SWIDTH 981 0
DWIDTH 19 0
BBX 17 19 1 0
BITMAP
003000
007000
00E000
018000
000000
7C0780
3C0F00
3E0F00
2E1F00
2F1700
2F1700
273700
27A700
23E700
23C700
23C700
21C700
718700
F88F80
ENDCHAR
STARTCHAR uni1E3F
ENCODING 7743
SWIDTH 963 0
DWIDTH 20 0
BBX 19 14 0 0
BITMAP
003000
007000
00E000
018000
000000
F7DF80
79F3C0
70E1C0
70E1C0
70E1C0
70E1C0
70E1C0
70E1C0
F9F3E0
ENDCHAR
STARTCHAR uni1E40
ENCODING 7744
SWIDTH 981 0
DWIDTH 19 0
BBX 17 17 1 0
BITMAP
00C000
00C000
000000
7C0780
3C0F00
3E0F00
2E1F00
2F1700
2F1700
273700
27A700
23E700
23C700
23C700
21C700
718700
F88F80
ENDCHAR
STARTCHAR uni1E41
ENCODING 7745
SWIDTH 963 0
DWIDTH 20 0
BBX 19 12 0 0
BITMAP
00C000
00C000
000000
F7DF80
79F3C0
70E1C0
70E1C0
70E1C0
70E1C0
70E1C0
70E1C0
F9F3E0
ENDCHAR
STARTCHAR uni1E42
ENCODING 7746
SWIDTH 981 0
DWIDTH 19 0
BBX 17 17 1 -3
BITMAP
7C0780
3C0F00
3E0F00
2E1F00
2F1700
2F1700
273700
27A700
23E700
23C700
23C700
21C700
718700
F88F80
000000
00C000
00C000
ENDCHAR
STARTCHAR uni1E43
ENCODING 7747
SWIDTH 963 0
DWIDTH 20 0
BBX 19 12 0 -3
BITMAP
F7DF80
79F3C0
70E1C0
70E1C0
70E1C0
70E1C0
70E1C0
70E1C0
F9F3E0
000000
006000
006000
ENDCHAR
STARTCHAR uni1E44
ENCODING 7748
SWIDTH 833 0
DWIDTH 16 0
BBX 15 17 1 0
BITMAP
0300
0300
0000
F83E
7C1C
3C08
3E08
2F08
2788
2388
21C8
21E8
20E8
2078
2078
7038
F818
ENDCHAR
STARTCHAR uni1E45
ENCODING 7749
SWIDTH 685 0
DWIDTH 13 0
BBX 12 12 0 0
BITMAP
0600
0600
0000
F7C0
79E0
70E0
70E0
70E0
70E0
70E0
70E0
F9F0
ENDCHAR
STARTCHAR uni1E46
ENCODING 7750
SWIDTH 833 0
DWIDTH 16 0
BBX 15 17 1 -3
BITMAP
F83E
7C1C
3C08
3E08
2F08
2788
2388
21C8
21E8
20E8
2078
2078
7038
F818
0000
0300
0300
ENDCHAR
STARTCHAR uni1E47
ENCODING 7751
SWIDTH 685 0
DWIDTH 13 0
BBX 12 12 0 -3
BITMAP
F7C0
79E0
70E0
70E0
70E0
70E0
70E0
70E0
F9F0
0000
0600
0600
ENDCHAR
STARTCHAR uni1E48
ENCODING 7752
SWIDTH 833 0
DWIDTH 16 0
BBX 15 17 1 -3
BITMAP
F83E
7C1C
3C08
3E08
2F08
2788
2388
21C8
21E8
20E8
2078
2078
7038
F818
0000
0FC0
0FC0
ENDCHAR
STARTCHAR uni1E49
ENCODING 7753
SWIDTH 685 0
DWIDTH 13 0
BBX 12 12 0 -3
BITMAP
F7C0
79E0
70E0
70E0
70E0
70E0
70E0
70E0
F9F0
0000
1F80
1F80
ENDCHAR
STARTCHAR uni1E4A
ENCODING 7754
SWIDTH 833 0
DWIDTH 16 0
BBX 15 19 1 -5
BITMAP
F83E
7C1C
3C08
3E08
2F08
2788
2388
21C8
21E8
20E8
2078
2078
7038
F818
0000
0100
0380
07C0
0C60
ENDCHAR
STARTCHAR uni1E4B
ENCODING 7755
SWIDTH 685 0
DWIDTH 13 0
BBX 12 14 0 -5
BITMAP
F7C0
79E0
70E0
70E0
70E0
70E0
70E0
70E0
F9F0
0000
0200
0700
0F80
18C0
ENDCHAR
STARTCHAR uni1E4C
ENCODING 7756
SWIDTH 833 0
DWIDTH 16 0
BBX 15 23 0 0
BITMAP
0060
00E0
01C0
0300
0000
0310
07E0
08C0
0000
0FE0
3C78
783C
701C
F01E
E00E
E00E
E00E
E00E
F01E
701C
783C
3C78
0FE0
ENDCHAR
STARTCHAR uni1E4D
ENCODING 7757
SWIDTH 611 0
DWIDTH 12 0
BBX 11 18 0 0
BITMAP
0300
0700
0E00
1800
0000
1880
3F00
4600
0000
1F00
71C0
E0E0
E0E0
E0E0
E0E0
E0E0
71C0
1F00
ENDCHAR
STARTCHAR uni1E4E
ENCODING 7758
SWIDTH 833 0
DWIDTH 16 0
BBX 15 21 0 0
BITMAP
0660
0660
0000
0310
07E0
08C0
0000
0FE0
3C78
783C
701C
F01E
E00E
E00E
E00E
E00E
F01E
701C
783C
3C78
0FE0
ENDCHAR
STARTCHAR uni1E4F
ENCODING 7759
SWIDTH 611 0
DWIDTH 12 0
BBX 11 16 0 0
BITMAP
3300
3300
0000
1880
3F00
4600
0000
1F00
71C0
E0E0
E0E0
E0E0
E0E0
E0E0
71C0
1F00
ENDCHAR
STARTCHAR uni1E50
ENCODING 7760
SWIDTH 833 0
DWIDTH 16 0
BBX 15 22 0 0
BITMAP
0600
0700
0380
00C0
0000
07E0
07E0
0000
0FE0
3C78
783C
701C
F01E
E00E
E00E
E00E
E00E
F01E
701C
783C
3C78
0FE0
ENDCHAR
STARTCHAR uni1E51
ENCODING 7761
SWIDTH 611 0
DWIDTH 12 0
BBX 11 17 0 0
BITMAP
1800
1C00
0E00
0300
0000
1F80
1F80
0000
1F00
71C0
E0E0
E0E0
E0E0
E0E0
E0E0
71C0
1F00
ENDCHAR
STARTCHAR uni1E52
ENCODING 7762
SWIDTH 833 0
DWIDTH 16 0
BBX 15 22 0 0
BITMAP
0060
00E0
01C0
0300
0000
07E0
07E0
0000
0FE0
3C78
783C
701C
F01E
E00E
E00E
E00E
E00E
F01E
701C
783C
3C78
0FE0
ENDCHAR
STARTCHAR uni1E53
ENCODING 7763
SWIDTH 611 0
DWIDTH 12 0
BBX 11 17 0 0
BITMAP
0180
0380
0700
0C00
0000
1F80
1F80
0000
1F00
71C0
E0E0
E0E0
E0E0
E0E0
E0E0
71C0
1F00
ENDCHAR
STARTCHAR uni1E54
ENCODING 7764
SWIDTH 759 0
DWIDTH 14 0
BBX 12 19 1 0
BITMAP
0180
0380
0700
0C00
0000
FFE0
70F0
7070
7070
7070
70F0
71E0
7F80
7000
7000
7000
7000
7000
FC00
ENDCHAR
STARTCHAR uni1E55
ENCODING 7765
SWIDTH 667 0
DWIDTH 12 0
BBX 12 18 -1 -4
BITMAP
0180
0380
0700
0C00
0000
E780
78E0
7070
7070
7070
7070
7070
78E0
7780
7000
7000
7000
F800
ENDCHAR
STARTCHAR uni1E56
ENCODING 7766
SWIDTH 759 0
DWIDTH 14 0
BBX 12 17 1 0
BITMAP
0600
0600
0000
FFE0
70F0
7070
7070
7070
70F0
71E0
7F80
7000
7000
7000
7000
7000
FC00
ENDCHAR
STARTCHAR uni1E57
ENCODING 7767
SWIDTH 667 0
DWIDTH 12 0
BBX 12 16 -1 -4
BITMAP
0600
0600
0000
E780
78E0
7070
7070
7070
7070
7070
78E0
7780
7000
7000
7000
F800
ENDCHAR
STARTCHAR uni1E58
ENCODING 7768
SWIDTH 815 0
DWIDTH 16 0
BBX 14 17 1 0
BITMAP
0600
0600
0000
FFE0
70F0
7070
7070
70F0
71E0
7F80
71C0
71E0
70E0
70E0
70F0
7074
F878
ENDCHAR
STARTCHAR uni1E59
ENCODING 7769
SWIDTH 519 0
DWIDTH 9 0
BBX 8 12 0 0
BITMAP
18
18
00
F7
7B
73
70
70
70
70
70
F8
ENDCHAR
STARTCHAR uni1E5A
ENCODING 7770
SWIDTH 815 0
DWIDTH 16 0
BBX 14 17 1 -3
BITMAP
FFE0
70F0
7070
7070
70F0
71E0
7F80
71C0
71E0
70E0
70E0
70F0
7074
F878
0000
0300
0300
ENDCHAR
STARTCHAR uni1E5B
ENCODING 7771
SWIDTH 519 0
DWIDTH 9 0
BBX 8 12 0 -3
BITMAP
F7
7B
73
70
70
70
70
70
F8
00
30
30
ENDCHAR
STARTCHAR uni1E5C
ENCODING 7772
SWIDTH 815 0
DWIDTH 16 0
BBX 14 20 1 -3
BITMAP
0FC0
0FC0
0000
FFE0
70F0
7070
7070
70F0
71E0
7F80
71C0
71E0
70E0
70E0
70F0
7074
F878
0000
0300
0300
ENDCHAR
STARTCHAR uni1E5D
ENCODING 7773
SWIDTH 519 0
DWIDTH 9 0
BBX 8 15 0 -3
BITMAP
7E
7E
00
F7
7B
73
70
70
70
70
70
F8
00
30
30
ENDCHAR
STARTCHAR uni1E5E
ENCODING 7774
SWIDTH 815 0
DWIDTH 16 0
BBX 14 17 1 -3
BITMAP
FFE0
70F0
7070
7070
70F0
71E0
7F80
71C0
71E0
70E0
70E0
70F0
7074
F878
0000
0FC0
0FC0
ENDCHAR
STARTCHAR uni1E5F
ENCODING 7775
SWIDTH 519 0
DWIDTH 9 0
BBX 8 12 0 -3
BITMAP
F7
7B
73
70
70
70
70
70
F8
00
FC
FC
ENDCHAR
STARTCHAR uni1E60
ENCODING 7776
SWIDTH 667 0
DWIDTH 12 0
BBX 11 17 0 0
BITMAP
0C00
0C00
0000
3F40
61C0
C0C0
C040
E000
FE00
7FC0
7FE0
0FE0
80E0
8060
C060
E0C0
BF80
ENDCHAR
STARTCHAR uni1E61
ENCODING 7777
SWIDTH 500 0
DWIDTH 10 0
BBX 9 12 0 0
BITMAP
1800
1800
0000
3D00
6300
E100
FC00
7F00
0F80
8380
C300
BE00
ENDCHAR
STARTCHAR uni1E62
ENCODING 7778
SWIDTH 667 0
DWIDTH 12 0
BBX 11 17 0 -3
BITMAP
3F40
61C0
C0C0
C040
E000
FE00
7FC0
7FE0
0FE0
80E0
8060
C060
E0C0
BF80
0000
0C00
0C00
ENDCHAR
STARTCHAR uni1E63
ENCODING 7779
SWIDTH 500 0
DWIDTH 10 0
BBX 9 12 0 -3
BITMAP
3D00
6300
E100
FC00
7F00
0F80
8380
C300
BE00
0000
1800
1800
ENDCHAR
STARTCHAR uni1E64
ENCODING 7780
SWIDTH 667 0
DWIDTH 12 0
BBX 11 22 0 0
BITMAP
0600
0600
0000
0300
0700
0E00
1800
0000
3F40
61C0
C0C0
C040
E000
FE00
7FC0
7FE0
0FE0
80E0
8060
C060
E0C0
BF80
ENDCHAR
STARTCHAR uni1E65
ENCODING 7781
SWIDTH 500 0
DWIDTH 10 0
BBX 9 17 0 0
BITMAP
0C00
0C00
0000
0600
0E00
1C00
3000
0000
3D00
6300
E100
FC00
7F00
0F80
8380
C300
BE00
ENDCHAR
STARTCHAR uni1E66
ENCODING 7782
SWIDTH 667 0
DWIDTH 12 0
BBX 10 17 0 0
BITMAP
0C00
0C00
0000
6180
3300
1E00
0C00
0000
3F80
7180
7880
7E00
3F00
0F80
83C0
C780
BF00
ENDCHAR
STARTCHAR uni1E67
ENCODING 7783
SWIDTH 500 0
DWIDTH 10 0
BBX 9 17 0 0
BITMAP
1800
1800
0000
C300
6600
3C00
1800
0000
3D00
6300
E100
FC00
7F00
0F80
8380
C300
BE00
ENDCHAR
STARTCHAR uni1E68
ENCODING 7784
SWIDTH 667 0
DWIDTH 12 0
BBX 11 20 0 -3
BITMAP
0C00
0C00
0000
3F40
61C0
C0C0
C040
E000
FE00
7FC0
7FE0
0FE0
80E0
8060
C060
E0C0
BF80
0000
0C00
0C00
ENDCHAR
STARTCHAR uni1E69
ENCODING 7785
SWIDTH 500 0
DWIDTH 10 0
BBX 9 15 0 -3
BITMAP
1800
1800
0000
3D00
6300
E100
FC00
7F00
0F80
8380
C300
BE00
0000
1800
1800
ENDCHAR
STARTCHAR uni1E6A
ENCODING 7786
SWIDTH 722 0
DWIDTH 13 0
BBX 11 17 1 0
BITMAP
0600
0600
0000
FFE0
CE60
CE60
8E20
8E20
0E00
0E00
0E00
0E00
0E00
0E00
0E00
0E00
1F00
ENDCHAR
STARTCHAR uni1E6B
ENCODING 7787
SWIDTH 426 0
DWIDTH 8 0
BBX 7 16 0 0
BITMAP
30
30
00
10
30
30
70
FC
70
70
70
70
70
72
72
3C
ENDCHAR
STARTCHAR uni1E6C
ENCODING 7788
SWIDTH 722 0
DWIDTH 13 0
BBX 11 17 1 -3
BITMAP
FFE0
CE60
CE60
8E20
8E20
0E00
0E00
0E00
0E00
0E00
0E00
0E00
0E00
1F00
0000
0600
0600
ENDCHAR
STARTCHAR uni1E6D
ENCODING 7789
SWIDTH 426 0
DWIDTH 8 0
BBX 7 16 0 -3
BITMAP
10
30
30
70
FC
70
70
70
70
70
72
72
3C
00
30
30
ENDCHAR
STARTCHAR uni1E6E
ENCODING 7790
SWIDTH 722 0
DWIDTH 13 0
BBX 11 17 1 -3
BITMAP
FFE0
CE60
CE60
8E20
8E20
0E00
0E00
0E00
0E00
0E00
0E00
0E00
0E00
1F00
0000
1F80
1F80
ENDCHAR
STARTCHAR uni1E6F
ENCODING 7791
SWIDTH 426 0
DWIDTH 8 0
BBX 7 16 0 -3
BITMAP
10
30
30
70
FC
70
70
70
70
70
72
72
3C
00
FC
FC
ENDCHAR
STARTCHAR uni1E70
ENCODING 7792
SWIDTH 722 0
DWIDTH 13 0
BBX 11 19 1 -5
BITMAP
FFE0
CE60
CE60
8E20
8E20
0E00
0E00
0E00
0E00
0E00
0E00
0E00
0E00
1F00
0000
0400
0E00
1F00
3180
ENDCHAR
STARTCHAR uni1E71
ENCODING 7793
SWIDTH 426 0
DWIDTH 8 0
BBX 7 18 0 -5
BITMAP
10
30
30
70
FC
70
70
70
70
70
72
72
3C
00
10
38
7C
C6
ENDCHAR
STARTCHAR uni1E72
ENCODING 7794
SWIDTH 833 0
DWIDTH 16 0
BBX 14 17 1 -3
BITMAP
F87C
7038
7010
7010
7010
7010
7010
7010
7010
7010
7010
7010
3820
1FC0
0000
1980
1980
ENDCHAR
STARTCHAR uni1E73
ENCODING 7795
SWIDTH 685 0
DWIDTH 13 0
BBX 12 12 0 -3
BITMAP
F1E0
70E0
70E0
70E0
70E0
70E0
70E0
79E0
3EF0
0000
1980
1980
ENDCHAR
STARTCHAR uni1E74
ENCODING 7796
SWIDTH 833 0
DWIDTH 16 0
BBX 14 18 1 -4
BITMAP
F87C
7038
7010
7010
7010
7010
7010
7010
7010
7010
7010
7010
3820
1FC0
0000
0C40
1F80
2300
ENDCHAR
STARTCHAR uni1E75
ENCODING 7797
SWIDTH 685 0
DWIDTH 13 0
BBX 12 13 0 -4
BITMAP
F1E0
70E0
70E0
70E0
70E0
70E0
70E0
79E0
3EF0
0000
0C40
1F80
2300
ENDCHAR
STARTCHAR uni1E76
ENCODING 7798
SWIDTH 833 0
DWIDTH 16 0
BBX 14 19 1 -5
BITMAP
F87C
7038
7010
7010
7010
7010
7010
7010
7010
7010
7010
7010
3820
1FC0
0000
0200
0700
0F80
18C0
ENDCHAR
STARTCHAR uni1E77
ENCODING 7799
SWIDTH 685 0
DWIDTH 13 0
BBX 12 14 0 -5
BITMAP
F1E0
70E0
70E0
70E0
70E0
70E0
70E0
79E0
3EF0
0000
0200
0700
0F80
18C0
ENDCHAR
STARTCHAR uni1E78
ENCODING 7800
SWIDTH 833 0
DWIDTH 16 0
BBX 14 23 1 0
BITMAP
00C0
01C0
0380
0600
0000
0620
0FC0
1180
0000
F87C
7038
7010
7010
7010
7010
7010
7010
7010
7010
7010
7010
3820
1FC0
ENDCHAR
STARTCHAR uni1E79
ENCODING 7801
SWIDTH 685 0
DWIDTH 13 0
BBX 12 18 0 0
BITMAP
0180
0380
0700
0C00
0000
0C40
1F80
2300
0000
F1E0
70E0
70E0
70E0
70E0
70E0
70E0
79E0
3EF0
ENDCHAR
STARTCHAR uni1E7A
ENCODING 7802
SWIDTH 833 0
DWIDTH 16 0
BBX 14 20 1 0
BITMAP
0CC0
0CC0
0000
0FC0
0FC0
0000
F87C
7038
7010
7010
7010
7010
7010
7010
7010
7010
7010
7010
3820
1FC0
ENDCHAR
STARTCHAR uni1E7B
ENCODING 7803
SWIDTH 685 0
DWIDTH 13 0
BBX 12 15 0 0
BITMAP
1980
1980
0000
1F80
1F80
0000
F1E0
70E0
70E0
70E0
70E0
70E0
70E0
79E0
3EF0
ENDCHAR
STARTCHAR uni1E7C
ENCODING 7804
SWIDTH 759 0
DWIDTH 14 0
BBX 14 18 0 0
BITMAP
0620
0FC0
1180
0000
F87C
7038
7830
3820
3820
3C60
1C40
1E40
0EC0
0E80
0780
0780
0300
0300
ENDCHAR
STARTCHAR uni1E7D
ENCODING 7805
SWIDTH 611 0
DWIDTH 9 0
BBX 10 13 -1 0
BITMAP
1880
3F00
4600
0000
F9C0
7080
7080
3900
3900
1E00
1E00
0C00
0C00
ENDCHAR
STARTCHAR uni1E7E
ENCODING 7806
SWIDTH 759 0
DWIDTH 14 0
BBX 14 17 0 -3
BITMAP
F87C
7038
7830
3820
3820
3C60
1C40
1E40
0EC0
0E80
0780
0780
0300
0300
0000
0300
0300
ENDCHAR
STARTCHAR uni1E7F
ENCODING 7807
SWIDTH 611 0
DWIDTH 9 0
BBX 10 12 -1 -3
BITMAP
F9C0
7080
7080
3900
3900
1E00
1E00
0C00
0C00
0000
0C00
0C00
ENDCHAR
STARTCHAR Wgrave
ENCODING 7808
SWIDTH 981 0
DWIDTH 19 0
BBX 19 19 0 0
BITMAP
030000
038000
01C000
006000
000000
FBF3E0
71E1C0
70E180
78E100
38F100
39F300
3D7200
1D3A00
1F3E00
1E3C00
0E1C00
0E1C00
0C1800
040800
ENDCHAR
STARTCHAR wgrave
ENCODING 7809
SWIDTH 889 0
DWIDTH 15 0
BBX 16 14 -1 0
BITMAP
0600
0700
0380
00C0
0000
FBE7
71C2
71C2
39E4
39E4
1E78
1E78
0C30
0C30
ENDCHAR
STARTCHAR Wacute
ENCODING 7810
SWIDTH 981 0
DWIDTH 19 0
BBX 19 19 0 0
BITMAP
003000
007000
00E000
018000
000000
FBF3E0
71E1C0
70E180
78E100
38F100
39F300
3D7200
1D3A00
1F3E00
1E3C00
0E1C00
0E1C00
0C1800
040800
ENDCHAR
STARTCHAR wacute
ENCODING 7811
SWIDTH 889 0
DWIDTH 15 0
BBX 16 14 -1 0
BITMAP
00C0
01C0
0380
0600
0000
FBE7
71C2
71C2
39E4
39E4
1E78
1E78
0C30
0C30
ENDCHAR
STARTCHAR Wdieresis
ENCODING 7812
SWIDTH 981 0
DWIDTH 19 0
BBX 19 17 0 0
BITMAP
033000
033000
000000
FBF3E0
71E1C0
70E180
78E100
38F100
39F300
3D7200
1D3A00
1F3E00
1E3C00
0E1C00
0E1C00
0C1800
040800
ENDCHAR
STARTCHAR wdieresis
ENCODING 7813
SWIDTH 889 0
DWIDTH 15 0
BBX 16 12 -1 0
BITMAP
0CC0
0CC0
0000
FBE7
71C2
71C2
39E4
39E4
1E78
1E78
0C30
0C30
ENDCHAR
STARTCHAR uni1E86
ENCODING 7814
SWIDTH 981 0
DWIDTH 19 0
BBX 19 17 0 0
BITMAP
00C000
00C000
000000
FBF3E0
71E1C0
70E180
78E100
38F100
39F300
3D7200
1D3A00
1F3E00
1E3C00
0E1C00
0E1C00
0C1800
040800
ENDCHAR
STARTCHAR uni1E87
ENCODING 7815
SWIDTH 889 0
DWIDTH 15 0
BBX 16 12 -1 0
BITMAP
0300
0300
0000
FBE7
71C2
71C2
39E4
39E4
1E78
1E78
0C30
0C30
ENDCHAR
STARTCHAR uni1E88
ENCODING 7816
SWIDTH 981 0
DWIDTH 19 0
BBX 19 17 0 -3
BITMAP
FBF3E0
71E1C0
70E180
78E100
38F100
39F300
3D7200
1D3A00
1F3E00
1E3C00
0E1C00
0E1C00
0C1800
040800
000000
00C000
00C000
ENDCHAR
STARTCHAR uni1E89
ENCODING 7817
SWIDTH 889 0
DWIDTH 15 0
BBX 16 12 -1 -3
BITMAP
FBE7
71C2
71C2
39E4
39E4
1E78
1E78
0C30
0C30
0000
0180
0180
ENDCHAR
STARTCHAR uni1E8A
ENCODING 7818
SWIDTH 722 0
DWIDTH 17 0
BBX 16 17 0 0
BITMAP
0180
0180
0000
7E3F
3C1C
1E18
0E30
0F60
07C0
03C0
03E0
06F0
0C70
1878
303C
703E
F87F
ENDCHAR
STARTCHAR uni1E8B
ENCODING 7819
SWIDTH 611 0
DWIDTH 12 0
BBX 11 12 0 0
BITMAP
0C00
0C00
0000
FCE0
78C0
3D00
1E00
0E00
0F00
1780
63C0
E7E0
ENDCHAR
STARTCHAR uni1E8C
ENCODING 7820
SWIDTH 722 0
DWIDTH 17 0
BBX 16 17 0 0
BITMAP
0660
0660
0000
7E3F
3C1C
1E18
0E30
0F60
07C0
03C0
03E0
06F0
0C70
1878
303C
703E
F87F
ENDCHAR
STARTCHAR uni1E8D
ENCODING 7821
SWIDTH 611 0
DWIDTH 12 0
BBX 11 12 0 0
BITMAP
3300
3300
0000
FCE0
78C0
3D00
1E00
0E00
0F00
1780
63C0
E7E0
ENDCHAR
STARTCHAR uni1E8E
ENCODING 7822
SWIDTH 722 0
DWIDTH 15 0
BBX 13 17 1 0
BITMAP
0600
0600
0000
F878
7030
7820
3860
3C40
1CC0
1F80
0F80
0F00
0700
0700
0700
0700
0F80
ENDCHAR
STARTCHAR uni1E8F
ENCODING 7823
SWIDTH 611 0
DWIDTH 12 0
BBX 11 16 0 -4
BITMAP
0C00
0C00
0000
F8E0
7040
7040
3880
3880
1D00
1D00
0E00
0E00
0400
C400
E800
7000
ENDCHAR
STARTCHAR uni1E90
ENCODING 7824
SWIDTH 667 0
DWIDTH 13 0
BBX 11 19 1 0
BITMAP
0400
0E00
1F00
3180
0000
FFE0
E1E0
C1C0
83C0
8780
0700
0F00
1E00
1C00
3C20
7820
7060
F0E0
FFE0
ENDCHAR
STARTCHAR uni1E91
ENCODING 7825
SWIDTH 537 0
DWIDTH 10 0
BBX 8 14 0 0
BITMAP
08
1C
3E
63
00
FF
CF
8E
1C
38
39
71
F3
FF
ENDCHAR
STARTCHAR uni1E92
ENCODING 7826
SWIDTH 667 0
DWIDTH 13 0
BBX 11 17 1 -3
BITMAP
FFE0
E1E0
C1C0
83C0
8780
0700
0F00
1E00
1C00
3C20
7820
7060
F0E0
FFE0
0000
0C00
0C00
ENDCHAR
STARTCHAR uni1E93
ENCODING 7827
SWIDTH 537 0
DWIDTH 10 0
BBX 8 12 0 -3
BITMAP
FF
CF
8E
1C
38
39
71
F3
FF
00
18
18
ENDCHAR
STARTCHAR uni1E94
ENCODING 7828
SWIDTH 667 0
DWIDTH 13 0
BBX 11 17 1 -3
BITMAP
FFE0
E1E0
C1C0
83C0
8780
0700
0F00
1E00
1C00
3C20
7820
7060
F0E0
FFE0
0000
3F00
3F00
ENDCHAR
STARTCHAR uni1E95
ENCODING 7829
SWIDTH 537 0
DWIDTH 10 0
BBX 8 12 0 -3
BITMAP
FF
CF
8E
1C
38
39
71
F3
FF
00
7E
7E
ENDCHAR
STARTCHAR uni1E96
ENCODING 7830
SWIDTH 685 0
DWIDTH 13 0
BBX 12 17 0 -3
BITMAP
F000
7000
7000
7000
7000
77C0
79E0
70E0
70E0
70E0
70E0
70E0
70E0
F9F0
0000
1F80
1F80
ENDCHAR
STARTCHAR uni1E97
ENCODING 7831
SWIDTH 426 0
DWIDTH 8 0
BBX 7 16 0 0
BITMAP
CC
CC
00
10
30
30
70
FC
70
70
70
70
70
72
72
3C
ENDCHAR
STARTCHAR uni1E98
ENCODING 7832
SWIDTH 889 0
DWIDTH 15 0
BBX 16 14 -1 0
BITMAP
0300
0480
0480
0300
0000
FBE7
71C2
71C2
39E4
39E4
1E78
1E78
0C30
0C30
ENDCHAR
STARTCHAR uni1E99
ENCODING 7833
SWIDTH 611 0
DWIDTH 12 0
BBX 11 18 0 -4
BITMAP
0C00
1200
1200
0C00
0000
F8E0
7040
7040
3880
3880
1D00
1D00
0E00
0E00
0400
C400
E800
7000
ENDCHAR
STARTCHAR uni1EA0
ENCODING 7840
SWIDTH 759 0
DWIDTH 14 0
BBX 14 17 0 -3
BITMAP
0300
0300
0780
0780
0F80
09C0
09C0
19E0
10E0
3FE0
20F0
6070
4078
E0FC
0000
0180
0180
ENDCHAR
STARTCHAR uni1EA1
ENCODING 7841
SWIDTH 611 0
DWIDTH 11 0
BBX 10 12 0 -3
BITMAP
7F00
E380
C380
0780
3B80
E380
E380
E780
7BC0
0000
0C00
0C00
ENDCHAR
STARTCHAR uni1EA4
ENCODING 7844
SWIDTH 759 0
DWIDTH 14 0
BBX 14 23 0 0
BITMAP
00C0
01C0
0380
0600
0000
0380
07C0
0C60
0000
0300
0300
0780
0780
0F80
09C0
09C0
19E0
10E0
3FE0
20F0
6070
4078
E0FC
ENDCHAR
STARTCHAR uni1EA5
ENCODING 7845
SWIDTH 611 0
DWIDTH 11 0
BBX 10 18 0 0
BITMAP
0300
0700
0E00
1800
0000
1C00
3E00
6300
0000
7F00
E380
C380
0780
3B80
E380
E380
E780
7BC0
ENDCHAR
STARTCHAR uni1EA6
ENCODING 7846
SWIDTH 759 0
DWIDTH 14 0
BBX 14 23 0 0
BITMAP
0C00
0E00
0700
0180
0000
0380
07C0
0C60
0000
0300
0300
0780
0780
0F80
09C0
09C0
19E0
10E0
3FE0
20F0
6070
4078
E0FC
ENDCHAR
STARTCHAR uni1EA7
ENCODING 7847
SWIDTH 611 0
DWIDTH 11 0
BBX 10 18 0 0
BITMAP
3000
3800
1C00
0600
0000
1C00
3E00
6300
0000
7F00
E380
C380
0780
3B80
E380
E380
E780
7BC0
ENDCHAR
STARTCHAR uni1EAA
ENCODING 7850
SWIDTH 759 0
DWIDTH 14 0
BBX 14 22 0 0
BITMAP
0310
07E0
08C0
0000
0380
07C0
0C60
0000
0300
0300
0780
0780
0F80
09C0
09C0
19E0
10E0
3FE0
20F0
6070
4078
E0FC
ENDCHAR
STARTCHAR uni1EAB
ENCODING 7851
SWIDTH 611 0
DWIDTH 11 0
BBX 10 17 0 0
BITMAP
1880
3F00
4600
0000
1C00
3E00
6300
0000
7F00
E380
C380
0780
3B80
E380
E380
E780
7BC0
ENDCHAR
STARTCHAR uni1EAC
ENCODING 7852
SWIDTH 759 0
DWIDTH 14 0
BBX 14 22 0 -3
BITMAP
0200
0700
0F80
18C0
0000
0300
0300
0780
0780
0F80
09C0
09C0
19E0
10E0
3FE0
20F0
6070
4078
E0FC
0000
0180
0180
ENDCHAR
STARTCHAR uni1EAD
ENCODING 7853
SWIDTH 611 0
DWIDTH 11 0
BBX 10 17 0 -3
BITMAP
0400
0E00
1F00
3180
0000
7F00
E380
C380
0780
3B80
E380
E380
E780
7BC0
0000
0C00
0C00
ENDCHAR
STARTCHAR uni1EAE
ENCODING 7854
SWIDTH 759 0
DWIDTH 14 0
BBX 14 23 0 0
BITMAP
00C0
01C0
0380
0600
0000
0840
0CC0
0780
0000
0300
0300
0780
0780
0F80
09C0
09C0
19E0
10E0
3FE0
20F0
6070
4078
E0FC
ENDCHAR
STARTCHAR uni1EAF
ENCODING 7855
SWIDTH 611 0
DWIDTH 11 0
BBX 10 18 0 0
BITMAP
0300
0700
0E00
1800
0000
2100
3300
1E00
0000
7F00
E380
C380
0780
3B80
E380
E380
E780
7BC0
ENDCHAR
STARTCHAR uni1EB0
ENCODING 7856
SWIDTH 759 0
DWIDTH 14 0
BBX 14 23 0 0
BITMAP
0C00
0E00
0700
0180
0000
0840
0CC0
0780
0000
0300
0300
0780
0780
0F80
09C0
09C0
19E0
10E0
3FE0
20F0
6070
4078
E0FC
ENDCHAR
STARTCHAR uni1EB1
ENCODING 7857
SWIDTH 611 0
DWIDTH 11 0
BBX 10 18 0 0
BITMAP
3000
3800
1C00
0600
0000
2100
3300
1E00
0000
7F00
E380
C380
0780
3B80
E380
E380
E780
7BC0
ENDCHAR
STARTCHAR uni1EB4
ENCODING 7860
SWIDTH 759 0
DWIDTH 14 0
BBX 14 22 0 0
BITMAP
0620
0FC0
1180
0000
0840
0CC0
0780
0000
0300
0300
0780
0780
0F80
09C0
09C0
19E0
10E0
3FE0
20F0
6070
4078
E0FC
ENDCHAR
STARTCHAR uni1EB5
ENCODING 7861
SWIDTH 611 0
DWIDTH 11 0
BBX 10 17 0 0
BITMAP
1880
3F00
4600
0000
2100
3300
1E00
0000
7F00
E380
C380
0780
3B80
E380
E380
E780
7BC0
ENDCHAR
STARTCHAR uni1EB6
ENCODING 7862
SWIDTH 759 0
DWIDTH 14 0
BBX 14 21 0 -3
BITMAP
0840
0CC0
0780
0000
0300
0300
0780
0780
0F80
09C0
09C0
19E0
10E0
3FE0
20F0
6070
4078
E0FC
0000
0180
0180
ENDCHAR
STARTCHAR uni1EB7
ENCODING 7863
SWIDTH 611 0
DWIDTH 11 0
BBX 10 16 0 -3
BITMAP
2100
3300
1E00
0000
7F00
E380
C380
0780
3B80
E380
E380
E780
7BC0
0000
0C00
0C00
ENDCHAR
STARTCHAR uni1EB8
ENCODING 7864
SWIDTH 759 0
DWIDTH 13 0
BBX 11 17 1 -3
BITMAP
FFE0
70E0
7060
7120
7120
7300
7F00
7300
7100
7120
7020
7060
70E0
FFE0
0000
0C00
0C00
ENDCHAR
STARTCHAR uni1EB9
ENCODING 7865
SWIDTH 574 0
DWIDTH 11 0
BBX 10 12 0 -3
BITMAP
1E00
7380
E1C0
E1C0
FFC0
E000
E040
70C0
1F00
0000
0C00
0C00
ENDCHAR
STARTCHAR uni1EBC
ENCODING 7868
SWIDTH 759 0
DWIDTH 13 0
BBX 11 18 1 0
BITMAP
0C40
1F80
2300
0000
FFE0
70E0
7060
7120
7120
7300
7F00
7300
7100
7120
7020
7060
70E0
FFE0
ENDCHAR
STARTCHAR uni1EBD
ENCODING 7869
SWIDTH 574 0
DWIDTH 11 0
BBX 10 13 0 0
BITMAP
1880
3F00
4600
0000
1E00
7380
E1C0
E1C0
FFC0
E000
E040
70C0
1F00
ENDCHAR
STARTCHAR uni1EBE
ENCODING 7870
SWIDTH 759 0
DWIDTH 13 0
BBX 11 23 1 0
BITMAP
0300
0700
0E00
1800
0000
0E00
1F00
3180
0000
FFE0
70E0
7060
7120
7120
7300
7F00
7300
7100
7120
7020
7060
70E0
FFE0
ENDCHAR
STARTCHAR uni1EBF
ENCODING 7871
SWIDTH 574 0
DWIDTH 11 0
BBX 10 18 0 0
BITMAP
0300
0700
0E00
1800
0000
0E00
1F00
3180
0000
1E00
7380
E1C0
E1C0
FFC0
E000
E040
70C0
1F00
ENDCHAR
STARTCHAR uni1EC0
ENCODING 7872
SWIDTH 759 0
DWIDTH 13 0
BBX 11 23 1 0
BITMAP
1800
1C00
0E00
0300
0000
0E00
1F00
3180
0000
FFE0
70E0
7060
7120
7120
7300
7F00
7300
7100
7120
7020
7060
70E0
FFE0
ENDCHAR
STARTCHAR uni1EC1
ENCODING 7873
SWIDTH 574 0
DWIDTH 11 0
BBX 10 18 0 0
BITMAP
3000
3800
1C00
0600
0000
0E00
1F00
3180
0000
1E00
7380
E1C0
E1C0
FFC0
E000
E040
70C0
1F00
ENDCHAR
STARTCHAR uni1EC4
ENCODING 7876
SWIDTH 759 0
DWIDTH 13 0
BBX 11 22 1 0
BITMAP
0C40
1F80
2300
0000
0E00
1F00
3180
0000
FFE0
70E0
7060
7120
7120
7300
7F00
7300
7100
7120
7020
7060
70E0
FFE0
ENDCHAR
STARTCHAR uni1EC5
ENCODING 7877
SWIDTH 574 0
DWIDTH 11 0
BBX 10 17 0 0
BITMAP
0C40
1F80
2300
0000
0E00
1F00
3180
0000
1E00
7380
E1C0
E1C0
FFC0
E000
E040
70C0
1F00
ENDCHAR
STARTCHAR uni1EC6
ENCODING 7878
SWIDTH 759 0
DWIDTH 13 0
BBX 11 22 1 -3
BITMAP
0400
0E00
1F00
3180
0000
FFE0
70E0
7060
7120
7120
7300
7F00
7300
7100
7120
7020
7060
70E0
FFE0
0000
0C00
0C00
ENDCHAR
STARTCHAR uni1EC7
ENCODING 7879
SWIDTH 574 0
DWIDTH 11 0
BBX 10 17 0 -3
BITMAP
0400
0E00
1F00
3180
0000
1E00
7380
E1C0
E1C0
FFC0
E000
E040
70C0
1F00
0000
0C00
0C00
ENDCHAR
STARTCHAR uni1ECA
ENCODING 7882
SWIDTH 444 0
DWIDTH 9 0
BBX 5 17 2 -3
BITMAP
F8
70
70
70
70
70
70
70
70
70
70
70
70
F8
00
30
30
ENDCHAR
STARTCHAR uni1ECB
ENCODING 7883
SWIDTH 370 0
DWIDTH 6 0
BBX 5 17 0 -3
BITMAP
70
70
70
00
00
F0
70
70
70
70
70
70
70
F8
00
30
30
ENDCHAR
STARTCHAR uni1ECC
ENCODING 7884
SWIDTH 833 0
DWIDTH 16 0
BBX 15 17 0 -3
BITMAP
0FE0
3C78
783C
701C
F01E
E00E
E00E
E00E
E00E
F01E
701C
783C
3C78
0FE0
0000
0180
0180
ENDCHAR
STARTCHAR uni1ECD
ENCODING 7885
SWIDTH 611 0
DWIDTH 12 0
BBX 11 12 0 -3
BITMAP
1F00
71C0
E0E0
E0E0
E0E0
E0E0
E0E0
71C0
1F00
0000
0600
0600
ENDCHAR
STARTCHAR uni1ED0
ENCODING 7888
SWIDTH 833 0
DWIDTH 16 0
BBX 15 23 0 0
BITMAP
00C0
01C0
0380
0600
0000
0380
07C0
0C60
0000
0FE0
3C78
783C
701C
F01E
E00E
E00E
E00E
E00E
F01E
701C
783C
3C78
0FE0
ENDCHAR
STARTCHAR uni1ED1
ENCODING 7889
SWIDTH 611 0
DWIDTH 12 0
BBX 11 18 0 0
BITMAP
0300
0700
0E00
1800
0000
0E00
1F00
3180
0000
1F00
71C0
E0E0
E0E0
E0E0
E0E0
E0E0
71C0
1F00
ENDCHAR
STARTCHAR uni1ED2
ENCODING 7890
SWIDTH 833 0
DWIDTH 16 0
BBX 15 23 0 0
BITMAP
0600
0700
0380
00C0
0000
0380
07C0
0C60
0000
0FE0
3C78
783C
701C
F01E
E00E
E00E
E00E
E00E
F01E
701C
783C
3C78
0FE0
ENDCHAR
STARTCHAR uni1ED3
ENCODING 7891
SWIDTH 611 0
DWIDTH 12 0
BBX 11 18 0 0
BITMAP
1800
1C00
0E00
0300
0000
0E00
1F00
3180
0000
1F00
71C0
E0E0
E0E0
E0E0
E0E0
E0E0
71C0
1F00
ENDCHAR
STARTCHAR uni1ED6
ENCODING 7894
SWIDTH 833 0
DWIDTH 16 0
BBX 15 22 0 0
BITMAP
0310
07E0
08C0
0000
0380
07C0
0C60
0000
0FE0
3C78
783C
701C
F01E
E00E
E00E
E00E
E00E
F01E
701C
783C
3C78
0FE0
ENDCHAR
STARTCHAR uni1ED7
ENCODING 7895
SWIDTH 611 0
DWIDTH 12 0
BBX 11 17 0 0
BITMAP
0C40
1F80
2300
0000
0E00
1F00
3180
0000
1F00
71C0
E0E0
E0E0
E0E0
E0E0
E0E0
71C0
1F00
ENDCHAR
STARTCHAR uni1ED8
ENCODING 7896
SWIDTH 833 0
DWIDTH 16 0
BBX 15 22 0 -3
BITMAP
0100
0380
07C0
0C60
0000
0FE0
3C78
783C
701C
F01E
E00E
E00E
E00E
E00E
F01E
701C
783C
3C78
0FE0
0000
0180
0180
ENDCHAR
STARTCHAR uni1ED9
ENCODING 7897
SWIDTH 611 0
DWIDTH 12 0
BBX 11 17 0 -3
BITMAP
0400
0E00
1F00
3180
0000
1F00
71C0
E0E0
E0E0
E0E0
E0E0
E0E0
71C0
1F00
0000
0600
0600
ENDCHAR
STARTCHAR uni1EDA
ENCODING 7898
SWIDTH 833 0
DWIDTH 16 0
BBX 18 19 0 0
BITMAP
001800
003800
007000
00C000
000000
0FE180
3C7BC0
783FC0
701DC0
F01E80
E00F00
E00E00
E00E00
E00E00
F01E00
701C00
783C00
3C7800
0FE000
ENDCHAR
STARTCHAR uni1EDB
ENCODING 7899
SWIDTH 611 0
DWIDTH 12 0
BBX 14 14 0 0
BITMAP
00C0
01C0
0380
0600
0000
1F18
71FC
E0FC
E0FC
E0E8
E0F0
E0E0
71C0
1F00
ENDCHAR
STARTCHAR uni1EDC
ENCODING 7900
SWIDTH 833 0
DWIDTH 16 0
BBX 18 19 0 0
BITMAP
018000
01C000
00E000
003000
000000
0FE180
3C7BC0
783FC0
701DC0
F01E80
E00F00
E00E00
E00E00
E00E00
F01E00
701C00
783C00
3C7800
0FE000
ENDCHAR
STARTCHAR uni1EDD
ENCODING 7901
SWIDTH 611 0
DWIDTH 12 0
BBX 14 14 0 0
BITMAP
0600
0700
0380
00C0
0000
1F18
71FC
E0FC
E0FC
E0E8
E0F0
E0E0
71C0
1F00
ENDCHAR
STARTCHAR uni1EE0
ENCODING 7904
SWIDTH 833 0
DWIDTH 16 0
BBX 18 18 0 0
BITMAP
00C400
01F800
023000
000000
0FE180
3C7BC0
783FC0
701DC0
F01E80
E00F00
E00E00
E00E00
E00E00
F01E00
701C00
783C00
3C7800
0FE000
ENDCHAR
STARTCHAR uni1EE1
ENCODING 7905
SWIDTH 611 0
DWIDTH 12 0
BBX 14 13 0 0
BITMAP
0310
07E0
08C0
0000
1F18
71FC
E0FC
E0FC
E0E8
E0F0
E0E0
71C0
1F00
ENDCHAR
STARTCHAR uni1EE2
ENCODING 7906
SWIDTH 833 0
DWIDTH 16 0
BBX 18 17 0 -3
BITMAP
0FE180
3C7BC0
783FC0
701DC0
F01E80
E00F00
E00E00
E00E00
E00E00
F01E00
701C00
783C00
3C7800
0FE000
000000
018000
018000
ENDCHAR
STARTCHAR uni1EE3
ENCODING 7907
SWIDTH 611 0
DWIDTH 12 0
BBX 14 12 0 -3
BITMAP
1F18
71FC
E0FC
E0FC
E0E8
E0F0
E0E0
71C0
1F00
0000
0600
0600
ENDCHAR
STARTCHAR uni1EE4
ENCODING 7908
SWIDTH 833 0
DWIDTH 16 0
BBX 14 17 1 -3
BITMAP
F87C
7038
7010
7010
7010
7010
7010
7010
7010
7010
7010
7010
3820
1FC0
0000
0600
0600
ENDCHAR
STARTCHAR uni1EE5
ENCODING 7909
SWIDTH 685 0
DWIDTH 13 0
BBX 12 12 0 -3
BITMAP
F1E0
70E0
70E0
70E0
70E0
70E0
70E0
79E0
3EF0
0000
0600
0600
ENDCHAR
STARTCHAR uni1EE8
ENCODING 7912
SWIDTH 833 0
DWIDTH 16 0
BBX 17 19 1 0
BITMAP
003000
007000
00E000
018000
000000
F87F00
703F80
701780
701380
701100
701200
701400
701000
701000
701000
701000
701000
382000
1FC000
ENDCHAR
STARTCHAR uni1EE9
ENCODING 7913
SWIDTH 685 0
DWIDTH 13 0
BBX 15 14 0 0
BITMAP
0060
00E0
01C0
0300
0000
F1EC
70FE
70FE
70EE
70E4
70E8
70F0
79E0
3EF0
ENDCHAR
STARTCHAR uni1EEA
ENCODING 7914
SWIDTH 833 0
DWIDTH 16 0
BBX 17 19 1 0
BITMAP
030000
038000
01C000
006000
000000
F87F00
703F80
701780
701380
701100
701200
701400
701000
701000
701000
701000
701000
382000
1FC000
ENDCHAR
STARTCHAR uni1EEB
ENCODING 7915
SWIDTH 685 0
DWIDTH 13 0
BBX 15 14 0 0
BITMAP
0600
0700
0380
00C0
0000
F1EC
70FE
70FE
70EE
70E4
70E8
70F0
79E0
3EF0
ENDCHAR
STARTCHAR uni1EEE
ENCODING 7918
SWIDTH 833 0
DWIDTH 16 0
BBX 17 18 1 0
BITMAP
018800
03F000
046000
000000
F87F00
703F80
701780
701380
701100
701200
701400
701000
701000
701000
701000
701000
382000
1FC000
ENDCHAR
STARTCHAR uni1EEF
ENCODING 7919
SWIDTH 685 0
DWIDTH 13 0
BBX 15 13 0 0
BITMAP
0310
07E0
08C0
0000
F1EC
70FE
70FE
70EE
70E4
70E8
70F0
79E0
3EF0
ENDCHAR
STARTCHAR uni1EF0
ENCODING 7920
SWIDTH 833 0
DWIDTH 16 0
BBX 17 17 1 -3
BITMAP
F87F00
703F80
701780
701380
701100
701200
701400
701000
701000
701000
701000
701000
382000
1FC000
000000
030000
030000
ENDCHAR
STARTCHAR uni1EF1
ENCODING 7921
SWIDTH 685 0
DWIDTH 13 0
BBX 15 12 0 -3
BITMAP
F1EC
70FE
70FE
70EE
70E4
70E8
70F0
79E0
3EF0
0000
0300
0300
ENDCHAR
STARTCHAR Ygrave
ENCODING 7922
SWIDTH 722 0
DWIDTH 15 0
BBX 13 19 1 0
BITMAP
1800
1C00
0E00
0300
0000
F878
7030
7820
3860
3C40
1CC0
1F80
0F80
0F00
0700
0700
0700
0700
0F80
ENDCHAR
STARTCHAR ygrave
ENCODING 7923
SWIDTH 611 0
DWIDTH 12 0
BBX 11 18 0 -4
BITMAP
3000
3800
1C00
0600
0000
F8E0
7040
7040
3880
3880
1D00
1D00
0E00
0E00
0400
C400
E800
7000
ENDCHAR
STARTCHAR uni1EF4
ENCODING 7924
SWIDTH 722 0
DWIDTH 15 0
BBX 13 17 1 -3
BITMAP
F878
7030
7820
3860
3C40
1CC0
1F80
0F80
0F00
0700
0700
0700
0700
0F80
0000
0300
0300
ENDCHAR
STARTCHAR uni1EF5
ENCODING 7925
SWIDTH 611 0
DWIDTH 12 0
BBX 11 16 0 -7
BITMAP
F8E0
7040
7040
3880
3880
1D00
1D00
0E00
0E00
0400
C400
E800
7000
0000
1800
1800
ENDCHAR
STARTCHAR uni1EF8
ENCODING 7928
SWIDTH 722 0
DWIDTH 15 0
BBX 13 18 1 0
BITMAP
0C40
1F80
2300
0000
F878
7030
7820
3860
3C40
1CC0
1F80
0F80
0F00
0700
0700
0700
0700
0F80
ENDCHAR
STARTCHAR uni1EF9
ENCODING 7929
SWIDTH 611 0
DWIDTH 12 0
BBX 11 17 0 -4
BITMAP
1880
3F00
4600
0000
F8E0
7040
7040
3880
3880
1D00
1D00
0E00
0E00
0400
C400
E800
7000
ENDCHAR
STARTCHAR uni2000
ENCODING 8192
SWIDTH 500 0
DWIDTH 9 0
BBX 1 1 0 0
BITMAP
00
ENDCHAR
STARTCHAR uni2001
ENCODING 8193
SWIDTH 1000 0
DWIDTH 19 0
BBX 1 1 0 0
BITMAP
00
ENDCHAR
STARTCHAR uni2002
ENCODING 8194
SWIDTH 500 0
DWIDTH 9 0
BBX 1 1 0 0
BITMAP
00
ENDCHAR
STARTCHAR uni2003
ENCODING 8195
SWIDTH 1000 0
DWIDTH 19 0
BBX 1 1 0 0
BITMAP
00
ENDCHAR
STARTCHAR uni2004
ENCODING 8196
SWIDTH 333 0
DWIDTH 6 0
BBX 1 1 0 0
BITMAP
00
ENDCHAR
STARTCHAR uni2005
ENCODING 8197
SWIDTH 250 0
DWIDTH 5 0
BBX 1 1 0 0
BITMAP
00
ENDCHAR
STARTCHAR uni2006
ENCODING 8198
SWIDTH 167 0
DWIDTH 3 0
BBX 1 1 0 0
BITMAP
00
ENDCHAR
STARTCHAR uni2007
ENCODING 8199
SWIDTH 574 0
DWIDTH 11 0
BBX 1 1 0 0
BITMAP
00
ENDCHAR
STARTCHAR uni2008
ENCODING 8200
SWIDTH 278 0
DWIDTH 5 0
BBX 1 1 0 0
BITMAP
00
ENDCHAR
STARTCHAR uni2009
ENCODING 8201
SWIDTH 200 0
DWIDTH 4 0
BBX 1 1 0 0
BITMAP
00
ENDCHAR
STARTCHAR uni200A
ENCODING 8202
SWIDTH 100 0
DWIDTH 2 0
BBX 1 1 0 0
BITMAP
00
ENDCHAR
STARTCHAR uni200B
ENCODING 8203
SWIDTH 0 0
DWIDTH 0 0
BBX 1 1 0 0
BITMAP
00
ENDCHAR
STARTCHAR uni2010
ENCODING 8208
SWIDTH 333 0
DWIDTH 6 0
BBX 5 2 0 4
BITMAP
F8
F8
ENDCHAR
STARTCHAR uni2011
ENCODING 8209
SWIDTH 333 0
DWIDTH 6 0
BBX 5 2 0 4
BITMAP
F8
F8
ENDCHAR
STARTCHAR figuredash
ENCODING 8210
SWIDTH 500 0
DWIDTH 9 0
BBX 9 2 0 4
BITMAP
FF80
FF80
ENDCHAR
STARTCHAR endash
ENCODING 8211
SWIDTH 500 0
DWIDTH 9 0
BBX 9 2 0 4
BITMAP
FF80
FF80
ENDCHAR
STARTCHAR emdash
ENCODING 8212
SWIDTH 1000 0
DWIDTH 18 0
BBX 18 2 0 4
BITMAP
FFFFC0
FFFFC0
ENDCHAR
STARTCHAR afii00208
ENCODING 8213
SWIDTH 1000 0
DWIDTH 18 0
BBX 18 2 0 4
BITMAP
FFFFC0
FFFFC0
ENDCHAR
STARTCHAR quoteleft
ENCODING 8216
SWIDTH 241 0
DWIDTH 5 0
BBX 4 7 0 7
BITMAP
10
20
40
E0
F0
F0
60
ENDCHAR
STARTCHAR quoteright
ENCODING 8217
SWIDTH 241 0
DWIDTH 5 0
BBX 4 7 0 7
BITMAP
60
F0
F0
70
20
40
80
ENDCHAR
STARTCHAR quotesinglbase
ENCODING 8218
SWIDTH 241 0
DWIDTH 6 0
BBX 4 7 1 -3
BITMAP
60
F0
F0
70
20
40
80
ENDCHAR
STARTCHAR quotereversed
ENCODING 8219
SWIDTH 241 0
DWIDTH 5 0
BBX 4 7 0 7
BITMAP
60
F0
F0
E0
40
20
10
ENDCHAR
STARTCHAR quotedblleft
ENCODING 8220
SWIDTH 481 0
DWIDTH 10 0
BBX 9 7 0 7
BITMAP
1080
2100
4200
E700
F780
F780
6300
ENDCHAR
STARTCHAR quotedblright
ENCODING 8221
SWIDTH 481 0
DWIDTH 10 0
BBX 9 7 0 7
BITMAP
6300
F780
F780
7380
2100
4200
8400
ENDCHAR
STARTCHAR quotedblbase
ENCODING 8222
SWIDTH 481 0
DWIDTH 11 0
BBX 9 7 1 -3
BITMAP
6300
F780
F780
7380
2100
4200
8400
ENDCHAR
STARTCHAR uni201F
ENCODING 8223
SWIDTH 481 0
DWIDTH 10 0
BBX 9 7 0 7
BITMAP
6300
F780
F780
E700
4200
2100
1080
ENDCHAR
STARTCHAR dagger
ENCODING 8224
SWIDTH 500 0
DWIDTH 10 0
BBX 9 16 0 -2
BITMAP
1C00
1C00
0800
C980
FF80
C980
0800
1C00
1C00
0800
0800
0800
0800
0800
0800
0800
ENDCHAR
STARTCHAR daggerdbl
ENCODING 8225
SWIDTH 500 0
DWIDTH 10 0
BBX 9 16 0 -2
BITMAP
1C00
1C00
0800
C980
FF80
C980
0800
1C00
1C00
0800
C980
FF80
C980
0800
1C00
1C00
ENDCHAR
STARTCHAR bullet
ENCODING 8226
SWIDTH 606 0
DWIDTH 11 0
BBX 6 6 2 4
BITMAP
78
FC
FC
FC
FC
78
ENDCHAR
STARTCHAR ellipsis
ENCODING 8230
SWIDTH 1000 0
DWIDTH 18 0
BBX 16 4 1 0
BITMAP
6186
F3CF
F3CF
6186
ENDCHAR
STARTCHAR perthousand
ENCODING 8240
SWIDTH 1000 0
DWIDTH 22 0
BBX 21 15 0 -1
BITMAP
38C000
674000
C4C000
C48000
C58000
C90000
730000
023870
0664C8
04C588
0CC588
08C588
18C990
1070E0
100000
ENDCHAR
STARTCHAR guilsinglleft
ENCODING 8249
SWIDTH 333 0
DWIDTH 5 0
BBX 4 5 0 3
BITMAP
30
60
C0
60
30
ENDCHAR
STARTCHAR guilsinglright
ENCODING 8250
SWIDTH 333 0
DWIDTH 5 0
BBX 4 5 0 3
BITMAP
C0
60
30
60
C0
ENDCHAR
STARTCHAR fraction
ENCODING 8260
SWIDTH 167 0
DWIDTH 3 0
BBX 8 14 -3 0
BITMAP
03
03
06
06
0C
0C
18
18
30
30
60
60
C0
C0
ENDCHAR
STARTCHAR oneinferior
ENCODING 8321
SWIDTH 344 0
DWIDTH 6 0
BBX 6 8 0 -4
BITMAP
30
F0
30
30
30
30
30
FC
ENDCHAR
STARTCHAR twoinferior
ENCODING 8322
SWIDTH 344 0
DWIDTH 6 0
BBX 6 8 0 -4
BITMAP
78
CC
CC
18
30
60
C4
FC
ENDCHAR
STARTCHAR threeinferior
ENCODING 8323
SWIDTH 344 0
DWIDTH 6 0
BBX 6 8 0 -4
BITMAP
78
CC
0C
38
0C
CC
CC
78
ENDCHAR
STARTCHAR uni20A5
ENCODING 8357
SWIDTH 963 0
DWIDTH 20 0
BBX 19 14 0 -2
BITMAP
001800
001800
001800
F7FF80
79F3C0
70F1C0
70E1C0
70E1C0
70E1C0
70E1C0
70E1C0
F9F3E0
018000
018000
ENDCHAR
STARTCHAR uni20A6
ENCODING 8358
SWIDTH 833 0
DWIDTH 16 0
BBX 15 14 1 0
BITMAP
F83E
7C1C
3C08
3E08
3FF8
3FF8
2388
21C8
3FF8
3FF8
2078
2078
7038
F818
ENDCHAR
STARTCHAR uni20A9
ENCODING 8361
SWIDTH 981 0
DWIDTH 19 0
BBX 19 14 0 0
BITMAP
FBF3E0
71E1C0
70E180
78E100
3FFD00
3FFF00
3D7200
1D3A00
1FFE00
1FFC00
0E1C00
0E1C00
0C1800
040800
ENDCHAR
STARTCHAR Euro
ENCODING 8364
SWIDTH 778 0
DWIDTH 14 0
BBX 14 14 -1 0
BITMAP
03E4
0F1C
1E0C
1C0C
FF84
FF84
3800
3800
FF80
FF84
1C04
1E08
0F18
03E0
ENDCHAR
STARTCHAR uni20AD
ENCODING 8365
SWIDTH 815 0
DWIDTH 16 0
BBX 15 14 1 0
BITMAP
FC7C
7030
7060
70C0
7180
7300
FFFE
FFFE
7BC0
71E0
70F0
70F8
707C
FCFE
ENDCHAR
STARTCHAR uni2103
ENCODING 8451
SWIDTH 1158 0
DWIDTH 21 0
BBX 20 14 0 0
BITMAP
780F90
CC3C70
847830
847030
CCF010
78E010
00E000
00E000
00E000
00F010
007010
007820
003C60
000F80
ENDCHAR
STARTCHAR uni2109
ENCODING 8457
SWIDTH 1102 0
DWIDTH 20 0
BBX 19 14 0 0
BITMAP
78FFE0
CC70E0
847060
847120
CC7120
787320
007F00
007300
007100
007100
007000
007000
007000
00F800
ENDCHAR
STARTCHAR trademark
ENCODING 8482
SWIDTH 1000 0
DWIDTH 20 0
BBX 19 8 0 6
BITMAP
FFF1E0
9971C0
185AC0
185AC0
185AC0
184CC0
184CC0
3CEDE0
ENDCHAR
STARTCHAR uni212A
ENCODING 8490
SWIDTH 815 0
DWIDTH 16 0
BBX 15 14 1 0
BITMAP
FC7C
7030
7060
70C0
7180
7300
7780
7FC0
7BC0
71E0
70F0
70F8
707C
FCFE
ENDCHAR
STARTCHAR uni212B
ENCODING 8491
SWIDTH 759 0
DWIDTH 14 0
BBX 14 18 0 0
BITMAP
0300
0480
0480
0300
0300
0300
0780
0780
0F80
09C0
09C0
19E0
10E0
3FE0
20F0
6070
4078
E0FC
ENDCHAR
STARTCHAR uni2132
ENCODING 8498
SWIDTH 722 0
DWIDTH 13 0
BBX 11 14 1 0
BITMAP
03E0
01C0
01C0
01C0
11C0
11C0
19C0
1FC0
99C0
91C0
91C0
C1C0
E1C0
FFE0
ENDCHAR
STARTCHAR universal
ENCODING 8704
SWIDTH 759 0
DWIDTH 14 0
BBX 14 14 0 0
BITMAP
E0FC
4078
6070
20F0
3FE0
10E0
19E0
09C0
09C0
0F80
0780
0780
0300
0300
ENDCHAR
STARTCHAR existential
ENCODING 8707
SWIDTH 759 0
DWIDTH 13 0
BBX 11 14 1 0
BITMAP
FFE0
E1C0
C1C0
91C0
91C0
19C0
1FC0
19C0
11C0
91C0
81C0
C1C0
E1C0
FFE0
ENDCHAR
STARTCHAR uni2204
ENCODING 8708
SWIDTH 759 0
DWIDTH 13 0
BBX 11 14 1 0
BITMAP
FFE0
E1C0
C1C0
93C0
93C0
1BC0
1FC0
1FC0
17C0
9DC0
8DC0
CDC0
F9C0
FFE0
ENDCHAR
STARTCHAR minus
ENCODING 8722
SWIDTH 606 0
DWIDTH 10 0
BBX 9 2 0 4
BITMAP
FF80
FF80
ENDCHAR
STARTCHAR fraction
ENCODING 8725
SWIDTH 167 0
DWIDTH 3 0
BBX 8 14 -3 0
BITMAP
03
03
06
06
0C
0C
18
18
30
30
60
60
C0
C0
ENDCHAR
STARTCHAR periodcentered
ENCODING 8729
SWIDTH 278 0
DWIDTH 5 0
BBX 4 4 0 3
BITMAP
60
F0
F0
60
ENDCHAR
STARTCHAR uni2236
ENCODING 8758
SWIDTH 278 0
DWIDTH 6 0
BBX 4 9 1 0
BITMAP
60
F0
F0
60
00
60
F0
F0
60
ENDCHAR
STARTCHAR uni2259
ENCODING 8793
SWIDTH 606 0
DWIDTH 11 0
BBX 9 11 1 2
BITMAP
0800
1C00
3E00
6300
0000
FF80
FF80
0000
0000
FF80
FF80
ENDCHAR
STARTCHAR uni225A
ENCODING 8794
SWIDTH 606 0
DWIDTH 11 0
BBX 9 11 1 2
BITMAP
6300
3E00
1C00
0800
0000
FF80
FF80
0000
0000
FF80
FF80
ENDCHAR
STARTCHAR notequal
ENCODING 8800
SWIDTH 606 0
DWIDTH 11 0
BBX 9 14 1 -2
BITMAP
0300
0300
0300
0600
FF80
FF80
0C00
0C00
FF80
FF80
1800
1800
3000
3000
ENDCHAR
STARTCHAR equivalence
ENCODING 8801
SWIDTH 606 0
DWIDTH 11 0
BBX 9 8 0 1
BITMAP
FF80
FF80
0000
FF80
FF80
0000
FF80
FF80
ENDCHAR
STARTCHAR uni2262
ENCODING 8802
SWIDTH 606 0
DWIDTH 11 0
BBX 9 14 0 -2
BITMAP
0300
0300
0300
FF80
FF80
0600
FF80
FF80
0C00
FF80
FF80
1800
3000
3000
ENDCHAR
STARTCHAR lessequal
ENCODING 8804
SWIDTH 606 0
DWIDTH 11 0
BBX 10 13 0 -3
BITMAP
00C0
03C0
0F00
3C00
F000
F000
3C00
0F00
03C0
00C0
0000
FFC0
FFC0
ENDCHAR
STARTCHAR greaterequal
ENCODING 8805
SWIDTH 606 0
DWIDTH 11 0
BBX 10 13 0 -3
BITMAP
C000
F000
3C00
0F00
03C0
03C0
0F00
3C00
F000
C000
0000
FFC0
FFC0
ENDCHAR
STARTCHAR uni226E
ENCODING 8814
SWIDTH 606 0
DWIDTH 11 0
BBX 10 14 0 -2
BITMAP
0300
0300
03C0
07C0
0F00
3E00
FC00
FC00
3C00
1F00
1BC0
18C0
3000
3000
ENDCHAR
STARTCHAR uni226F
ENCODING 8815
SWIDTH 606 0
DWIDTH 11 0
BBX 10 14 0 -2
BITMAP
0300
0300
C300
F600
3E00
0F00
0FC0
0FC0
0F00
3C00
F800
D800
3000
3000
ENDCHAR
STARTCHAR uni2270
ENCODING 8816
SWIDTH 606 0
DWIDTH 11 0
BBX 10 14 0 -3
BITMAP
0300
03C0
03C0
0F00
3E00
F600
FC00
3C00
0F00
1BC0
18C0
1800
FFC0
FFC0
ENDCHAR
STARTCHAR uni2271
ENCODING 8817
SWIDTH 606 0
DWIDTH 11 0
BBX 10 14 0 -3
BITMAP
0300
C300
F300
3E00
0F00
07C0
0FC0
0F00
3C00
F800
D800
1800
FFC0
FFC0
ENDCHAR
STARTCHAR fi
ENCODING -1
SWIDTH 685 0
DWIDTH 12 0
BBX 11 14 0 0
BITMAP
0F80
39C0
31C0
7000
7000
FFC0
71C0
71C0
71C0
71C0
71C0
71C0
71C0
FBE0
ENDCHAR
STARTCHAR fl
ENCODING -1
SWIDTH 685 0
DWIDTH 12 0
BBX 11 14 0 0
BITMAP
1EC0
33C0
71C0
71C0
71C0
FFC0
71C0
71C0
71C0
71C0
71C0
71C0
71C0
FBE0
ENDCHAR
ENDFONT
